<?xml version="1.0" encoding="UTF-8" standalone="no"?>
<!-- Created with Inkscape (http://www.inkscape.org/) -->

<svg
   width="500"
   height="500"
   viewBox="0 0 132.29167 132.29167"
   version="1.1"
   id="svg490162"
   inkscape:version="1.2.1 (9c6d41e410, 2022-07-14)"
   sodipodi:docname="high-battery.svg"
   inkscape:export-filename="low-battery.png"
   inkscape:export-xdpi="300"
   inkscape:export-ydpi="300"
   xmlns:inkscape="http://www.inkscape.org/namespaces/inkscape"
   xmlns:sodipodi="http://sodipodi.sourceforge.net/DTD/sodipodi-0.dtd"
   xmlns="http://www.w3.org/2000/svg"
   xmlns:svg="http://www.w3.org/2000/svg">
  <sodipodi:namedview
     id="namedview490164"
     pagecolor="#ffffff"
     bordercolor="#666666"
     borderopacity="1.0"
     inkscape:showpageshadow="2"
     inkscape:pageopacity="0.0"
     inkscape:pagecheckerboard="0"
     inkscape:deskcolor="#d1d1d1"
     inkscape:document-units="mm"
     showgrid="false"
     inkscape:zoom="2.6954827"
     inkscape:cx="179.55968"
     inkscape:cy="273.04943"
     inkscape:window-width="3840"
     inkscape:window-height="2095"
     inkscape:window-x="5040"
     inkscape:window-y="0"
     inkscape:window-maximized="1"
     inkscape:current-layer="layer1" />
  <defs
     id="defs490159" />
  <g
     inkscape:label="Layer 1"
     inkscape:groupmode="layer"
     id="layer1">
    <rect
       style="fill:#ffffff;stroke:#ffffff;stroke-width:0.53;stroke-linecap:round;stroke-linejoin:bevel;paint-order:markers fill stroke"
       id="rect491343"
       width="132.29167"
       height="132.29167"
       x="0"
       y="0"
       ry="7.5133195" />
    <path
       style="fill:#02a802;stroke-width:0.151453"
       d="m 46.051802,102.52092 c -2.309455,-0.74137 -3.991347,-2.605799 -4.490189,-4.977531 -0.120769,-0.574174 -0.16881,-9.15342 -0.16881,-30.145302 0,-25.552247 0.02926,-29.455028 0.226453,-30.212149 0.583081,-2.238604 2.105295,-3.879622 4.329709,-4.667672 0.935695,-0.331489 1.194923,-0.346458 6.96023,-0.401877 l 5.988338,-0.05756 -0.05802,-0.496974 c -0.07529,-0.644862 0.313024,-1.381973 0.924381,-1.754744 0.460828,-0.280979 0.804158,-0.295643 6.921655,-0.295643 6.117498,0 6.460828,0.01466 6.921655,0.295643 0.617189,0.376321 0.999745,1.109175 0.922852,1.767852 l -0.05955,0.510082 4.626785,0.0012 c 5.50458,0.0014 6.773775,0.117798 8.075396,0.740805 1.77304,0.848644 3.226857,2.726797 3.587558,4.634647 0.125406,0.663318 0.159694,8.925241 0.12698,30.593619 l -0.04482,29.684896 -0.34295,0.832996 c -0.706668,1.716452 -2.121005,3.141762 -3.783842,3.813202 l -0.871176,0.35171 -19.461784,0.0309 c -18.537613,0.0294 -19.503054,0.0176 -20.330838,-0.2481 z m 39.218203,-3.267091 c 0.806884,-0.239616 1.733643,-1.081204 2.01998,-1.834352 0.09018,-0.237149 0.144703,-11.526611 0.144703,-29.956065 V 37.887921 L 87.082161,37.22042 C 86.850622,36.782025 86.477832,36.396974 85.996,36.098562 L 85.262357,35.644201 H 66.15546 47.048563 l -0.733641,0.454361 c -0.481834,0.298412 -0.854622,0.683463 -1.086164,1.121858 l -0.352523,0.667501 v 29.591382 c 0,29.280628 0.0032,29.597613 0.302543,30.184421 0.365033,0.715523 1.15238,1.375893 1.92814,1.617198 0.422904,0.131548 5.351264,0.180697 18.98319,0.189317 15.979714,0.01013 18.513425,-0.01849 19.179897,-0.21641 z M 48.05676,88.955855 v -6.133872 h 18.0987 18.098701 v 6.133872 6.133866 H 66.15546 48.05676 Z m 0,-14.388091 v -6.133866 h 18.0987 18.098701 v 6.133866 6.133873 H 66.15546 48.05676 Z m 0,-14.312358 v -6.058143 h 18.0987 18.098701 v 6.058143 6.05814 H 66.15546 48.05676 Z m 0,-14.38809 v -6.058142 h 18.0987 18.098701 v 6.058142 6.058143 H 66.15546 48.05676 Z"
       id="path490144" />
  </g>
</svg>
