<?xml version="1.0" encoding="UTF-8" standalone="no"?>
<!-- Created with Inkscape (http://www.inkscape.org/) -->

<svg
   version="1.1"
   id="svg842"
   width="576"
   height="384"
   viewBox="0 0 576 384"
   sodipodi:docname="random.svg"
   inkscape:version="1.2.1 (9c6d41e410, 2022-07-14)"
   xmlns:inkscape="http://www.inkscape.org/namespaces/inkscape"
   xmlns:sodipodi="http://sodipodi.sourceforge.net/DTD/sodipodi-0.dtd"
   xmlns="http://www.w3.org/2000/svg"
   xmlns:svg="http://www.w3.org/2000/svg">
  <defs
     id="defs846">
    <clipPath
       clipPathUnits="userSpaceOnUse"
       id="clipPath938">
      <path
         d="M -1021,-463 H 1794 V 1233 H -1021 Z"
         id="path936" />
    </clipPath>
    <clipPath
       clipPathUnits="userSpaceOnUse"
       id="clipPath970">
      <path
         d="M 56.291719,41.8 H 411.7625 V 261.2 H 56.291719 Z"
         id="path968" />
    </clipPath>
    <clipPath
       clipPathUnits="userSpaceOnUse"
       id="clipPath980">
      <path
         d="M 56.291719,41.8 H 411.7625 V 261.2 H 56.291719 Z"
         id="path978" />
    </clipPath>
    <clipPath
       clipPathUnits="userSpaceOnUse"
       id="clipPath990">
      <path
         d="M 56.291719,41.8 H 411.7625 V 261.2 H 56.291719 Z"
         id="path988" />
    </clipPath>
    <clipPath
       clipPathUnits="userSpaceOnUse"
       id="clipPath1000">
      <path
         d="M 56.291719,41.8 H 411.7625 V 261.2 H 56.291719 Z"
         id="path998" />
    </clipPath>
    <clipPath
       clipPathUnits="userSpaceOnUse"
       id="clipPath1010">
      <path
         d="M 56.291719,41.8 H 411.7625 V 261.2 H 56.291719 Z"
         id="path1008" />
    </clipPath>
    <clipPath
       clipPathUnits="userSpaceOnUse"
       id="clipPath1020">
      <path
         d="M 56.291719,41.8 H 411.7625 V 261.2 H 56.291719 Z"
         id="path1018" />
    </clipPath>
    <clipPath
       clipPathUnits="userSpaceOnUse"
       id="clipPath1030">
      <path
         d="M 56.291719,41.8 H 411.7625 V 261.2 H 56.291719 Z"
         id="path1028" />
    </clipPath>
    <clipPath
       clipPathUnits="userSpaceOnUse"
       id="clipPath1040">
      <path
         d="M 56.291719,41.8 H 411.7625 V 261.2 H 56.291719 Z"
         id="path1038" />
    </clipPath>
    <clipPath
       clipPathUnits="userSpaceOnUse"
       id="clipPath1050">
      <path
         d="M 56.291719,41.8 H 411.7625 V 261.2 H 56.291719 Z"
         id="path1048" />
    </clipPath>
  </defs>
  <sodipodi:namedview
     id="namedview844"
     pagecolor="#ffffff"
     bordercolor="#666666"
     borderopacity="1.0"
     inkscape:showpageshadow="2"
     inkscape:pageopacity="0.0"
     inkscape:pagecheckerboard="0"
     inkscape:deskcolor="#d1d1d1"
     showgrid="false"
     inkscape:zoom="1.9348958"
     inkscape:cx="287.87079"
     inkscape:cy="192"
     inkscape:window-width="3840"
     inkscape:window-height="2084"
     inkscape:window-x="1200"
     inkscape:window-y="0"
     inkscape:window-maximized="1"
     inkscape:current-layer="g850">
    <inkscape:page
       x="0"
       y="0"
       id="page848"
       width="576"
       height="384" />
  </sodipodi:namedview>
  <g
     id="g850"
     inkscape:groupmode="layer"
     inkscape:label="Page 1"
     transform="matrix(1.3333333,0,0,-1.3333333,0,384)">
    <path
       d="M 0,0 H 432 V 288 H 0 Z"
       style="fill:#ffffff;fill-opacity:1;fill-rule:nonzero;stroke:none"
       id="path852" />
    <path
       d="M 56.291719,41.8 H 411.7625 V 261.2 H 56.291719 Z"
       style="fill:#ffffff;fill-opacity:1;fill-rule:nonzero;stroke:none"
       id="path854" />
    <path
       d="M 56.291719,41.8 V 38.3"
       style="fill:#000000;fill-opacity:1;fill-rule:nonzero;stroke:#000000;stroke-width:0.8;stroke-linecap:butt;stroke-linejoin:round;stroke-miterlimit:10;stroke-dasharray:none;stroke-opacity:1"
       id="path856" />
    <g
       id="g858"
       transform="translate(53.112031,27.20625)">
      <text
         xml:space="preserve"
         transform="scale(1,-1)"
         style="font-variant:normal;font-weight:normal;font-size:10px;font-family:'DejaVu Sans';-inkscape-font-specification:DejaVuSans;writing-mode:lr-tb;fill:#000000;fill-opacity:1;fill-rule:nonzero;stroke:none"
         id="text862"><tspan
           x="0"
           y="0"
           id="tspan860">0</tspan></text>
    </g>
    <path
       d="M 115.53685,41.8 V 38.3"
       style="fill:#000000;fill-opacity:1;fill-rule:nonzero;stroke:#000000;stroke-width:0.8;stroke-linecap:butt;stroke-linejoin:round;stroke-miterlimit:10;stroke-dasharray:none;stroke-opacity:1"
       id="path864" />
    <g
       id="g866"
       transform="translate(105.99779,27.20625)">
      <text
         xml:space="preserve"
         transform="scale(1,-1)"
         style="font-variant:normal;font-weight:normal;font-size:10px;font-family:'DejaVu Sans';-inkscape-font-specification:DejaVuSans;writing-mode:lr-tb;fill:#000000;fill-opacity:1;fill-rule:nonzero;stroke:none"
         id="text870"><tspan
           x="0 6.3600001 12.72"
           y="0"
           sodipodi:role="line"
           id="tspan868">100</tspan></text>
    </g>
    <path
       d="M 174.78198,41.8 V 38.3"
       style="fill:#000000;fill-opacity:1;fill-rule:nonzero;stroke:#000000;stroke-width:0.8;stroke-linecap:butt;stroke-linejoin:round;stroke-miterlimit:10;stroke-dasharray:none;stroke-opacity:1"
       id="path872" />
    <g
       id="g874"
       transform="translate(165.24292,27.20625)">
      <text
         xml:space="preserve"
         transform="scale(1,-1)"
         style="font-variant:normal;font-weight:normal;font-size:10px;font-family:'DejaVu Sans';-inkscape-font-specification:DejaVuSans;writing-mode:lr-tb;fill:#000000;fill-opacity:1;fill-rule:nonzero;stroke:none"
         id="text878"><tspan
           x="0 6.3600001 12.72"
           y="0"
           sodipodi:role="line"
           id="tspan876">200</tspan></text>
    </g>
    <path
       d="M 234.02711,41.8 V 38.3"
       style="fill:#000000;fill-opacity:1;fill-rule:nonzero;stroke:#000000;stroke-width:0.8;stroke-linecap:butt;stroke-linejoin:round;stroke-miterlimit:10;stroke-dasharray:none;stroke-opacity:1"
       id="path880" />
    <g
       id="g882"
       transform="translate(224.48805,27.20625)">
      <text
         xml:space="preserve"
         transform="scale(1,-1)"
         style="font-variant:normal;font-weight:normal;font-size:10px;font-family:'DejaVu Sans';-inkscape-font-specification:DejaVuSans;writing-mode:lr-tb;fill:#000000;fill-opacity:1;fill-rule:nonzero;stroke:none"
         id="text886"><tspan
           x="0 6.3600001 12.72"
           y="0"
           sodipodi:role="line"
           id="tspan884">300</tspan></text>
    </g>
    <path
       d="M 293.27224,41.8 V 38.3"
       style="fill:#000000;fill-opacity:1;fill-rule:nonzero;stroke:#000000;stroke-width:0.8;stroke-linecap:butt;stroke-linejoin:round;stroke-miterlimit:10;stroke-dasharray:none;stroke-opacity:1"
       id="path888" />
    <g
       id="g890"
       transform="translate(283.73318,27.20625)">
      <text
         xml:space="preserve"
         transform="scale(1,-1)"
         style="font-variant:normal;font-weight:normal;font-size:10px;font-family:'DejaVu Sans';-inkscape-font-specification:DejaVuSans;writing-mode:lr-tb;fill:#000000;fill-opacity:1;fill-rule:nonzero;stroke:none"
         id="text894"><tspan
           x="0 6.3600001 12.72"
           y="0"
           sodipodi:role="line"
           id="tspan892">400</tspan></text>
    </g>
    <path
       d="M 352.51737,41.8 V 38.3"
       style="fill:#000000;fill-opacity:1;fill-rule:nonzero;stroke:#000000;stroke-width:0.8;stroke-linecap:butt;stroke-linejoin:round;stroke-miterlimit:10;stroke-dasharray:none;stroke-opacity:1"
       id="path896" />
    <g
       id="g898"
       transform="translate(342.97831,27.20625)">
      <text
         xml:space="preserve"
         transform="scale(1,-1)"
         style="font-variant:normal;font-weight:normal;font-size:10px;font-family:'DejaVu Sans';-inkscape-font-specification:DejaVuSans;writing-mode:lr-tb;fill:#000000;fill-opacity:1;fill-rule:nonzero;stroke:none"
         id="text902"><tspan
           x="0 6.3600001 12.72"
           y="0"
           sodipodi:role="line"
           id="tspan900">500</tspan></text>
    </g>
    <path
       d="M 411.7625,41.8 V 38.3"
       style="fill:#000000;fill-opacity:1;fill-rule:nonzero;stroke:#000000;stroke-width:0.8;stroke-linecap:butt;stroke-linejoin:round;stroke-miterlimit:10;stroke-dasharray:none;stroke-opacity:1"
       id="path904" />
    <g
       id="g906"
       transform="translate(402.22344,27.20625)">
      <text
         xml:space="preserve"
         transform="scale(1,-1)"
         style="font-variant:normal;font-weight:normal;font-size:10px;font-family:'DejaVu Sans';-inkscape-font-specification:DejaVuSans;writing-mode:lr-tb;fill:#000000;fill-opacity:1;fill-rule:nonzero;stroke:none"
         id="text910"><tspan
           x="0 6.3600001 12.72"
           y="0"
           sodipodi:role="line"
           id="tspan908">600</tspan></text>
    </g>
    <g
       id="g912"
       transform="translate(213.0193,13.534375)">
      <text
         xml:space="preserve"
         transform="scale(1,-1)"
         style="font-variant:normal;font-weight:normal;font-size:10px;font-family:'DejaVu Sans';-inkscape-font-specification:DejaVuSans;writing-mode:lr-tb;fill:#000000;fill-opacity:1;fill-rule:nonzero;stroke:none"
         id="text916"><tspan
           x="0 3.9200001 6.6999998 16.440001 22.59 25.77 29.67 34.880001 38.779999"
           y="0"
           sodipodi:role="line"
           id="tspan914">time (s) </tspan></text>
    </g>
    <path
       d="m 56.291719,179.14461 h -3.5"
       style="fill:#000000;fill-opacity:1;fill-rule:nonzero;stroke:#000000;stroke-width:0.8;stroke-linecap:butt;stroke-linejoin:round;stroke-miterlimit:10;stroke-dasharray:none;stroke-opacity:1"
       id="path918" />
    <g
       id="g920"
       transform="translate(25.291719,175.18367)">
      <text
         xml:space="preserve"
         transform="matrix(1,0,0,-1,0,0.0640625)"
         style="font-variant:normal;font-weight:normal;font-size:10px;font-family:'DejaVu Sans';-inkscape-font-specification:DejaVuSans;writing-mode:lr-tb;fill:#000000;fill-opacity:1;fill-rule:nonzero;stroke:none"
         id="text924"><tspan
           x="0 6.3623047"
           y="0"
           sodipodi:role="line"
           id="tspan922">10</tspan></text>
      <text
         xml:space="preserve"
         transform="matrix(1,0,0,-1,18.685547,3.8921875)"
         style="font-variant:normal;font-weight:normal;font-size:7px;font-family:'DejaVu Sans';-inkscape-font-specification:DejaVuSans;writing-mode:lr-tb;fill:#000000;fill-opacity:1;fill-rule:nonzero;stroke:none"
         id="text928"><tspan
           x="0"
           y="0"
           id="tspan926">1</tspan></text>
      <g
         id="g930"
         transform="matrix(0.007,0,0,0.007,12.820313,3.8921875)">
        <g
           id="g932">
          <g
             id="g934"
             clip-path="url(#clipPath938)">
            <path
               d="M 106,355 H 732 V 272 H 106 Z"
               style="fill:#000000;fill-opacity:1;fill-rule:nonzero;stroke:none"
               id="path940" />
          </g>
        </g>
      </g>
    </g>
    <path
       d="m 56.291719,73.382949 h -2"
       style="fill:#000000;fill-opacity:1;fill-rule:nonzero;stroke:#000000;stroke-width:0.6;stroke-linecap:butt;stroke-linejoin:round;stroke-miterlimit:10;stroke-dasharray:none;stroke-opacity:1"
       id="path942" />
    <path
       d="m 56.291719,98.654062 h -2"
       style="fill:#000000;fill-opacity:1;fill-rule:nonzero;stroke:#000000;stroke-width:0.6;stroke-linecap:butt;stroke-linejoin:round;stroke-miterlimit:10;stroke-dasharray:none;stroke-opacity:1"
       id="path944" />
    <path
       d="m 56.291719,118.25586 h -2"
       style="fill:#000000;fill-opacity:1;fill-rule:nonzero;stroke:#000000;stroke-width:0.6;stroke-linecap:butt;stroke-linejoin:round;stroke-miterlimit:10;stroke-dasharray:none;stroke-opacity:1"
       id="path946" />
    <path
       d="m 56.291719,134.27169 h -2"
       style="fill:#000000;fill-opacity:1;fill-rule:nonzero;stroke:#000000;stroke-width:0.6;stroke-linecap:butt;stroke-linejoin:round;stroke-miterlimit:10;stroke-dasharray:none;stroke-opacity:1"
       id="path948" />
    <path
       d="m 56.291719,147.81289 h -2"
       style="fill:#000000;fill-opacity:1;fill-rule:nonzero;stroke:#000000;stroke-width:0.6;stroke-linecap:butt;stroke-linejoin:round;stroke-miterlimit:10;stroke-dasharray:none;stroke-opacity:1"
       id="path950" />
    <path
       d="m 56.291719,159.54281 h -2"
       style="fill:#000000;fill-opacity:1;fill-rule:nonzero;stroke:#000000;stroke-width:0.6;stroke-linecap:butt;stroke-linejoin:round;stroke-miterlimit:10;stroke-dasharray:none;stroke-opacity:1"
       id="path952" />
    <path
       d="m 56.291719,169.88933 h -2"
       style="fill:#000000;fill-opacity:1;fill-rule:nonzero;stroke:#000000;stroke-width:0.6;stroke-linecap:butt;stroke-linejoin:round;stroke-miterlimit:10;stroke-dasharray:none;stroke-opacity:1"
       id="path954" />
    <path
       d="m 56.291719,240.03335 h -2"
       style="fill:#000000;fill-opacity:1;fill-rule:nonzero;stroke:#000000;stroke-width:0.6;stroke-linecap:butt;stroke-linejoin:round;stroke-miterlimit:10;stroke-dasharray:none;stroke-opacity:1"
       id="path956" />
    <g
       id="g958"
       transform="rotate(90,-25.623672,44.837266)">
      <text
         xml:space="preserve"
         transform="scale(1,-1)"
         style="font-variant:normal;font-weight:normal;font-size:10px;font-family:'DejaVu Sans';-inkscape-font-specification:DejaVuSans;writing-mode:lr-tb;fill:#000000;fill-opacity:1;fill-rule:nonzero;stroke:none"
         id="text962"><tspan
           x="0 2.78 9.1199999 14.33 18.25 24.379999 30.73 33.509998 36.290001 39.07 42.990002 48.91 52.09 54.869999 61.209999 64.389999 68.309998 74.650002 80.800003 83.980003 86.760002 92.889999 98.099998 102.02 105.2 111.56 117.92 121.1 126.31 132.46001 137.96001 144.08 150.42 156.77"
           y="0"
           sodipodi:role="line"
           id="tspan960">instability in the last 10 seconds</tspan></text>
    </g>
    <g
       id="g964">
      <g
         id="g966"
         clip-path="url(#clipPath970)">
        <path
           d="m 57.480584,171.97888 1.188866,46.59952 1.188865,16.34232 1.188866,9.65335 1.188865,6.6532 2.377731,-78.02977 1.188866,-26.16739 3.566596,-66.329858 1.188866,-19.119198 1.188865,-9.808327 1.188866,9.637353 1.188865,27.359347 1.188866,32.853993 1.188865,28.31877 1.188866,21.70629 1.188865,14.24814 1.188866,7.26476 1.188865,1.93059 1.188866,-1.98977 1.188865,-4.65735 5.944327,-32.43426 1.188866,-4.44584 1.188865,-3.27691 1.188866,-1.77457 1.188865,0.24356 2.377731,3.65689 1.188866,2.26462 1.188865,1.91254 1.188864,0.16133 1.18887,-1.09332 1.18886,-0.63336 1.18887,-1.0972 1.18886,-1.91819 1.18887,-1.09175 1.18887,0.0347 1.18886,-0.65962 1.18887,-0.82131 2.37773,-0.45787 3.56659,0.50636 1.18887,0.52035 1.18886,1.1113 2.37774,-0.31077 1.18886,0.16171 1.18887,-0.26534 1.18886,-0.47813 1.18887,0.0936 1.18886,0.81253 1.18887,0.43759 2.37773,1.31803 2.37773,-0.69866 1.18887,0.50039 1.18886,-0.19933 1.18887,-0.85037 2.37773,-1.07234 1.18886,-1.31443 1.18887,-1.1385 1.18886,-0.46998 1.18887,0.47957 1.18886,0.81083 1.18887,1.00219 1.18887,0.43422 1.18886,0.92376 1.18887,0.40179 1.18886,0.17112 2.37773,0.89125 2.37773,-0.22957 1.18887,-0.44016 1.18886,0.26972 2.37774,0.9924 1.18886,0.61116 1.18887,0.2002 1.18886,-0.82341 2.37773,-1.17004 1.18887,-0.53039 1.18886,-0.11065 1.18887,0.14504 2.37773,0.50638 1.18887,0.061 1.18886,-0.10317 1.18887,0.5711 1.18886,-0.22179 1.18887,0.1969 1.18886,0.63932 1.18887,1.01619 1.18886,0.0923 1.18887,0.38892 1.18887,-0.333 3.56659,-2.32854 2.37773,-0.26606 1.18887,0.40335 1.18887,0.17665 2.37772,0.16839 1.18887,0.37998 3.5666,-0.74148 1.18886,-0.91525 1.18887,-1.66534 1.18886,-0.76005 1.18887,-0.38601 1.18886,-0.0598 1.18887,0.68813 1.18887,1.58889 2.37773,1.95837 1.18886,0.24599 3.5666,-1.07382 1.18886,-0.63869 1.18887,-0.0376 1.18886,0.55252 1.18887,0.0491 1.18887,-0.39751 3.56659,-0.43273 1.18887,0.13666 3.56659,1.25818 2.37774,-0.52537 2.37773,1.36914 1.18886,0.91935 1.18887,0.4935 1.18886,-0.0879 1.18887,0.18876 1.18886,-0.56809 1.18887,-0.88713 1.18886,-0.37214 1.18887,0.24062 1.18887,-0.14199 1.18886,-0.2586 1.18887,-0.0613 1.18886,0.82759 1.18887,0.33186 1.18886,0.002 1.18887,0.3491 1.18886,-0.23717 2.37773,-1.47552 1.18887,-0.5884 1.18887,-0.25206 1.18886,-0.0405 1.18887,-0.97564 1.18886,-0.0976 1.18887,0.25156 1.18886,0.0136 1.18887,0.47869 2.37773,2.39467 2.37773,1.65582 1.18887,0.0153 1.18886,0.86375 1.18887,0.43334 2.37773,-1.62157 1.18886,-0.3512 2.37774,-1.31894 1.18886,-0.012 2.37773,0.6088 1.18887,-0.0832 1.18886,-0.48825 2.37773,-1.37536 1.18887,-0.20394 2.37773,-0.0742 1.18887,0.31853 1.18886,0.92513 1.18887,0.15113 1.18886,0.37369 2.37773,-0.0235 2.37773,-0.0403 1.18887,-0.43866 1.18886,-0.1253 1.18887,0.092 1.18887,-1.10215 1.18886,-0.302 1.18887,-0.46298 1.18886,0.15069 1.18887,0.28708 1.18886,0.7868 1.18887,0.0457 1.18886,0.56175 1.18887,0.0133 1.18886,0.16146 1.18887,0.47479 2.37773,0.39331 1.18887,0.7618 2.37773,0.0546 1.18886,0.47582 1.18887,-0.57367 1.18887,-0.29955 1.18886,0.37072 2.37773,-0.60382 1.18887,-0.39428 1.18886,-0.59928 1.18887,-0.4382 1.18886,-0.25277 1.18887,0.23518 1.18886,0.37486 1.18887,0.85453 3.5666,-0.37723 1.18886,0.16633 1.18887,-0.16933 1.18886,0.26166 1.18887,-0.0977 1.18886,-0.40589 1.18887,-0.19489 2.37773,0.88408 1.18887,0.81487 1.18886,0.46091 1.18887,0.11368 1.18886,-1.67216 1.18887,-0.83182 1.18886,-0.19037 1.18887,0.22731 1.18886,1.02554 1.18887,1.41854 1.18886,-0.11783 2.37774,-1.99091 2.37773,-3.53731 1.18886,-0.87453 1.18887,0.0564 1.18886,0.47464 1.18887,0.34159 1.18886,1.18986 1.18887,1.64393 2.37773,1.98657 1.18887,0.43398 1.18886,-0.15508 1.18887,-0.63264 1.18886,0.14548 1.18887,0.30627 1.18886,0.11866 1.18887,-0.0919 1.18886,0.13285 1.18887,-0.0883 1.18887,-0.63045 1.18886,0.27083 1.18887,0.43492 1.18886,1.18036 1.18887,0.42003 2.37773,0.33748 1.18886,0.67974 1.18887,-0.23619 1.18887,-0.91382 1.18886,-0.42887 1.18887,-0.18939 1.18886,-0.77173 1.18887,-0.44287 1.18886,0.13559 1.18887,-0.0232 2.37773,0.32453 1.18886,-0.54532 1.18887,0.13694 v 0"
           style="fill:none;stroke:#440154;stroke-width:1;stroke-linecap:square;stroke-linejoin:round;stroke-miterlimit:10;stroke-dasharray:none;stroke-opacity:1"
           id="path972" />
      </g>
    </g>
    <g
       id="g974">
      <g
         id="g976"
         clip-path="url(#clipPath980)">
        <path
           d="m 57.480584,171.97888 1.188866,46.59952 1.188865,16.34232 1.188866,9.65335 1.188865,6.6532 2.377731,-78.02977 1.188866,-26.16739 3.566596,-66.329858 1.188866,-19.119198 1.188865,-9.808327 1.188866,9.637353 1.188865,27.359347 1.188866,32.853993 1.188865,28.31877 1.188866,21.70629 1.188865,14.24814 1.188866,7.26476 1.188865,1.93059 1.188866,-1.98977 1.188865,-4.65735 5.944327,-32.43426 1.188866,-4.44584 1.188865,-3.27691 1.188866,-1.77457 1.188865,0.24356 2.377731,3.65689 1.188866,2.26462 1.188865,1.91254 1.188864,0.16133 1.18887,-1.09332 1.18886,-0.63336 1.18887,-1.0972 1.18886,-1.91819 1.18887,-1.09175 1.18887,0.0347 1.18886,-0.65962 1.18887,-0.82131 2.37773,-0.45787 3.56659,0.50636 1.18887,0.52035 1.18886,1.1113 2.37774,-0.31077 1.18886,0.16171 1.18887,-0.26534 1.18886,-0.47813 1.18887,0.0936 1.18886,0.81253 1.18887,0.43759 2.37773,1.31803 2.37773,-0.69866 1.18887,0.50039 1.18886,-0.19933 1.18887,-0.85037 2.37773,-1.07234 1.18886,-1.31443 1.18887,-1.1385 1.18886,-0.46998 1.18887,0.47957 1.18886,0.81083 1.18887,1.00219 1.18887,0.43422 1.18886,0.92376 1.18887,0.40179 1.18886,0.17112 2.37773,0.89125 2.37773,-0.22957 1.18887,-0.44016 1.18886,0.26972 2.37774,0.9924 1.18886,0.61116 1.18887,0.2002 1.18886,-0.82341 2.37773,-1.17004 1.18887,-0.53039 1.18886,-0.11065 1.18887,0.14504 2.37773,0.50638 1.18887,0.061 1.18886,-0.10317 1.18887,0.5711 1.18886,-0.22179 1.18887,0.1969 1.18886,0.63932 1.18887,1.01619 1.18886,0.0923 1.18887,0.38892 1.18887,-0.333 3.56659,-2.32854 2.37773,-0.26606 1.18887,0.40335 1.18887,0.17665 2.37772,0.16839 1.18887,0.37998 3.5666,-0.74148 1.18886,-0.91525 1.18887,-1.66534 1.18886,-0.76005 1.18887,-0.38601 1.18886,-0.0598 1.18887,0.68813 1.18887,1.58889 2.37773,1.95837 1.18886,0.24599 3.5666,-1.07382 1.18886,-0.63869 1.18887,-0.0376 1.18886,0.55252 1.18887,0.0491 1.18887,-0.39751 3.56659,-0.43273 1.18887,0.13666 3.56659,1.25818 2.37774,-0.52537 2.37773,1.36914 1.18886,0.91935 1.18887,0.4935 1.18886,-0.0879 1.18887,0.18876 1.18886,-0.56809 1.18887,-0.88713 1.18886,-0.37214 1.18887,0.24062 1.18887,-0.14199 1.18886,-0.2586 1.18887,-0.0613 1.18886,0.82759 1.18887,0.33186 1.18886,0.002 1.18887,0.3491 1.18886,-0.23717 2.37773,-1.47552 1.18887,-0.5884 1.18887,-0.25206 1.18886,-0.0405 1.18887,-0.97564 1.18886,-0.0976 1.18887,0.25156 1.18886,0.0136 1.18887,0.47869 2.37773,2.39467 2.37773,1.65582 1.18887,0.0153 1.18886,0.86375 1.18887,0.43334 2.37773,-1.62157 1.18886,-0.3512 2.37774,-1.31894 1.18886,-0.012 2.37773,0.6088 1.18887,-0.0832 1.18886,-0.48825 2.37773,-1.37536 1.18887,-0.20394 2.37773,-0.0742 1.18887,0.31853 1.18886,0.92513 1.18887,0.15113 1.18886,0.37369 2.37773,-0.0235 2.37773,-0.0403 1.18887,-0.43866 1.18886,-0.1253 1.18887,0.092 1.18887,-1.10215 1.18886,-0.302 1.18887,-0.46298 1.18886,0.15069 1.18887,0.28708 1.18886,0.7868 1.18887,0.0457 1.18886,0.56175 1.18887,0.0133 1.18886,0.16146 1.18887,0.47479 2.37773,0.39331 1.18887,0.7618 2.37773,0.0546 1.18886,0.47582 1.18887,-0.57367 1.18887,-0.29955 1.18886,0.37072 2.37773,-0.60382 1.18887,-0.39428 1.18886,-0.59928 1.18887,-0.4382 1.18886,-0.25277 1.18887,0.23518 1.18886,0.37486 1.18887,0.85453 3.5666,-0.37723 1.18886,0.16633 1.18887,-0.16933 1.18886,0.26166 1.18887,-0.0977 1.18886,-0.40589 1.18887,-0.19489 2.37773,0.88408 1.18887,0.81487 1.18886,0.46091 1.18887,0.11368 1.18886,-1.67216 1.18887,-0.83182 1.18886,-0.19037 1.18887,0.22731 1.18886,1.02554 1.18887,1.41854 1.18886,-0.11783 2.37774,-1.99091 2.37773,-3.53731 1.18886,-0.87453 1.18887,0.0564 1.18886,0.47464 1.18887,0.34159 1.18886,1.18986 1.18887,1.64393 2.37773,1.98657 1.18887,0.43398 1.18886,-0.15508 1.18887,-0.63264 1.18886,0.14548 1.18887,0.30627 1.18886,0.11866 1.18887,-0.0919 1.18886,0.13285 1.18887,-0.0883 1.18887,-0.63045 1.18886,0.27083 1.18887,0.43492 1.18886,1.18036 1.18887,0.42003 2.37773,0.33748 1.18886,0.67974 1.18887,-0.23619 1.18887,-0.91382 1.18886,-0.42887 1.18887,-0.18939 1.18886,-0.77173 1.18887,-0.44287 1.18886,0.13559 1.18887,-0.0232 2.37773,0.32453 1.18886,-0.54532 1.18887,0.13694 v 0"
           style="fill:none;stroke:#440154;stroke-width:0.5;stroke-linecap:square;stroke-linejoin:round;stroke-miterlimit:10;stroke-dasharray:none;stroke-opacity:1"
           id="path982" />
      </g>
    </g>
    <g
       id="g984">
      <g
         id="g986"
         clip-path="url(#clipPath990)">
        <path
           d="m 57.480584,171.97888 1.188866,46.59952 1.188865,16.34232 1.188866,9.65335 1.188865,6.6532 2.377731,-78.02977 1.188866,-26.16739 3.566596,-66.329858 1.188866,-19.119198 1.188865,-9.808327 1.188866,9.637353 1.188865,27.359347 1.188866,32.853993 1.188865,28.31877 1.188866,21.70629 1.188865,14.24814 1.188866,7.26476 1.188865,1.93059 1.188866,-1.98977 1.188865,-4.65735 5.944327,-32.43426 1.188866,-4.44584 1.188865,-3.27691 1.188866,-1.77457 1.188865,0.24356 2.377731,3.65689 1.188866,2.26462 1.188865,1.91254 1.188864,0.16133 1.18887,-1.09332 1.18886,-0.63336 1.18887,-1.0972 1.18886,-1.91819 1.18887,-1.09175 1.18887,0.0347 1.18886,-0.65962 1.18887,-0.82131 2.37773,-0.45787 3.56659,0.50636 1.18887,0.52035 1.18886,1.1113 2.37774,-0.31077 1.18886,0.16171 1.18887,-0.26534 1.18886,-0.47813 1.18887,0.0936 1.18886,0.81253 1.18887,0.43759 2.37773,1.31803 2.37773,-0.69866 1.18887,0.50039 1.18886,-0.19933 1.18887,-0.85037 2.37773,-1.07234 1.18886,-1.31443 1.18887,-1.1385 1.18886,-0.46998 1.18887,0.47957 1.18886,0.81083 1.18887,1.00219 1.18887,0.43422 1.18886,0.92376 1.18887,0.40179 1.18886,0.17112 2.37773,0.89125 2.37773,-0.22957 1.18887,-0.44016 1.18886,0.26972 2.37774,0.9924 1.18886,0.61116 1.18887,0.2002 1.18886,-0.82341 2.37773,-1.17004 1.18887,-0.53039 1.18886,-0.11065 1.18887,0.14504 2.37773,0.50638 1.18887,0.061 1.18886,-0.10317 1.18887,0.5711 1.18886,-0.22179 1.18887,0.1969 1.18886,0.63932 1.18887,1.01619 1.18886,0.0923 1.18887,0.38892 1.18887,-0.333 3.56659,-2.32854 2.37773,-0.26606 1.18887,0.40335 1.18887,0.17665 2.37772,0.16839 1.18887,0.37998 3.5666,-0.74148 1.18886,-0.91525 1.18887,-1.66534 1.18886,-0.76005 1.18887,-0.38601 1.18886,-0.0598 1.18887,0.68813 1.18887,1.58889 2.37773,1.95837 1.18886,0.24599 3.5666,-1.07382 1.18886,-0.63869 1.18887,-0.0376 1.18886,0.55252 1.18887,0.0491 1.18887,-0.39751 3.56659,-0.43273 1.18887,0.13666 3.56659,1.25818 2.37774,-0.52537 2.37773,1.36914 1.18886,0.91935 1.18887,0.4935 1.18886,-0.0879 1.18887,0.18876 1.18886,-0.56809 1.18887,-0.88713 1.18886,-0.37214 1.18887,0.24062 1.18887,-0.14199 1.18886,-0.2586 1.18887,-0.0613 1.18886,0.82759 1.18887,0.33186 1.18886,0.002 1.18887,0.3491 1.18886,-0.23717 2.37773,-1.47552 1.18887,-0.5884 1.18887,-0.25206 1.18886,-0.0405 1.18887,-0.97564 1.18886,-0.0976 1.18887,0.25156 1.18886,0.0136 1.18887,0.47869 2.37773,2.39467 2.37773,1.65582 1.18887,0.0153 1.18886,0.86375 1.18887,0.43334 2.37773,-1.62157 1.18886,-0.3512 2.37774,-1.31894 1.18886,-0.012 2.37773,0.6088 1.18887,-0.0832 1.18886,-0.48825 2.37773,-1.37536 1.18887,-0.20394 2.37773,-0.0742 1.18887,0.31853 1.18886,0.92513 1.18887,0.15113 1.18886,0.37369 2.37773,-0.0235 2.37773,-0.0403 1.18887,-0.43866 1.18886,-0.1253 1.18887,0.092 1.18887,-1.10215 1.18886,-0.302 1.18887,-0.46298 1.18886,0.15069 1.18887,0.28708 1.18886,0.7868 1.18887,0.0457 1.18886,0.56175 1.18887,0.0133 1.18886,0.16146 1.18887,0.47479 2.37773,0.39331 1.18887,0.7618 2.37773,0.0546 1.18886,0.47582 1.18887,-0.57367 1.18887,-0.29955 1.18886,0.37072 2.37773,-0.60382 1.18887,-0.39428 1.18886,-0.59928 1.18887,-0.4382 1.18886,-0.25277 1.18887,0.23518 1.18886,0.37486 1.18887,0.85453 3.5666,-0.37723 1.18886,0.16633 1.18887,-0.16933 1.18886,0.26166 1.18887,-0.0977 1.18886,-0.40589 1.18887,-0.19489 2.37773,0.88408 1.18887,0.81487 1.18886,0.46091 1.18887,0.11368 1.18886,-1.67216 1.18887,-0.83182 1.18886,-0.19037 1.18887,0.22731 1.18886,1.02554 1.18887,1.41854 1.18886,-0.11783 2.37774,-1.99091 2.37773,-3.53731 1.18886,-0.87453 1.18887,0.0564 1.18886,0.47464 1.18887,0.34159 1.18886,1.18986 1.18887,1.64393 2.37773,1.98657 1.18887,0.43398 1.18886,-0.15508 1.18887,-0.63264 1.18886,0.14548 1.18887,0.30627 1.18886,0.11866 1.18887,-0.0919 1.18886,0.13285 1.18887,-0.0883 1.18887,-0.63045 1.18886,0.27083 1.18887,0.43492 1.18886,1.18036 1.18887,0.42003 2.37773,0.33748 1.18886,0.67974 1.18887,-0.23619 1.18887,-0.91382 1.18886,-0.42887 1.18887,-0.18939 1.18886,-0.77173 1.18887,-0.44287 1.18886,0.13559 1.18887,-0.0232 2.37773,0.32453 1.18886,-0.54532 1.18887,0.13694 v 0"
           style="fill:none;stroke:#440154;stroke-width:0.5;stroke-linecap:square;stroke-linejoin:round;stroke-miterlimit:10;stroke-dasharray:none;stroke-opacity:1"
           id="path992" />
      </g>
    </g>
    <g
       id="g994">
      <g
         id="g996"
         clip-path="url(#clipPath1000)">
        <path
           d="m 57.480584,70.580417 1.188866,67.896283 1.188865,25.79952 1.188866,15.41221 1.188865,11.81778 1.188866,-12.53043 1.188865,-20.71436 1.188866,-9.76476 1.188865,-3.24953 1.188866,0.8282 1.188865,5.19855 1.188866,11.72742 2.377731,34.57535 1.188865,13.20037 1.188866,7.06685 1.188865,0.37746 1.188866,-6.16192 1.188865,-11.07366 1.188866,-13.15624 1.188865,-10.49142 1.188866,-5.50373 1.188865,-1.56325 1.188865,1.56659 2.377731,7.03152 1.188866,2.62299 1.188865,1.21081 1.188866,-1.28654 1.188865,-1.98072 1.188866,-3.33071 1.188865,-3.80794 1.188866,-2.99832 1.188865,-1.15577 1.188866,-0.56134 1.188865,0.55089 1.188864,0.77723 1.18887,0.91216 1.18886,0.36602 1.18887,-0.26206 1.18886,-1.02451 2.37774,-0.68374 1.18886,-0.0612 1.18887,-0.27618 3.56659,-0.43899 2.37773,-1.77568 1.18887,-0.31445 1.18886,0.41373 1.18887,0.17323 1.18887,0.9767 2.37773,2.55184 2.37773,1.01168 1.18886,-0.72283 1.18887,-0.12277 1.18886,-0.6672 1.18887,-0.89971 1.18886,-0.44307 1.18887,0.1016 1.18887,-0.6159 1.18886,-0.33157 2.37773,0.17074 2.37773,0.8862 1.18887,0.20359 1.18886,-0.15215 2.37773,-0.64795 1.18887,0.25614 1.18887,0.42676 2.37773,-0.37261 1.18886,-1.20562 1.18887,-0.12203 1.18886,-0.4745 1.18887,-0.17258 1.18886,-0.0354 1.18887,0.10148 2.37773,-0.59774 1.18887,0.2364 1.18886,-0.1328 1.18887,0.72995 1.18886,0.20359 2.37773,1.34032 1.18887,0.6541 2.37773,-0.84907 1.18887,0.0629 1.18886,-0.27137 1.18887,-0.83547 1.18886,0.51671 1.18887,0.75938 2.37773,-0.69816 2.37773,0.98418 2.37773,-0.073 1.18887,0.2499 1.18886,-0.004 2.37773,-0.70609 1.18887,-0.0468 1.18886,0.47494 2.37774,-0.64728 1.18886,0.67181 1.18886,0.9707 1.18887,0.14395 2.37773,0.6392 1.18887,-0.55127 1.18886,-1.01407 1.18887,-0.76403 1.18886,0.37306 2.37773,0.97343 1.18887,-0.007 1.18887,-0.15695 1.18886,-0.66116 1.18887,-1.16013 1.18886,-0.84912 2.37773,-0.33527 1.18887,0.12902 2.37773,1.76003 2.37773,2.8863 1.18887,0.3952 2.37773,-1.25196 1.18886,-1.24761 1.18887,-0.75776 1.18886,0.2006 2.37773,1.54512 1.18887,0.4194 1.18887,0.23981 1.18886,-0.27174 1.18887,-0.68403 1.18886,-0.20571 1.18887,-0.008 1.18886,-0.1878 1.18887,0.13418 1.18886,-0.0348 1.18887,-0.5207 1.18886,-0.10001 1.18887,0.23385 4.75546,-0.26787 1.18887,-0.13675 1.18886,-0.34759 1.18887,0.315 1.18886,0.69083 1.18887,0.3813 1.18886,-0.25253 2.37774,0.14793 1.18886,0.008 1.18887,0.2936 1.18886,0.53026 2.37773,0.70369 1.18887,0.13247 1.18886,-0.69821 1.18887,-0.33174 1.18887,-0.47498 3.56659,-2.05159 1.18887,-0.5475 1.18886,0.60627 2.37773,1.49934 1.18887,1.10966 1.18887,0.20379 1.18886,-0.27657 2.37773,-0.0404 1.18887,-0.33734 1.18886,0.36589 1.18887,-0.70503 1.18886,-1.32851 1.18887,-0.44379 1.18886,0.38334 1.18887,-0.11296 1.18887,0.12102 1.18886,1.03496 1.18887,0.0732 1.18886,-0.35051 1.18887,0.038 1.18886,0.55455 2.37773,-0.29277 1.18887,0.005 3.5666,-0.50077 1.18886,0.22253 1.18887,-0.71963 2.37773,0.59218 1.18886,-0.28656 1.18887,0.0577 1.18886,0.35082 1.18887,-0.41754 1.18886,0.26908 1.18887,0.0545 1.18887,-0.42 1.18886,0.34848 1.18887,0.74692 1.18886,0.25416 1.18887,0.96437 1.18886,1.13232 1.18887,-0.11601 1.18887,-0.82763 1.18886,-1.61088 1.18887,-0.11993 2.37773,0.0169 2.37773,1.3469 1.18886,-0.18652 1.18887,-0.33082 1.18886,0.56734 2.37773,0.70285 1.18887,-0.29949 1.18887,-0.55148 1.18886,-0.74635 2.37773,-0.80168 1.18887,-0.18455 1.18886,0.50919 1.18887,0.21625 1.18886,-0.075 1.18887,0.62296 1.18887,0.3806 2.37773,0.15512 2.37773,-0.81942 1.18886,0.82433 1.18887,0.3177 1.18886,0.044 1.18887,0.47928 1.18886,0.26772 1.18887,-1.11701 1.18887,-1.34878 1.18886,-0.64686 1.18887,0.0196 2.37773,-0.28991 1.18886,0.66283 1.18887,0.13127 1.18886,0.24853 1.18887,0.56811 1.18886,0.30337 1.18887,-0.2273 1.18887,0.4884 1.18886,-0.58177 1.18887,-0.88117 1.18886,0.20942 1.18887,0.67175 1.18886,-0.69666 3.5666,-0.38143 1.18887,-0.60851 1.18886,-0.0499 1.18887,0.4154 1.18886,0.74441 1.18887,0.10888 1.18886,0.29713 1.18887,0.70725 2.37773,-0.53905 1.18887,0.57736 1.18886,0.0172 1.18887,-0.25664 1.18886,-0.0187 1.18887,-0.41909 1.18886,-0.74837 3.5666,0.2631 1.18886,-0.12945 1.18887,-0.48518 v 0"
           style="fill:none;stroke:#21918c;stroke-width:1;stroke-linecap:square;stroke-linejoin:round;stroke-miterlimit:10;stroke-dasharray:none;stroke-opacity:1"
           id="path1002" />
      </g>
    </g>
    <g
       id="g1004">
      <g
         id="g1006"
         clip-path="url(#clipPath1010)">
        <path
           d="m 57.480584,70.580417 1.188866,67.896283 1.188865,25.79952 1.188866,15.41221 1.188865,11.81778 1.188866,-12.53043 1.188865,-20.71436 1.188866,-9.76476 1.188865,-3.24953 1.188866,0.8282 1.188865,5.19855 1.188866,11.72742 2.377731,34.57535 1.188865,13.20037 1.188866,7.06685 1.188865,0.37746 1.188866,-6.16192 1.188865,-11.07366 1.188866,-13.15624 1.188865,-10.49142 1.188866,-5.50373 1.188865,-1.56325 1.188865,1.56659 2.377731,7.03152 1.188866,2.62299 1.188865,1.21081 1.188866,-1.28654 1.188865,-1.98072 1.188866,-3.33071 1.188865,-3.80794 1.188866,-2.99832 1.188865,-1.15577 1.188866,-0.56134 1.188865,0.55089 1.188864,0.77723 1.18887,0.91216 1.18886,0.36602 1.18887,-0.26206 1.18886,-1.02451 2.37774,-0.68374 1.18886,-0.0612 1.18887,-0.27618 3.56659,-0.43899 2.37773,-1.77568 1.18887,-0.31445 1.18886,0.41373 1.18887,0.17323 1.18887,0.9767 2.37773,2.55184 2.37773,1.01168 1.18886,-0.72283 1.18887,-0.12277 1.18886,-0.6672 1.18887,-0.89971 1.18886,-0.44307 1.18887,0.1016 1.18887,-0.6159 1.18886,-0.33157 2.37773,0.17074 2.37773,0.8862 1.18887,0.20359 1.18886,-0.15215 2.37773,-0.64795 1.18887,0.25614 1.18887,0.42676 2.37773,-0.37261 1.18886,-1.20562 1.18887,-0.12203 1.18886,-0.4745 1.18887,-0.17258 1.18886,-0.0354 1.18887,0.10148 2.37773,-0.59774 1.18887,0.2364 1.18886,-0.1328 1.18887,0.72995 1.18886,0.20359 2.37773,1.34032 1.18887,0.6541 2.37773,-0.84907 1.18887,0.0629 1.18886,-0.27137 1.18887,-0.83547 1.18886,0.51671 1.18887,0.75938 2.37773,-0.69816 2.37773,0.98418 2.37773,-0.073 1.18887,0.2499 1.18886,-0.004 2.37773,-0.70609 1.18887,-0.0468 1.18886,0.47494 2.37774,-0.64728 1.18886,0.67181 1.18886,0.9707 1.18887,0.14395 2.37773,0.6392 1.18887,-0.55127 1.18886,-1.01407 1.18887,-0.76403 1.18886,0.37306 2.37773,0.97343 1.18887,-0.007 1.18887,-0.15695 1.18886,-0.66116 1.18887,-1.16013 1.18886,-0.84912 2.37773,-0.33527 1.18887,0.12902 2.37773,1.76003 2.37773,2.8863 1.18887,0.3952 2.37773,-1.25196 1.18886,-1.24761 1.18887,-0.75776 1.18886,0.2006 2.37773,1.54512 1.18887,0.4194 1.18887,0.23981 1.18886,-0.27174 1.18887,-0.68403 1.18886,-0.20571 1.18887,-0.008 1.18886,-0.1878 1.18887,0.13418 1.18886,-0.0348 1.18887,-0.5207 1.18886,-0.10001 1.18887,0.23385 4.75546,-0.26787 1.18887,-0.13675 1.18886,-0.34759 1.18887,0.315 1.18886,0.69083 1.18887,0.3813 1.18886,-0.25253 2.37774,0.14793 1.18886,0.008 1.18887,0.2936 1.18886,0.53026 2.37773,0.70369 1.18887,0.13247 1.18886,-0.69821 1.18887,-0.33174 1.18887,-0.47498 3.56659,-2.05159 1.18887,-0.5475 1.18886,0.60627 2.37773,1.49934 1.18887,1.10966 1.18887,0.20379 1.18886,-0.27657 2.37773,-0.0404 1.18887,-0.33734 1.18886,0.36589 1.18887,-0.70503 1.18886,-1.32851 1.18887,-0.44379 1.18886,0.38334 1.18887,-0.11296 1.18887,0.12102 1.18886,1.03496 1.18887,0.0732 1.18886,-0.35051 1.18887,0.038 1.18886,0.55455 2.37773,-0.29277 1.18887,0.005 3.5666,-0.50077 1.18886,0.22253 1.18887,-0.71963 2.37773,0.59218 1.18886,-0.28656 1.18887,0.0577 1.18886,0.35082 1.18887,-0.41754 1.18886,0.26908 1.18887,0.0545 1.18887,-0.42 1.18886,0.34848 1.18887,0.74692 1.18886,0.25416 1.18887,0.96437 1.18886,1.13232 1.18887,-0.11601 1.18887,-0.82763 1.18886,-1.61088 1.18887,-0.11993 2.37773,0.0169 2.37773,1.3469 1.18886,-0.18652 1.18887,-0.33082 1.18886,0.56734 2.37773,0.70285 1.18887,-0.29949 1.18887,-0.55148 1.18886,-0.74635 2.37773,-0.80168 1.18887,-0.18455 1.18886,0.50919 1.18887,0.21625 1.18886,-0.075 1.18887,0.62296 1.18887,0.3806 2.37773,0.15512 2.37773,-0.81942 1.18886,0.82433 1.18887,0.3177 1.18886,0.044 1.18887,0.47928 1.18886,0.26772 1.18887,-1.11701 1.18887,-1.34878 1.18886,-0.64686 1.18887,0.0196 2.37773,-0.28991 1.18886,0.66283 1.18887,0.13127 1.18886,0.24853 1.18887,0.56811 1.18886,0.30337 1.18887,-0.2273 1.18887,0.4884 1.18886,-0.58177 1.18887,-0.88117 1.18886,0.20942 1.18887,0.67175 1.18886,-0.69666 3.5666,-0.38143 1.18887,-0.60851 1.18886,-0.0499 1.18887,0.4154 1.18886,0.74441 1.18887,0.10888 1.18886,0.29713 1.18887,0.70725 2.37773,-0.53905 1.18887,0.57736 1.18886,0.0172 1.18887,-0.25664 1.18886,-0.0187 1.18887,-0.41909 1.18886,-0.74837 3.5666,0.2631 1.18886,-0.12945 1.18887,-0.48518 v 0"
           style="fill:none;stroke:#21918c;stroke-width:0.5;stroke-linecap:square;stroke-linejoin:round;stroke-miterlimit:10;stroke-dasharray:none;stroke-opacity:1"
           id="path1012" />
      </g>
    </g>
    <g
       id="g1014">
      <g
         id="g1016"
         clip-path="url(#clipPath1020)">
        <path
           d="m 57.480584,70.580417 1.188866,67.896283 1.188865,25.79952 1.188866,15.41221 1.188865,11.81778 1.188866,-12.53043 1.188865,-20.71436 1.188866,-9.76476 1.188865,-3.24953 1.188866,0.8282 1.188865,5.19855 1.188866,11.72742 2.377731,34.57535 1.188865,13.20037 1.188866,7.06685 1.188865,0.37746 1.188866,-6.16192 1.188865,-11.07366 1.188866,-13.15624 1.188865,-10.49142 1.188866,-5.50373 1.188865,-1.56325 1.188865,1.56659 2.377731,7.03152 1.188866,2.62299 1.188865,1.21081 1.188866,-1.28654 1.188865,-1.98072 1.188866,-3.33071 1.188865,-3.80794 1.188866,-2.99832 1.188865,-1.15577 1.188866,-0.56134 1.188865,0.55089 1.188864,0.77723 1.18887,0.91216 1.18886,0.36602 1.18887,-0.26206 1.18886,-1.02451 2.37774,-0.68374 1.18886,-0.0612 1.18887,-0.27618 3.56659,-0.43899 2.37773,-1.77568 1.18887,-0.31445 1.18886,0.41373 1.18887,0.17323 1.18887,0.9767 2.37773,2.55184 2.37773,1.01168 1.18886,-0.72283 1.18887,-0.12277 1.18886,-0.6672 1.18887,-0.89971 1.18886,-0.44307 1.18887,0.1016 1.18887,-0.6159 1.18886,-0.33157 2.37773,0.17074 2.37773,0.8862 1.18887,0.20359 1.18886,-0.15215 2.37773,-0.64795 1.18887,0.25614 1.18887,0.42676 2.37773,-0.37261 1.18886,-1.20562 1.18887,-0.12203 1.18886,-0.4745 1.18887,-0.17258 1.18886,-0.0354 1.18887,0.10148 2.37773,-0.59774 1.18887,0.2364 1.18886,-0.1328 1.18887,0.72995 1.18886,0.20359 2.37773,1.34032 1.18887,0.6541 2.37773,-0.84907 1.18887,0.0629 1.18886,-0.27137 1.18887,-0.83547 1.18886,0.51671 1.18887,0.75938 2.37773,-0.69816 2.37773,0.98418 2.37773,-0.073 1.18887,0.2499 1.18886,-0.004 2.37773,-0.70609 1.18887,-0.0468 1.18886,0.47494 2.37774,-0.64728 1.18886,0.67181 1.18886,0.9707 1.18887,0.14395 2.37773,0.6392 1.18887,-0.55127 1.18886,-1.01407 1.18887,-0.76403 1.18886,0.37306 2.37773,0.97343 1.18887,-0.007 1.18887,-0.15695 1.18886,-0.66116 1.18887,-1.16013 1.18886,-0.84912 2.37773,-0.33527 1.18887,0.12902 2.37773,1.76003 2.37773,2.8863 1.18887,0.3952 2.37773,-1.25196 1.18886,-1.24761 1.18887,-0.75776 1.18886,0.2006 2.37773,1.54512 1.18887,0.4194 1.18887,0.23981 1.18886,-0.27174 1.18887,-0.68403 1.18886,-0.20571 1.18887,-0.008 1.18886,-0.1878 1.18887,0.13418 1.18886,-0.0348 1.18887,-0.5207 1.18886,-0.10001 1.18887,0.23385 4.75546,-0.26787 1.18887,-0.13675 1.18886,-0.34759 1.18887,0.315 1.18886,0.69083 1.18887,0.3813 1.18886,-0.25253 2.37774,0.14793 1.18886,0.008 1.18887,0.2936 1.18886,0.53026 2.37773,0.70369 1.18887,0.13247 1.18886,-0.69821 1.18887,-0.33174 1.18887,-0.47498 3.56659,-2.05159 1.18887,-0.5475 1.18886,0.60627 2.37773,1.49934 1.18887,1.10966 1.18887,0.20379 1.18886,-0.27657 2.37773,-0.0404 1.18887,-0.33734 1.18886,0.36589 1.18887,-0.70503 1.18886,-1.32851 1.18887,-0.44379 1.18886,0.38334 1.18887,-0.11296 1.18887,0.12102 1.18886,1.03496 1.18887,0.0732 1.18886,-0.35051 1.18887,0.038 1.18886,0.55455 2.37773,-0.29277 1.18887,0.005 3.5666,-0.50077 1.18886,0.22253 1.18887,-0.71963 2.37773,0.59218 1.18886,-0.28656 1.18887,0.0577 1.18886,0.35082 1.18887,-0.41754 1.18886,0.26908 1.18887,0.0545 1.18887,-0.42 1.18886,0.34848 1.18887,0.74692 1.18886,0.25416 1.18887,0.96437 1.18886,1.13232 1.18887,-0.11601 1.18887,-0.82763 1.18886,-1.61088 1.18887,-0.11993 2.37773,0.0169 2.37773,1.3469 1.18886,-0.18652 1.18887,-0.33082 1.18886,0.56734 2.37773,0.70285 1.18887,-0.29949 1.18887,-0.55148 1.18886,-0.74635 2.37773,-0.80168 1.18887,-0.18455 1.18886,0.50919 1.18887,0.21625 1.18886,-0.075 1.18887,0.62296 1.18887,0.3806 2.37773,0.15512 2.37773,-0.81942 1.18886,0.82433 1.18887,0.3177 1.18886,0.044 1.18887,0.47928 1.18886,0.26772 1.18887,-1.11701 1.18887,-1.34878 1.18886,-0.64686 1.18887,0.0196 2.37773,-0.28991 1.18886,0.66283 1.18887,0.13127 1.18886,0.24853 1.18887,0.56811 1.18886,0.30337 1.18887,-0.2273 1.18887,0.4884 1.18886,-0.58177 1.18887,-0.88117 1.18886,0.20942 1.18887,0.67175 1.18886,-0.69666 3.5666,-0.38143 1.18887,-0.60851 1.18886,-0.0499 1.18887,0.4154 1.18886,0.74441 1.18887,0.10888 1.18886,0.29713 1.18887,0.70725 2.37773,-0.53905 1.18887,0.57736 1.18886,0.0172 1.18887,-0.25664 1.18886,-0.0187 1.18887,-0.41909 1.18886,-0.74837 3.5666,0.2631 1.18886,-0.12945 1.18887,-0.48518 v 0"
           style="fill:none;stroke:#21918c;stroke-width:0.5;stroke-linecap:square;stroke-linejoin:round;stroke-miterlimit:10;stroke-dasharray:none;stroke-opacity:1"
           id="path1022" />
      </g>
    </g>
    <g
       id="g1024">
      <g
         id="g1026"
         clip-path="url(#clipPath1030)">
        <path
           d="m 57.480584,100.89704 1.188866,65.71081 1.188865,24.90141 1.188866,13.72398 1.188865,8.40505 1.188866,-20.78299 1.188865,-32.69428 1.188866,-22.34624 1.188865,-12.97993 1.188866,-4.09252 1.188865,1.70151 1.188866,2.20335 1.188865,0.0286 1.188866,-1.735 1.188865,-2.18819 1.188866,-2.53011 1.188865,-1.98814 1.188866,-1.14998 2.377731,-0.13125 1.188865,0.26593 1.188866,0.0973 1.188865,0.37524 2.377731,0.1762 2.377731,2.30377 3.566596,2.09478 1.188866,-0.33462 1.188865,0.0353 1.188866,0.61381 1.188865,0.38414 1.188866,0.0247 1.188865,0.78921 1.188864,0.25786 1.18887,-0.39975 1.18886,0.21275 1.18887,0.39711 1.18886,0.14677 1.18887,0.0193 1.18887,0.28607 3.56659,0.009 1.18887,0.55935 1.18886,0.68434 1.18887,0.50487 1.18886,0.3472 1.18887,-0.62514 1.18886,-0.79602 1.18887,-1.12836 1.18887,-0.44092 1.18886,-0.14944 1.18887,1.18596 1.18886,0.92549 1.18887,0.46076 2.37773,-0.22761 2.37773,-0.52649 1.18886,-0.65967 2.37774,0.13749 1.18886,-0.41647 1.18887,-0.5901 1.18886,0.30016 1.18887,0.0646 1.18886,0.76245 1.18887,0.94365 1.18886,0.69073 1.18887,0.33806 1.18886,0.12837 2.37774,-1.07165 2.37773,-0.0238 1.18886,-0.16868 1.18887,-0.32097 1.18886,-0.14063 1.18887,0.24886 1.18886,0.54321 2.37773,1.505 1.18887,0.21911 2.37773,-1.0628 1.18887,-0.22995 3.56659,0.37885 1.18887,0.15514 1.18886,-0.25926 1.18887,-0.81528 1.18887,-0.24352 3.56659,-0.37729 2.37773,1.3351 1.18887,0.86763 1.18886,0.43865 1.18887,0.66943 1.18886,-0.21539 1.18887,-0.66223 2.37773,-0.56272 1.18887,0.15295 1.18886,-0.0898 1.18887,0.20372 1.18886,0.0484 1.18887,0.57354 1.18887,-0.15488 1.18886,0.11558 2.37773,-1.10342 1.18887,-0.1325 1.18886,0.11381 h 1.18887 l 1.18886,0.57738 1.18887,0.78825 1.18886,0.10073 2.37773,1.53576 1.18887,0.43703 1.18887,0.64218 1.18886,-0.38397 1.18887,-0.84219 1.18886,-0.48106 1.18887,0.0609 1.18886,-0.19936 2.37773,0.33439 2.37773,-0.12555 1.18887,-0.77778 1.18887,0.21338 1.18886,-0.34821 1.18887,0.0247 1.18886,-0.2694 1.18887,0.0656 1.18886,-0.0961 1.18887,0.55726 2.37773,0.1495 1.18887,0.12305 1.18886,-0.42947 1.18887,-0.82585 2.37773,-0.24823 1.18886,-0.3048 2.37773,0.99776 1.18887,0.31253 1.18886,0.79824 1.18887,1.15935 1.18887,-0.17731 1.18886,0.25063 4.75546,-2.15147 1.18887,-0.75106 1.18886,0.3675 1.18887,0.23242 1.18886,-0.42522 1.18887,0.60831 1.18887,0.19945 1.18886,-0.37454 1.18887,-0.2003 2.37773,0.0409 1.18886,0.36164 1.18887,1.15019 1.18886,0.0418 2.37774,1.2824 1.18886,0.20547 1.18887,-0.96718 2.37773,0.21116 1.18886,-0.89979 1.18887,-0.33526 1.18886,-0.15938 1.18887,0.0746 1.18887,0.40823 1.18886,0.81081 1.18887,0.32083 1.18886,0.18526 1.18887,-0.58825 2.37773,-1.97428 1.18886,-0.0897 2.37773,1.69689 1.18887,0.53446 1.18887,0.70811 1.18886,-0.003 1.18887,-1.4173 2.37773,-0.69192 1.18886,0.15388 1.18887,-0.27304 1.18886,0.12551 1.18887,-0.38027 2.37773,-0.37632 1.18887,0.11843 2.37773,1.53142 1.18886,0.33411 1.18887,-0.47803 1.18886,0.51716 3.5666,-0.37874 1.18886,0.22525 1.18887,-0.61432 1.18887,-0.25849 1.18886,-0.11962 1.18887,0.36075 2.37773,0.009 1.18886,0.93675 2.37774,0.31809 1.18886,0.6953 2.37773,-0.71865 1.18887,-0.92022 1.18886,-1.13452 1.18887,-0.83989 1.18886,-0.6168 1.18887,-0.29539 1.18886,0.0886 2.37773,0.98759 2.37774,1.81595 1.18886,0.80178 1.18887,0.60585 2.37773,0.69084 3.56659,-0.49831 1.18887,0.35611 1.18887,0.19287 1.18886,-0.53353 2.37773,-0.34044 1.18887,-0.70675 1.18886,-0.4843 1.18887,0.39908 1.18886,0.0563 2.37773,-0.45616 1.18887,0.13819 1.18887,-0.33644 1.18886,-0.0969 1.18887,-0.24239 1.18886,0.0759 1.18887,-0.41174 1.18886,0.13482 1.18887,-0.0388 1.18886,0.14576 1.18887,-0.12118 1.18886,0.0515 1.18887,-0.19905 1.18887,-0.39228 1.18886,0.47322 1.18887,0.33646 1.18886,0.66986 1.18887,0.43101 1.18886,0.26335 2.37773,-0.52045 1.18887,-0.87143 1.18887,0.65046 1.18886,-0.005 2.37773,0.47108 1.18887,0.0507 1.18886,-1.11776 1.18887,-0.009 1.18886,-0.68765 1.18887,-0.55113 2.37773,-0.57881 1.18887,0.046 1.18886,0.8392 1.18887,0.57858 1.18886,0.44151 1.18887,0.12697 3.56659,-1.43018 1.18887,-0.69727 v 0"
           style="fill:none;stroke:#fde725;stroke-width:1;stroke-linecap:square;stroke-linejoin:round;stroke-miterlimit:10;stroke-dasharray:none;stroke-opacity:1"
           id="path1032" />
      </g>
    </g>
    <g
       id="g1034">
      <g
         id="g1036"
         clip-path="url(#clipPath1040)">
        <path
           d="m 57.480584,100.89704 1.188866,65.71081 1.188865,24.90141 1.188866,13.72398 1.188865,8.40505 1.188866,-20.78299 1.188865,-32.69428 1.188866,-22.34624 1.188865,-12.97993 1.188866,-4.09252 1.188865,1.70151 1.188866,2.20335 1.188865,0.0286 1.188866,-1.735 1.188865,-2.18819 1.188866,-2.53011 1.188865,-1.98814 1.188866,-1.14998 2.377731,-0.13125 1.188865,0.26593 1.188866,0.0973 1.188865,0.37524 2.377731,0.1762 2.377731,2.30377 3.566596,2.09478 1.188866,-0.33462 1.188865,0.0353 1.188866,0.61381 1.188865,0.38414 1.188866,0.0247 1.188865,0.78921 1.188864,0.25786 1.18887,-0.39975 1.18886,0.21275 1.18887,0.39711 1.18886,0.14677 1.18887,0.0193 1.18887,0.28607 3.56659,0.009 1.18887,0.55935 1.18886,0.68434 1.18887,0.50487 1.18886,0.3472 1.18887,-0.62514 1.18886,-0.79602 1.18887,-1.12836 1.18887,-0.44092 1.18886,-0.14944 1.18887,1.18596 1.18886,0.92549 1.18887,0.46076 2.37773,-0.22761 2.37773,-0.52649 1.18886,-0.65967 2.37774,0.13749 1.18886,-0.41647 1.18887,-0.5901 1.18886,0.30016 1.18887,0.0646 1.18886,0.76245 1.18887,0.94365 1.18886,0.69073 1.18887,0.33806 1.18886,0.12837 2.37774,-1.07165 2.37773,-0.0238 1.18886,-0.16868 1.18887,-0.32097 1.18886,-0.14063 1.18887,0.24886 1.18886,0.54321 2.37773,1.505 1.18887,0.21911 2.37773,-1.0628 1.18887,-0.22995 3.56659,0.37885 1.18887,0.15514 1.18886,-0.25926 1.18887,-0.81528 1.18887,-0.24352 3.56659,-0.37729 2.37773,1.3351 1.18887,0.86763 1.18886,0.43865 1.18887,0.66943 1.18886,-0.21539 1.18887,-0.66223 2.37773,-0.56272 1.18887,0.15295 1.18886,-0.0898 1.18887,0.20372 1.18886,0.0484 1.18887,0.57354 1.18887,-0.15488 1.18886,0.11558 2.37773,-1.10342 1.18887,-0.1325 1.18886,0.11381 h 1.18887 l 1.18886,0.57738 1.18887,0.78825 1.18886,0.10073 2.37773,1.53576 1.18887,0.43703 1.18887,0.64218 1.18886,-0.38397 1.18887,-0.84219 1.18886,-0.48106 1.18887,0.0609 1.18886,-0.19936 2.37773,0.33439 2.37773,-0.12555 1.18887,-0.77778 1.18887,0.21338 1.18886,-0.34821 1.18887,0.0247 1.18886,-0.2694 1.18887,0.0656 1.18886,-0.0961 1.18887,0.55726 2.37773,0.1495 1.18887,0.12305 1.18886,-0.42947 1.18887,-0.82585 2.37773,-0.24823 1.18886,-0.3048 2.37773,0.99776 1.18887,0.31253 1.18886,0.79824 1.18887,1.15935 1.18887,-0.17731 1.18886,0.25063 4.75546,-2.15147 1.18887,-0.75106 1.18886,0.3675 1.18887,0.23242 1.18886,-0.42522 1.18887,0.60831 1.18887,0.19945 1.18886,-0.37454 1.18887,-0.2003 2.37773,0.0409 1.18886,0.36164 1.18887,1.15019 1.18886,0.0418 2.37774,1.2824 1.18886,0.20547 1.18887,-0.96718 2.37773,0.21116 1.18886,-0.89979 1.18887,-0.33526 1.18886,-0.15938 1.18887,0.0746 1.18887,0.40823 1.18886,0.81081 1.18887,0.32083 1.18886,0.18526 1.18887,-0.58825 2.37773,-1.97428 1.18886,-0.0897 2.37773,1.69689 1.18887,0.53446 1.18887,0.70811 1.18886,-0.003 1.18887,-1.4173 2.37773,-0.69192 1.18886,0.15388 1.18887,-0.27304 1.18886,0.12551 1.18887,-0.38027 2.37773,-0.37632 1.18887,0.11843 2.37773,1.53142 1.18886,0.33411 1.18887,-0.47803 1.18886,0.51716 3.5666,-0.37874 1.18886,0.22525 1.18887,-0.61432 1.18887,-0.25849 1.18886,-0.11962 1.18887,0.36075 2.37773,0.009 1.18886,0.93675 2.37774,0.31809 1.18886,0.6953 2.37773,-0.71865 1.18887,-0.92022 1.18886,-1.13452 1.18887,-0.83989 1.18886,-0.6168 1.18887,-0.29539 1.18886,0.0886 2.37773,0.98759 2.37774,1.81595 1.18886,0.80178 1.18887,0.60585 2.37773,0.69084 3.56659,-0.49831 1.18887,0.35611 1.18887,0.19287 1.18886,-0.53353 2.37773,-0.34044 1.18887,-0.70675 1.18886,-0.4843 1.18887,0.39908 1.18886,0.0563 2.37773,-0.45616 1.18887,0.13819 1.18887,-0.33644 1.18886,-0.0969 1.18887,-0.24239 1.18886,0.0759 1.18887,-0.41174 1.18886,0.13482 1.18887,-0.0388 1.18886,0.14576 1.18887,-0.12118 1.18886,0.0515 1.18887,-0.19905 1.18887,-0.39228 1.18886,0.47322 1.18887,0.33646 1.18886,0.66986 1.18887,0.43101 1.18886,0.26335 2.37773,-0.52045 1.18887,-0.87143 1.18887,0.65046 1.18886,-0.005 2.37773,0.47108 1.18887,0.0507 1.18886,-1.11776 1.18887,-0.009 1.18886,-0.68765 1.18887,-0.55113 2.37773,-0.57881 1.18887,0.046 1.18886,0.8392 1.18887,0.57858 1.18886,0.44151 1.18887,0.12697 3.56659,-1.43018 1.18887,-0.69727 v 0"
           style="fill:none;stroke:#fde725;stroke-width:0.5;stroke-linecap:square;stroke-linejoin:round;stroke-miterlimit:10;stroke-dasharray:none;stroke-opacity:1"
           id="path1042" />
      </g>
    </g>
    <g
       id="g1044">
      <g
         id="g1046"
         clip-path="url(#clipPath1050)">
        <path
           d="m 57.480584,100.89704 1.188866,65.71081 1.188865,24.90141 1.188866,13.72398 1.188865,8.40505 1.188866,-20.78299 1.188865,-32.69428 1.188866,-22.34624 1.188865,-12.97993 1.188866,-4.09252 1.188865,1.70151 1.188866,2.20335 1.188865,0.0286 1.188866,-1.735 1.188865,-2.18819 1.188866,-2.53011 1.188865,-1.98814 1.188866,-1.14998 2.377731,-0.13125 1.188865,0.26593 1.188866,0.0973 1.188865,0.37524 2.377731,0.1762 2.377731,2.30377 3.566596,2.09478 1.188866,-0.33462 1.188865,0.0353 1.188866,0.61381 1.188865,0.38414 1.188866,0.0247 1.188865,0.78921 1.188864,0.25786 1.18887,-0.39975 1.18886,0.21275 1.18887,0.39711 1.18886,0.14677 1.18887,0.0193 1.18887,0.28607 3.56659,0.009 1.18887,0.55935 1.18886,0.68434 1.18887,0.50487 1.18886,0.3472 1.18887,-0.62514 1.18886,-0.79602 1.18887,-1.12836 1.18887,-0.44092 1.18886,-0.14944 1.18887,1.18596 1.18886,0.92549 1.18887,0.46076 2.37773,-0.22761 2.37773,-0.52649 1.18886,-0.65967 2.37774,0.13749 1.18886,-0.41647 1.18887,-0.5901 1.18886,0.30016 1.18887,0.0646 1.18886,0.76245 1.18887,0.94365 1.18886,0.69073 1.18887,0.33806 1.18886,0.12837 2.37774,-1.07165 2.37773,-0.0238 1.18886,-0.16868 1.18887,-0.32097 1.18886,-0.14063 1.18887,0.24886 1.18886,0.54321 2.37773,1.505 1.18887,0.21911 2.37773,-1.0628 1.18887,-0.22995 3.56659,0.37885 1.18887,0.15514 1.18886,-0.25926 1.18887,-0.81528 1.18887,-0.24352 3.56659,-0.37729 2.37773,1.3351 1.18887,0.86763 1.18886,0.43865 1.18887,0.66943 1.18886,-0.21539 1.18887,-0.66223 2.37773,-0.56272 1.18887,0.15295 1.18886,-0.0898 1.18887,0.20372 1.18886,0.0484 1.18887,0.57354 1.18887,-0.15488 1.18886,0.11558 2.37773,-1.10342 1.18887,-0.1325 1.18886,0.11381 h 1.18887 l 1.18886,0.57738 1.18887,0.78825 1.18886,0.10073 2.37773,1.53576 1.18887,0.43703 1.18887,0.64218 1.18886,-0.38397 1.18887,-0.84219 1.18886,-0.48106 1.18887,0.0609 1.18886,-0.19936 2.37773,0.33439 2.37773,-0.12555 1.18887,-0.77778 1.18887,0.21338 1.18886,-0.34821 1.18887,0.0247 1.18886,-0.2694 1.18887,0.0656 1.18886,-0.0961 1.18887,0.55726 2.37773,0.1495 1.18887,0.12305 1.18886,-0.42947 1.18887,-0.82585 2.37773,-0.24823 1.18886,-0.3048 2.37773,0.99776 1.18887,0.31253 1.18886,0.79824 1.18887,1.15935 1.18887,-0.17731 1.18886,0.25063 4.75546,-2.15147 1.18887,-0.75106 1.18886,0.3675 1.18887,0.23242 1.18886,-0.42522 1.18887,0.60831 1.18887,0.19945 1.18886,-0.37454 1.18887,-0.2003 2.37773,0.0409 1.18886,0.36164 1.18887,1.15019 1.18886,0.0418 2.37774,1.2824 1.18886,0.20547 1.18887,-0.96718 2.37773,0.21116 1.18886,-0.89979 1.18887,-0.33526 1.18886,-0.15938 1.18887,0.0746 1.18887,0.40823 1.18886,0.81081 1.18887,0.32083 1.18886,0.18526 1.18887,-0.58825 2.37773,-1.97428 1.18886,-0.0897 2.37773,1.69689 1.18887,0.53446 1.18887,0.70811 1.18886,-0.003 1.18887,-1.4173 2.37773,-0.69192 1.18886,0.15388 1.18887,-0.27304 1.18886,0.12551 1.18887,-0.38027 2.37773,-0.37632 1.18887,0.11843 2.37773,1.53142 1.18886,0.33411 1.18887,-0.47803 1.18886,0.51716 3.5666,-0.37874 1.18886,0.22525 1.18887,-0.61432 1.18887,-0.25849 1.18886,-0.11962 1.18887,0.36075 2.37773,0.009 1.18886,0.93675 2.37774,0.31809 1.18886,0.6953 2.37773,-0.71865 1.18887,-0.92022 1.18886,-1.13452 1.18887,-0.83989 1.18886,-0.6168 1.18887,-0.29539 1.18886,0.0886 2.37773,0.98759 2.37774,1.81595 1.18886,0.80178 1.18887,0.60585 2.37773,0.69084 3.56659,-0.49831 1.18887,0.35611 1.18887,0.19287 1.18886,-0.53353 2.37773,-0.34044 1.18887,-0.70675 1.18886,-0.4843 1.18887,0.39908 1.18886,0.0563 2.37773,-0.45616 1.18887,0.13819 1.18887,-0.33644 1.18886,-0.0969 1.18887,-0.24239 1.18886,0.0759 1.18887,-0.41174 1.18886,0.13482 1.18887,-0.0388 1.18886,0.14576 1.18887,-0.12118 1.18886,0.0515 1.18887,-0.19905 1.18887,-0.39228 1.18886,0.47322 1.18887,0.33646 1.18886,0.66986 1.18887,0.43101 1.18886,0.26335 2.37773,-0.52045 1.18887,-0.87143 1.18887,0.65046 1.18886,-0.005 2.37773,0.47108 1.18887,0.0507 1.18886,-1.11776 1.18887,-0.009 1.18886,-0.68765 1.18887,-0.55113 2.37773,-0.57881 1.18887,0.046 1.18886,0.8392 1.18887,0.57858 1.18886,0.44151 1.18887,0.12697 3.56659,-1.43018 1.18887,-0.69727 v 0"
           style="fill:none;stroke:#fde725;stroke-width:0.5;stroke-linecap:square;stroke-linejoin:round;stroke-miterlimit:10;stroke-dasharray:none;stroke-opacity:1"
           id="path1052" />
      </g>
    </g>
    <g
       id="g1054">
      <path
         d="M 56.291719,41.8 V 261.2"
         style="fill:none;stroke:#000000;stroke-width:0.8;stroke-linecap:square;stroke-linejoin:miter;stroke-miterlimit:10;stroke-dasharray:none;stroke-opacity:1"
         id="path1056" />
      <path
         d="M 411.7625,41.8 V 261.2"
         style="fill:none;stroke:#000000;stroke-width:0.8;stroke-linecap:square;stroke-linejoin:miter;stroke-miterlimit:10;stroke-dasharray:none;stroke-opacity:1"
         id="path1058" />
      <path
         d="M 56.291719,41.8 H 411.7625"
         style="fill:none;stroke:#000000;stroke-width:0.8;stroke-linecap:square;stroke-linejoin:miter;stroke-miterlimit:10;stroke-dasharray:none;stroke-opacity:1"
         id="path1060" />
      <path
         d="M 56.291719,261.2 H 411.7625"
         style="fill:none;stroke:#000000;stroke-width:0.8;stroke-linecap:square;stroke-linejoin:miter;stroke-miterlimit:10;stroke-dasharray:none;stroke-opacity:1"
         id="path1062" />
      <g
         id="g1064"
         transform="translate(103.47242,267.2)">
        <text
           xml:space="preserve"
           transform="scale(1,-1)"
           style="font-variant:normal;font-weight:normal;font-size:12px;font-family:'DejaVu Sans';-inkscape-font-specification:DejaVuSans;writing-mode:lr-tb;fill:#000000;fill-opacity:1;fill-rule:nonzero;stroke:none"
           id="text1068"><tspan
             x="0 3.54 11.148 17.4 22.104 29.459999 37.080002 40.416 43.751999 47.088001 51.792 58.896 62.712002 66.047997 73.655998 77.472 82.176003 89.783997 97.164001 100.98 105.912 113.268 120.876 128.496 135.84 147.528 150.864 157.968 161.784 173.472 180.81599 187.92 191.256 198.864 206.48399 210.3 216.552 223.15199 230.532 238.14 245.496 250.42799 253.76401"
             y="0"
             sodipodi:role="line"
             id="tspan1066">Instability in the randomly moving scenario</tspan></text>
      </g>
      <path
         d="m 151.075,238.52813 h 253.6875 c 1.33333,0 2,0.66666 2,2 V 254.2 c 0,1.33333 -0.66667,2 -2,2 H 151.075 c -1.33333,0 -2,-0.66667 -2,-2 v -13.67187 c 0,-1.33334 0.66667,-2 2,-2 z"
         style="fill:#ffffff;fill-opacity:0.8;fill-rule:nonzero;stroke:#cccccc;stroke-width:1;stroke-linecap:butt;stroke-linejoin:miter;stroke-miterlimit:10;stroke-dasharray:none;stroke-opacity:0.8"
         id="path1070" />
      <path
         d="m 153.075,248.10625 h 10 10"
         style="fill:none;stroke:#440154;stroke-width:1;stroke-linecap:square;stroke-linejoin:round;stroke-miterlimit:10;stroke-dasharray:none;stroke-opacity:1"
         id="path1072" />
      <g
         id="g1074"
         transform="translate(181.075,244.60625)">
        <text
           xml:space="preserve"
           transform="scale(1,-1)"
           style="font-variant:normal;font-weight:normal;font-size:10px;font-family:'DejaVu Sans';-inkscape-font-specification:DejaVuSans;writing-mode:lr-tb;fill:#000000;fill-opacity:1;fill-rule:nonzero;stroke:none"
           id="text1078"><tspan
             x="0 3.8912499 10.04125 15.54125 21.88125 25.991249 31.20125 33.981251 39.901249"
             y="0"
             sodipodi:role="line"
             id="tspan1076">recursive</tspan></text>
      </g>
      <path
         d="m 247.12187,248.10625 h 10 10"
         style="fill:none;stroke:#21918c;stroke-width:1;stroke-linecap:square;stroke-linejoin:round;stroke-miterlimit:10;stroke-dasharray:none;stroke-opacity:1"
         id="path1080" />
      <g
         id="g1082"
         transform="translate(275.12187,244.60625)">
        <text
           xml:space="preserve"
           transform="scale(1,-1)"
           style="font-variant:normal;font-weight:normal;font-size:10px;font-family:'DejaVu Sans';-inkscape-font-specification:DejaVuSans;writing-mode:lr-tb;fill:#000000;fill-opacity:1;fill-rule:nonzero;stroke:none"
           id="text1086"><tspan
             x="0 5.5 8.2799997 14.41 19.620001 24.83 27.610001"
             y="0"
             sodipodi:role="line"
             id="tspan1084">classic</tspan></text>
      </g>
      <path
         d="m 328.24687,248.10625 h 10 10"
         style="fill:none;stroke:#fde725;stroke-width:1;stroke-linecap:square;stroke-linejoin:round;stroke-miterlimit:10;stroke-dasharray:none;stroke-opacity:1"
         id="path1088" />
      <g
         id="g1090"
         transform="translate(356.24687,244.60625)">
        <text
           xml:space="preserve"
           transform="scale(1,-1)"
           style="font-variant:normal;font-weight:normal;font-size:10px;font-family:'DejaVu Sans';-inkscape-font-specification:DejaVuSans;writing-mode:lr-tb;fill:#000000;fill-opacity:1;fill-rule:nonzero;stroke:none"
           id="text1094"><tspan
             x="0 6.3499999 10.24125 16.36125 22.71125 28.831249 34.041248 40.19125"
             y="0"
             sodipodi:role="line"
             id="tspan1092">proposed</tspan></text>
      </g>
    </g>
  </g>
</svg>
