<?xml version="1.0" encoding="UTF-8" standalone="no"?>
<!-- Created with Inkscape (http://www.inkscape.org/) -->

<svg
   version="1.1"
   id="svg2"
   width="576"
   height="384"
   viewBox="0 0 576 384"
   sodipodi:docname="barabasi.svg"
   inkscape:version="1.2.1 (9c6d41e410, 2022-07-14)"
   xmlns:inkscape="http://www.inkscape.org/namespaces/inkscape"
   xmlns:sodipodi="http://sodipodi.sourceforge.net/DTD/sodipodi-0.dtd"
   xmlns="http://www.w3.org/2000/svg"
   xmlns:svg="http://www.w3.org/2000/svg">
  <defs
     id="defs6">
    <clipPath
       clipPathUnits="userSpaceOnUse"
       id="clipPath22">
      <path
         d="M 56.510469,41.8 H 411.7625 V 261.2 H 56.510469 Z"
         id="path20" />
    </clipPath>
    <clipPath
       clipPathUnits="userSpaceOnUse"
       id="clipPath32">
      <path
         d="M 56.510469,41.8 H 411.7625 V 261.2 H 56.510469 Z"
         id="path30" />
    </clipPath>
    <clipPath
       clipPathUnits="userSpaceOnUse"
       id="clipPath42">
      <path
         d="M 56.510469,41.8 H 411.7625 V 261.2 H 56.510469 Z"
         id="path40" />
    </clipPath>
    <clipPath
       clipPathUnits="userSpaceOnUse"
       id="clipPath52">
      <path
         d="M 56.510469,41.8 H 411.7625 V 261.2 H 56.510469 Z"
         id="path50" />
    </clipPath>
    <clipPath
       clipPathUnits="userSpaceOnUse"
       id="clipPath62">
      <path
         d="M 56.510469,41.8 H 411.7625 V 261.2 H 56.510469 Z"
         id="path60" />
    </clipPath>
    <clipPath
       clipPathUnits="userSpaceOnUse"
       id="clipPath72">
      <path
         d="M 56.510469,41.8 H 411.7625 V 261.2 H 56.510469 Z"
         id="path70" />
    </clipPath>
    <clipPath
       clipPathUnits="userSpaceOnUse"
       id="clipPath168">
      <path
         d="M -1021,-463 H 1794 V 1233 H -1021 Z"
         id="path166" />
    </clipPath>
    <clipPath
       clipPathUnits="userSpaceOnUse"
       id="clipPath192">
      <path
         d="M -1021,-463 H 1794 V 1233 H -1021 Z"
         id="path190" />
    </clipPath>
    <clipPath
       clipPathUnits="userSpaceOnUse"
       id="clipPath216">
      <path
         d="M -1021,-463 H 1794 V 1233 H -1021 Z"
         id="path214" />
    </clipPath>
    <clipPath
       clipPathUnits="userSpaceOnUse"
       id="clipPath240">
      <path
         d="M -1021,-463 H 1794 V 1233 H -1021 Z"
         id="path238" />
    </clipPath>
    <clipPath
       clipPathUnits="userSpaceOnUse"
       id="clipPath264">
      <path
         d="M -1021,-463 H 1794 V 1233 H -1021 Z"
         id="path262" />
    </clipPath>
    <clipPath
       clipPathUnits="userSpaceOnUse"
       id="clipPath378">
      <path
         d="M 56.510469,41.8 H 411.7625 V 261.2 H 56.510469 Z"
         id="path376" />
    </clipPath>
    <clipPath
       clipPathUnits="userSpaceOnUse"
       id="clipPath388">
      <path
         d="M 56.510469,41.8 H 411.7625 V 261.2 H 56.510469 Z"
         id="path386" />
    </clipPath>
    <clipPath
       clipPathUnits="userSpaceOnUse"
       id="clipPath398">
      <path
         d="M 56.510469,41.8 H 411.7625 V 261.2 H 56.510469 Z"
         id="path396" />
    </clipPath>
    <clipPath
       clipPathUnits="userSpaceOnUse"
       id="clipPath408">
      <path
         d="M 56.510469,41.8 H 411.7625 V 261.2 H 56.510469 Z"
         id="path406" />
    </clipPath>
    <clipPath
       clipPathUnits="userSpaceOnUse"
       id="clipPath418">
      <path
         d="M 56.510469,41.8 H 411.7625 V 261.2 H 56.510469 Z"
         id="path416" />
    </clipPath>
    <clipPath
       clipPathUnits="userSpaceOnUse"
       id="clipPath428">
      <path
         d="M 56.510469,41.8 H 411.7625 V 261.2 H 56.510469 Z"
         id="path426" />
    </clipPath>
    <clipPath
       clipPathUnits="userSpaceOnUse"
       id="clipPath438">
      <path
         d="M 56.510469,41.8 H 411.7625 V 261.2 H 56.510469 Z"
         id="path436" />
    </clipPath>
    <clipPath
       clipPathUnits="userSpaceOnUse"
       id="clipPath448">
      <path
         d="M 56.510469,41.8 H 411.7625 V 261.2 H 56.510469 Z"
         id="path446" />
    </clipPath>
    <clipPath
       clipPathUnits="userSpaceOnUse"
       id="clipPath458">
      <path
         d="M 56.510469,41.8 H 411.7625 V 261.2 H 56.510469 Z"
         id="path456" />
    </clipPath>
    <clipPath
       clipPathUnits="userSpaceOnUse"
       id="clipPath468">
      <path
         d="M 56.510469,41.8 H 411.7625 V 261.2 H 56.510469 Z"
         id="path466" />
    </clipPath>
  </defs>
  <sodipodi:namedview
     id="namedview4"
     pagecolor="#ffffff"
     bordercolor="#666666"
     borderopacity="1.0"
     inkscape:showpageshadow="2"
     inkscape:pageopacity="0.0"
     inkscape:pagecheckerboard="0"
     inkscape:deskcolor="#d1d1d1"
     showgrid="false"
     inkscape:zoom="1.9348958"
     inkscape:cx="287.87079"
     inkscape:cy="192"
     inkscape:window-width="3840"
     inkscape:window-height="2084"
     inkscape:window-x="1200"
     inkscape:window-y="0"
     inkscape:window-maximized="1"
     inkscape:current-layer="g10">
    <inkscape:page
       x="0"
       y="0"
       id="page8"
       width="576"
       height="384" />
  </sodipodi:namedview>
  <g
     id="g10"
     inkscape:groupmode="layer"
     inkscape:label="Page 1"
     transform="matrix(1.3333333,0,0,-1.3333333,0,384)">
    <path
       d="M 0,0 H 432 V 288 H 0 Z"
       style="fill:#ffffff;fill-opacity:1;fill-rule:nonzero;stroke:none"
       id="path12" />
    <path
       d="M 56.510469,41.8 H 411.7625 V 261.2 H 56.510469 Z"
       style="fill:#ffffff;fill-opacity:1;fill-rule:nonzero;stroke:none"
       id="path14" />
    <g
       id="g16">
      <g
         id="g18"
         clip-path="url(#clipPath22)">
        <path
           d="m 56.510469,-113.87817 h 59.208671 v 344.8939 H 56.510469 Z"
           style="fill:#f8fff5;fill-opacity:1;fill-rule:nonzero;stroke:none"
           id="path24" />
      </g>
    </g>
    <g
       id="g26">
      <g
         id="g28"
         clip-path="url(#clipPath32)">
        <path
           d="m 115.71914,-113.87817 h 59.20867 v 344.8939 h -59.20867 z"
           style="fill:#fff5f5;fill-opacity:1;fill-rule:nonzero;stroke:none"
           id="path34" />
      </g>
    </g>
    <g
       id="g36">
      <g
         id="g38"
         clip-path="url(#clipPath42)">
        <path
           d="m 174.92781,-113.87817 h 59.20867 v 344.8939 h -59.20867 z"
           style="fill:#f5fcff;fill-opacity:1;fill-rule:nonzero;stroke:none"
           id="path44" />
      </g>
    </g>
    <g
       id="g46">
      <g
         id="g48"
         clip-path="url(#clipPath52)">
        <path
           d="m 234.13648,-113.87817 h 59.20868 v 344.8939 h -59.20868 z"
           style="fill:#f8fff5;fill-opacity:1;fill-rule:nonzero;stroke:none"
           id="path54" />
      </g>
    </g>
    <g
       id="g56">
      <g
         id="g58"
         clip-path="url(#clipPath62)">
        <path
           d="m 293.34516,-113.87817 h 59.20867 v 344.8939 h -59.20867 z"
           style="fill:#fff5f5;fill-opacity:1;fill-rule:nonzero;stroke:none"
           id="path64" />
      </g>
    </g>
    <g
       id="g66">
      <g
         id="g68"
         clip-path="url(#clipPath72)">
        <path
           d="m 352.55383,-113.87817 h 59.20867 v 344.8939 h -59.20867 z"
           style="fill:#f5fcff;fill-opacity:1;fill-rule:nonzero;stroke:none"
           id="path74" />
      </g>
    </g>
    <g
       id="g76">
      <path
         d="M 56.510469,41.8 V 38.3"
         style="fill:#000000;fill-opacity:1;fill-rule:nonzero;stroke:#000000;stroke-width:0.8;stroke-linecap:butt;stroke-linejoin:round;stroke-miterlimit:10;stroke-dasharray:none;stroke-opacity:1"
         id="path78" />
      <g
         id="g80"
         transform="translate(53.330781,27.20625)">
        <text
           xml:space="preserve"
           transform="scale(1,-1)"
           style="font-variant:normal;font-weight:normal;font-size:10px;font-family:'DejaVu Sans';-inkscape-font-specification:DejaVuSans;writing-mode:lr-tb;fill:#000000;fill-opacity:1;fill-rule:nonzero;stroke:none"
           id="text84"><tspan
             x="0"
             y="0"
             id="tspan82">0</tspan></text>
      </g>
      <path
         d="M 115.71914,41.8 V 38.3"
         style="fill:#000000;fill-opacity:1;fill-rule:nonzero;stroke:#000000;stroke-width:0.8;stroke-linecap:butt;stroke-linejoin:round;stroke-miterlimit:10;stroke-dasharray:none;stroke-opacity:1"
         id="path86" />
      <g
         id="g88"
         transform="translate(106.18008,27.20625)">
        <text
           xml:space="preserve"
           transform="scale(1,-1)"
           style="font-variant:normal;font-weight:normal;font-size:10px;font-family:'DejaVu Sans';-inkscape-font-specification:DejaVuSans;writing-mode:lr-tb;fill:#000000;fill-opacity:1;fill-rule:nonzero;stroke:none"
           id="text92"><tspan
             x="0 6.3600001 12.72"
             y="0"
             sodipodi:role="line"
             id="tspan90">100</tspan></text>
      </g>
      <path
         d="M 174.92781,41.8 V 38.3"
         style="fill:#000000;fill-opacity:1;fill-rule:nonzero;stroke:#000000;stroke-width:0.8;stroke-linecap:butt;stroke-linejoin:round;stroke-miterlimit:10;stroke-dasharray:none;stroke-opacity:1"
         id="path94" />
      <g
         id="g96"
         transform="translate(165.38875,27.20625)">
        <text
           xml:space="preserve"
           transform="scale(1,-1)"
           style="font-variant:normal;font-weight:normal;font-size:10px;font-family:'DejaVu Sans';-inkscape-font-specification:DejaVuSans;writing-mode:lr-tb;fill:#000000;fill-opacity:1;fill-rule:nonzero;stroke:none"
           id="text100"><tspan
             x="0 6.3600001 12.72"
             y="0"
             sodipodi:role="line"
             id="tspan98">200</tspan></text>
      </g>
      <path
         d="M 234.13648,41.8 V 38.3"
         style="fill:#000000;fill-opacity:1;fill-rule:nonzero;stroke:#000000;stroke-width:0.8;stroke-linecap:butt;stroke-linejoin:round;stroke-miterlimit:10;stroke-dasharray:none;stroke-opacity:1"
         id="path102" />
      <g
         id="g104"
         transform="translate(224.59742,27.20625)">
        <text
           xml:space="preserve"
           transform="scale(1,-1)"
           style="font-variant:normal;font-weight:normal;font-size:10px;font-family:'DejaVu Sans';-inkscape-font-specification:DejaVuSans;writing-mode:lr-tb;fill:#000000;fill-opacity:1;fill-rule:nonzero;stroke:none"
           id="text108"><tspan
             x="0 6.3600001 12.72"
             y="0"
             sodipodi:role="line"
             id="tspan106">300</tspan></text>
      </g>
      <path
         d="M 293.34516,41.8 V 38.3"
         style="fill:#000000;fill-opacity:1;fill-rule:nonzero;stroke:#000000;stroke-width:0.8;stroke-linecap:butt;stroke-linejoin:round;stroke-miterlimit:10;stroke-dasharray:none;stroke-opacity:1"
         id="path110" />
      <g
         id="g112"
         transform="translate(283.80609,27.20625)">
        <text
           xml:space="preserve"
           transform="scale(1,-1)"
           style="font-variant:normal;font-weight:normal;font-size:10px;font-family:'DejaVu Sans';-inkscape-font-specification:DejaVuSans;writing-mode:lr-tb;fill:#000000;fill-opacity:1;fill-rule:nonzero;stroke:none"
           id="text116"><tspan
             x="0 6.3600001 12.72"
             y="0"
             sodipodi:role="line"
             id="tspan114">400</tspan></text>
      </g>
      <path
         d="M 352.55383,41.8 V 38.3"
         style="fill:#000000;fill-opacity:1;fill-rule:nonzero;stroke:#000000;stroke-width:0.8;stroke-linecap:butt;stroke-linejoin:round;stroke-miterlimit:10;stroke-dasharray:none;stroke-opacity:1"
         id="path118" />
      <g
         id="g120"
         transform="translate(343.01477,27.20625)">
        <text
           xml:space="preserve"
           transform="scale(1,-1)"
           style="font-variant:normal;font-weight:normal;font-size:10px;font-family:'DejaVu Sans';-inkscape-font-specification:DejaVuSans;writing-mode:lr-tb;fill:#000000;fill-opacity:1;fill-rule:nonzero;stroke:none"
           id="text124"><tspan
             x="0 6.3600001 12.72"
             y="0"
             sodipodi:role="line"
             id="tspan122">500</tspan></text>
      </g>
      <path
         d="M 411.7625,41.8 V 38.3"
         style="fill:#000000;fill-opacity:1;fill-rule:nonzero;stroke:#000000;stroke-width:0.8;stroke-linecap:butt;stroke-linejoin:round;stroke-miterlimit:10;stroke-dasharray:none;stroke-opacity:1"
         id="path126" />
      <g
         id="g128"
         transform="translate(402.22344,27.20625)">
        <text
           xml:space="preserve"
           transform="scale(1,-1)"
           style="font-variant:normal;font-weight:normal;font-size:10px;font-family:'DejaVu Sans';-inkscape-font-specification:DejaVuSans;writing-mode:lr-tb;fill:#000000;fill-opacity:1;fill-rule:nonzero;stroke:none"
           id="text132"><tspan
             x="0 6.3600001 12.72"
             y="0"
             sodipodi:role="line"
             id="tspan130">600</tspan></text>
      </g>
      <g
         id="g134"
         transform="translate(213.12867,13.534375)">
        <text
           xml:space="preserve"
           transform="scale(1,-1)"
           style="font-variant:normal;font-weight:normal;font-size:10px;font-family:'DejaVu Sans';-inkscape-font-specification:DejaVuSans;writing-mode:lr-tb;fill:#000000;fill-opacity:1;fill-rule:nonzero;stroke:none"
           id="text138"><tspan
             x="0 3.9200001 6.6999998 16.440001 22.59 25.77 29.67 34.880001 38.779999"
             y="0"
             sodipodi:role="line"
             id="tspan136">time (s) </tspan></text>
      </g>
      <path
         d="m 56.510469,58.568947 h -3.5"
         style="fill:#000000;fill-opacity:1;fill-rule:nonzero;stroke:#000000;stroke-width:0.8;stroke-linecap:butt;stroke-linejoin:round;stroke-miterlimit:10;stroke-dasharray:none;stroke-opacity:1"
         id="path140" />
      <g
         id="g142"
         transform="translate(42.510469,54.772072)">
        <text
           xml:space="preserve"
           transform="matrix(1,0,0,-1,0,0.578125)"
           style="font-variant:normal;font-weight:normal;font-size:10px;font-family:'DejaVu Sans';-inkscape-font-specification:DejaVuSans;writing-mode:lr-tb;fill:#000000;fill-opacity:1;fill-rule:nonzero;stroke:none"
           id="text146"><tspan
             x="0"
             y="0"
             id="tspan144">0</tspan></text>
      </g>
      <path
         d="m 56.510469,92.10684 h -3.5"
         style="fill:#000000;fill-opacity:1;fill-rule:nonzero;stroke:#000000;stroke-width:0.8;stroke-linecap:butt;stroke-linejoin:round;stroke-miterlimit:10;stroke-dasharray:none;stroke-opacity:1"
         id="path148" />
      <g
         id="g150"
         transform="translate(25.510469,88.145902)">
        <text
           xml:space="preserve"
           transform="matrix(1,0,0,-1,0,0.0640625)"
           style="font-variant:normal;font-weight:normal;font-size:10px;font-family:'DejaVu Sans';-inkscape-font-specification:DejaVuSans;writing-mode:lr-tb;fill:#000000;fill-opacity:1;fill-rule:nonzero;stroke:none"
           id="text154"><tspan
             x="0 6.3623047"
             y="0"
             sodipodi:role="line"
             id="tspan152">10</tspan></text>
        <text
           xml:space="preserve"
           transform="matrix(1,0,0,-1,18.685547,3.8921875)"
           style="font-variant:normal;font-weight:normal;font-size:7px;font-family:'DejaVu Sans';-inkscape-font-specification:DejaVuSans;writing-mode:lr-tb;fill:#000000;fill-opacity:1;fill-rule:nonzero;stroke:none"
           id="text158"><tspan
             x="0"
             y="0"
             id="tspan156">5</tspan></text>
        <g
           id="g160"
           transform="matrix(0.007,0,0,0.007,12.820313,3.8921875)">
          <g
             id="g162">
            <g
               id="g164"
               clip-path="url(#clipPath168)">
              <path
                 d="M 106,355 H 732 V 272 H 106 Z"
                 style="fill:#000000;fill-opacity:1;fill-rule:nonzero;stroke:none"
                 id="path170" />
            </g>
          </g>
        </g>
      </g>
      <path
         d="m 56.510469,122.29094 h -3.5"
         style="fill:#000000;fill-opacity:1;fill-rule:nonzero;stroke:#000000;stroke-width:0.8;stroke-linecap:butt;stroke-linejoin:round;stroke-miterlimit:10;stroke-dasharray:none;stroke-opacity:1"
         id="path172" />
      <g
         id="g174"
         transform="translate(25.510469,118.33001)">
        <text
           xml:space="preserve"
           transform="matrix(1,0,0,-1,0,0.0640625)"
           style="font-variant:normal;font-weight:normal;font-size:10px;font-family:'DejaVu Sans';-inkscape-font-specification:DejaVuSans;writing-mode:lr-tb;fill:#000000;fill-opacity:1;fill-rule:nonzero;stroke:none"
           id="text178"><tspan
             x="0 6.3623047"
             y="0"
             sodipodi:role="line"
             id="tspan176">10</tspan></text>
        <text
           xml:space="preserve"
           transform="matrix(1,0,0,-1,18.685547,3.8921875)"
           style="font-variant:normal;font-weight:normal;font-size:7px;font-family:'DejaVu Sans';-inkscape-font-specification:DejaVuSans;writing-mode:lr-tb;fill:#000000;fill-opacity:1;fill-rule:nonzero;stroke:none"
           id="text182"><tspan
             x="0"
             y="0"
             id="tspan180">4</tspan></text>
        <g
           id="g184"
           transform="matrix(0.007,0,0,0.007,12.820313,3.8921875)">
          <g
             id="g186">
            <g
               id="g188"
               clip-path="url(#clipPath192)">
              <path
                 d="M 106,355 H 732 V 272 H 106 Z"
                 style="fill:#000000;fill-opacity:1;fill-rule:nonzero;stroke:none"
                 id="path194" />
            </g>
          </g>
        </g>
      </g>
      <path
         d="m 56.510469,152.47505 h -3.5"
         style="fill:#000000;fill-opacity:1;fill-rule:nonzero;stroke:#000000;stroke-width:0.8;stroke-linecap:butt;stroke-linejoin:round;stroke-miterlimit:10;stroke-dasharray:none;stroke-opacity:1"
         id="path196" />
      <g
         id="g198"
         transform="translate(25.510469,148.01411)">
        <text
           xml:space="preserve"
           transform="matrix(1,0,0,-1,0,0.9765625)"
           style="font-variant:normal;font-weight:normal;font-size:10px;font-family:'DejaVu Sans';-inkscape-font-specification:DejaVuSans;writing-mode:lr-tb;fill:#000000;fill-opacity:1;fill-rule:nonzero;stroke:none"
           id="text202"><tspan
             x="0 6.3623047"
             y="0"
             sodipodi:role="line"
             id="tspan200">10</tspan></text>
        <text
           xml:space="preserve"
           transform="matrix(1,0,0,-1,18.685547,4.8046875)"
           style="font-variant:normal;font-weight:normal;font-size:7px;font-family:'DejaVu Sans';-inkscape-font-specification:DejaVuSans;writing-mode:lr-tb;fill:#000000;fill-opacity:1;fill-rule:nonzero;stroke:none"
           id="text206"><tspan
             x="0"
             y="0"
             id="tspan204">3</tspan></text>
        <g
           id="g208"
           transform="matrix(0.007,0,0,0.007,12.820313,4.8046875)">
          <g
             id="g210">
            <g
               id="g212"
               clip-path="url(#clipPath216)">
              <path
                 d="M 106,355 H 732 V 272 H 106 Z"
                 style="fill:#000000;fill-opacity:1;fill-rule:nonzero;stroke:none"
                 id="path218" />
            </g>
          </g>
        </g>
      </g>
      <path
         d="m 56.510469,182.65915 h -3.5"
         style="fill:#000000;fill-opacity:1;fill-rule:nonzero;stroke:#000000;stroke-width:0.8;stroke-linecap:butt;stroke-linejoin:round;stroke-miterlimit:10;stroke-dasharray:none;stroke-opacity:1"
         id="path220" />
      <g
         id="g222"
         transform="translate(25.510469,178.19821)">
        <text
           xml:space="preserve"
           transform="matrix(1,0,0,-1,0,0.9765625)"
           style="font-variant:normal;font-weight:normal;font-size:10px;font-family:'DejaVu Sans';-inkscape-font-specification:DejaVuSans;writing-mode:lr-tb;fill:#000000;fill-opacity:1;fill-rule:nonzero;stroke:none"
           id="text226"><tspan
             x="0 6.3623047"
             y="0"
             sodipodi:role="line"
             id="tspan224">10</tspan></text>
        <text
           xml:space="preserve"
           transform="matrix(1,0,0,-1,18.685547,4.8046875)"
           style="font-variant:normal;font-weight:normal;font-size:7px;font-family:'DejaVu Sans';-inkscape-font-specification:DejaVuSans;writing-mode:lr-tb;fill:#000000;fill-opacity:1;fill-rule:nonzero;stroke:none"
           id="text230"><tspan
             x="0"
             y="0"
             id="tspan228">2</tspan></text>
        <g
           id="g232"
           transform="matrix(0.007,0,0,0.007,12.820313,4.8046875)">
          <g
             id="g234">
            <g
               id="g236"
               clip-path="url(#clipPath240)">
              <path
                 d="M 106,355 H 732 V 272 H 106 Z"
                 style="fill:#000000;fill-opacity:1;fill-rule:nonzero;stroke:none"
                 id="path242" />
            </g>
          </g>
        </g>
      </g>
      <path
         d="m 56.510469,212.84325 h -3.5"
         style="fill:#000000;fill-opacity:1;fill-rule:nonzero;stroke:#000000;stroke-width:0.8;stroke-linecap:butt;stroke-linejoin:round;stroke-miterlimit:10;stroke-dasharray:none;stroke-opacity:1"
         id="path244" />
      <g
         id="g246"
         transform="translate(25.510469,208.88232)">
        <text
           xml:space="preserve"
           transform="matrix(1,0,0,-1,0,0.0640625)"
           style="font-variant:normal;font-weight:normal;font-size:10px;font-family:'DejaVu Sans';-inkscape-font-specification:DejaVuSans;writing-mode:lr-tb;fill:#000000;fill-opacity:1;fill-rule:nonzero;stroke:none"
           id="text250"><tspan
             x="0 6.3623047"
             y="0"
             sodipodi:role="line"
             id="tspan248">10</tspan></text>
        <text
           xml:space="preserve"
           transform="matrix(1,0,0,-1,18.685547,3.8921875)"
           style="font-variant:normal;font-weight:normal;font-size:7px;font-family:'DejaVu Sans';-inkscape-font-specification:DejaVuSans;writing-mode:lr-tb;fill:#000000;fill-opacity:1;fill-rule:nonzero;stroke:none"
           id="text254"><tspan
             x="0"
             y="0"
             id="tspan252">1</tspan></text>
        <g
           id="g256"
           transform="matrix(0.007,0,0,0.007,12.820313,3.8921875)">
          <g
             id="g258">
            <g
               id="g260"
               clip-path="url(#clipPath264)">
              <path
                 d="M 106,355 H 732 V 272 H 106 Z"
                 style="fill:#000000;fill-opacity:1;fill-rule:nonzero;stroke:none"
                 id="path266" />
            </g>
          </g>
        </g>
      </g>
      <path
         d="m 56.510469,243.02736 h -3.5"
         style="fill:#000000;fill-opacity:1;fill-rule:nonzero;stroke:#000000;stroke-width:0.8;stroke-linecap:butt;stroke-linejoin:round;stroke-miterlimit:10;stroke-dasharray:none;stroke-opacity:1"
         id="path268" />
      <g
         id="g270"
         transform="translate(31.510469,238.56642)">
        <text
           xml:space="preserve"
           transform="matrix(1,0,0,-1,0,0.9765625)"
           style="font-variant:normal;font-weight:normal;font-size:10px;font-family:'DejaVu Sans';-inkscape-font-specification:DejaVuSans;writing-mode:lr-tb;fill:#000000;fill-opacity:1;fill-rule:nonzero;stroke:none"
           id="text274"><tspan
             x="0 6.3623047"
             y="0"
             sodipodi:role="line"
             id="tspan272">10</tspan></text>
        <text
           xml:space="preserve"
           transform="matrix(1,0,0,-1,12.820313,4.8046875)"
           style="font-variant:normal;font-weight:normal;font-size:7px;font-family:'DejaVu Sans';-inkscape-font-specification:DejaVuSans;writing-mode:lr-tb;fill:#000000;fill-opacity:1;fill-rule:nonzero;stroke:none"
           id="text278"><tspan
             x="0"
             y="0"
             id="tspan276">0</tspan></text>
      </g>
      <path
         d="m 56.510469,101.19316 h -2"
         style="fill:#000000;fill-opacity:1;fill-rule:nonzero;stroke:#000000;stroke-width:0.6;stroke-linecap:butt;stroke-linejoin:round;stroke-miterlimit:10;stroke-dasharray:none;stroke-opacity:1"
         id="path280" />
      <path
         d="m 56.510469,106.50832 h -2"
         style="fill:#000000;fill-opacity:1;fill-rule:nonzero;stroke:#000000;stroke-width:0.6;stroke-linecap:butt;stroke-linejoin:round;stroke-miterlimit:10;stroke-dasharray:none;stroke-opacity:1"
         id="path282" />
      <path
         d="m 56.510469,110.27948 h -2"
         style="fill:#000000;fill-opacity:1;fill-rule:nonzero;stroke:#000000;stroke-width:0.6;stroke-linecap:butt;stroke-linejoin:round;stroke-miterlimit:10;stroke-dasharray:none;stroke-opacity:1"
         id="path284" />
      <path
         d="m 56.510469,113.20462 h -2"
         style="fill:#000000;fill-opacity:1;fill-rule:nonzero;stroke:#000000;stroke-width:0.6;stroke-linecap:butt;stroke-linejoin:round;stroke-miterlimit:10;stroke-dasharray:none;stroke-opacity:1"
         id="path286" />
      <path
         d="m 56.510469,115.59464 h -2"
         style="fill:#000000;fill-opacity:1;fill-rule:nonzero;stroke:#000000;stroke-width:0.6;stroke-linecap:butt;stroke-linejoin:round;stroke-miterlimit:10;stroke-dasharray:none;stroke-opacity:1"
         id="path288" />
      <path
         d="m 56.510469,117.61537 h -2"
         style="fill:#000000;fill-opacity:1;fill-rule:nonzero;stroke:#000000;stroke-width:0.6;stroke-linecap:butt;stroke-linejoin:round;stroke-miterlimit:10;stroke-dasharray:none;stroke-opacity:1"
         id="path290" />
      <path
         d="m 56.510469,119.3658 h -2"
         style="fill:#000000;fill-opacity:1;fill-rule:nonzero;stroke:#000000;stroke-width:0.6;stroke-linecap:butt;stroke-linejoin:round;stroke-miterlimit:10;stroke-dasharray:none;stroke-opacity:1"
         id="path292" />
      <path
         d="m 56.510469,120.9098 h -2"
         style="fill:#000000;fill-opacity:1;fill-rule:nonzero;stroke:#000000;stroke-width:0.6;stroke-linecap:butt;stroke-linejoin:round;stroke-miterlimit:10;stroke-dasharray:none;stroke-opacity:1"
         id="path294" />
      <path
         d="m 56.510469,131.37726 h -2"
         style="fill:#000000;fill-opacity:1;fill-rule:nonzero;stroke:#000000;stroke-width:0.6;stroke-linecap:butt;stroke-linejoin:round;stroke-miterlimit:10;stroke-dasharray:none;stroke-opacity:1"
         id="path296" />
      <path
         d="m 56.510469,136.69242 h -2"
         style="fill:#000000;fill-opacity:1;fill-rule:nonzero;stroke:#000000;stroke-width:0.6;stroke-linecap:butt;stroke-linejoin:round;stroke-miterlimit:10;stroke-dasharray:none;stroke-opacity:1"
         id="path298" />
      <path
         d="m 56.510469,140.46358 h -2"
         style="fill:#000000;fill-opacity:1;fill-rule:nonzero;stroke:#000000;stroke-width:0.6;stroke-linecap:butt;stroke-linejoin:round;stroke-miterlimit:10;stroke-dasharray:none;stroke-opacity:1"
         id="path300" />
      <path
         d="m 56.510469,143.38873 h -2"
         style="fill:#000000;fill-opacity:1;fill-rule:nonzero;stroke:#000000;stroke-width:0.6;stroke-linecap:butt;stroke-linejoin:round;stroke-miterlimit:10;stroke-dasharray:none;stroke-opacity:1"
         id="path302" />
      <path
         d="m 56.510469,145.77874 h -2"
         style="fill:#000000;fill-opacity:1;fill-rule:nonzero;stroke:#000000;stroke-width:0.6;stroke-linecap:butt;stroke-linejoin:round;stroke-miterlimit:10;stroke-dasharray:none;stroke-opacity:1"
         id="path304" />
      <path
         d="m 56.510469,147.79947 h -2"
         style="fill:#000000;fill-opacity:1;fill-rule:nonzero;stroke:#000000;stroke-width:0.6;stroke-linecap:butt;stroke-linejoin:round;stroke-miterlimit:10;stroke-dasharray:none;stroke-opacity:1"
         id="path306" />
      <path
         d="m 56.510469,149.5499 h -2"
         style="fill:#000000;fill-opacity:1;fill-rule:nonzero;stroke:#000000;stroke-width:0.6;stroke-linecap:butt;stroke-linejoin:round;stroke-miterlimit:10;stroke-dasharray:none;stroke-opacity:1"
         id="path308" />
      <path
         d="m 56.510469,151.0939 h -2"
         style="fill:#000000;fill-opacity:1;fill-rule:nonzero;stroke:#000000;stroke-width:0.6;stroke-linecap:butt;stroke-linejoin:round;stroke-miterlimit:10;stroke-dasharray:none;stroke-opacity:1"
         id="path310" />
      <path
         d="m 56.510469,161.56137 h -2"
         style="fill:#000000;fill-opacity:1;fill-rule:nonzero;stroke:#000000;stroke-width:0.6;stroke-linecap:butt;stroke-linejoin:round;stroke-miterlimit:10;stroke-dasharray:none;stroke-opacity:1"
         id="path312" />
      <path
         d="m 56.510469,166.87652 h -2"
         style="fill:#000000;fill-opacity:1;fill-rule:nonzero;stroke:#000000;stroke-width:0.6;stroke-linecap:butt;stroke-linejoin:round;stroke-miterlimit:10;stroke-dasharray:none;stroke-opacity:1"
         id="path314" />
      <path
         d="m 56.510469,170.64769 h -2"
         style="fill:#000000;fill-opacity:1;fill-rule:nonzero;stroke:#000000;stroke-width:0.6;stroke-linecap:butt;stroke-linejoin:round;stroke-miterlimit:10;stroke-dasharray:none;stroke-opacity:1"
         id="path316" />
      <path
         d="m 56.510469,173.57283 h -2"
         style="fill:#000000;fill-opacity:1;fill-rule:nonzero;stroke:#000000;stroke-width:0.6;stroke-linecap:butt;stroke-linejoin:round;stroke-miterlimit:10;stroke-dasharray:none;stroke-opacity:1"
         id="path318" />
      <path
         d="m 56.510469,175.96285 h -2"
         style="fill:#000000;fill-opacity:1;fill-rule:nonzero;stroke:#000000;stroke-width:0.6;stroke-linecap:butt;stroke-linejoin:round;stroke-miterlimit:10;stroke-dasharray:none;stroke-opacity:1"
         id="path320" />
      <path
         d="m 56.510469,177.98357 h -2"
         style="fill:#000000;fill-opacity:1;fill-rule:nonzero;stroke:#000000;stroke-width:0.6;stroke-linecap:butt;stroke-linejoin:round;stroke-miterlimit:10;stroke-dasharray:none;stroke-opacity:1"
         id="path322" />
      <path
         d="m 56.510469,179.73401 h -2"
         style="fill:#000000;fill-opacity:1;fill-rule:nonzero;stroke:#000000;stroke-width:0.6;stroke-linecap:butt;stroke-linejoin:round;stroke-miterlimit:10;stroke-dasharray:none;stroke-opacity:1"
         id="path324" />
      <path
         d="m 56.510469,181.278 h -2"
         style="fill:#000000;fill-opacity:1;fill-rule:nonzero;stroke:#000000;stroke-width:0.6;stroke-linecap:butt;stroke-linejoin:round;stroke-miterlimit:10;stroke-dasharray:none;stroke-opacity:1"
         id="path326" />
      <path
         d="m 56.510469,191.74547 h -2"
         style="fill:#000000;fill-opacity:1;fill-rule:nonzero;stroke:#000000;stroke-width:0.6;stroke-linecap:butt;stroke-linejoin:round;stroke-miterlimit:10;stroke-dasharray:none;stroke-opacity:1"
         id="path328" />
      <path
         d="m 56.510469,197.06063 h -2"
         style="fill:#000000;fill-opacity:1;fill-rule:nonzero;stroke:#000000;stroke-width:0.6;stroke-linecap:butt;stroke-linejoin:round;stroke-miterlimit:10;stroke-dasharray:none;stroke-opacity:1"
         id="path330" />
      <path
         d="m 56.510469,200.83179 h -2"
         style="fill:#000000;fill-opacity:1;fill-rule:nonzero;stroke:#000000;stroke-width:0.6;stroke-linecap:butt;stroke-linejoin:round;stroke-miterlimit:10;stroke-dasharray:none;stroke-opacity:1"
         id="path332" />
      <path
         d="m 56.510469,203.75693 h -2"
         style="fill:#000000;fill-opacity:1;fill-rule:nonzero;stroke:#000000;stroke-width:0.6;stroke-linecap:butt;stroke-linejoin:round;stroke-miterlimit:10;stroke-dasharray:none;stroke-opacity:1"
         id="path334" />
      <path
         d="m 56.510469,206.14695 h -2"
         style="fill:#000000;fill-opacity:1;fill-rule:nonzero;stroke:#000000;stroke-width:0.6;stroke-linecap:butt;stroke-linejoin:round;stroke-miterlimit:10;stroke-dasharray:none;stroke-opacity:1"
         id="path336" />
      <path
         d="m 56.510469,208.16768 h -2"
         style="fill:#000000;fill-opacity:1;fill-rule:nonzero;stroke:#000000;stroke-width:0.6;stroke-linecap:butt;stroke-linejoin:round;stroke-miterlimit:10;stroke-dasharray:none;stroke-opacity:1"
         id="path338" />
      <path
         d="m 56.510469,209.91811 h -2"
         style="fill:#000000;fill-opacity:1;fill-rule:nonzero;stroke:#000000;stroke-width:0.6;stroke-linecap:butt;stroke-linejoin:round;stroke-miterlimit:10;stroke-dasharray:none;stroke-opacity:1"
         id="path340" />
      <path
         d="m 56.510469,211.46211 h -2"
         style="fill:#000000;fill-opacity:1;fill-rule:nonzero;stroke:#000000;stroke-width:0.6;stroke-linecap:butt;stroke-linejoin:round;stroke-miterlimit:10;stroke-dasharray:none;stroke-opacity:1"
         id="path342" />
      <path
         d="m 56.510469,221.92958 h -2"
         style="fill:#000000;fill-opacity:1;fill-rule:nonzero;stroke:#000000;stroke-width:0.6;stroke-linecap:butt;stroke-linejoin:round;stroke-miterlimit:10;stroke-dasharray:none;stroke-opacity:1"
         id="path344" />
      <path
         d="m 56.510469,227.24473 h -2"
         style="fill:#000000;fill-opacity:1;fill-rule:nonzero;stroke:#000000;stroke-width:0.6;stroke-linecap:butt;stroke-linejoin:round;stroke-miterlimit:10;stroke-dasharray:none;stroke-opacity:1"
         id="path346" />
      <path
         d="m 56.510469,231.0159 h -2"
         style="fill:#000000;fill-opacity:1;fill-rule:nonzero;stroke:#000000;stroke-width:0.6;stroke-linecap:butt;stroke-linejoin:round;stroke-miterlimit:10;stroke-dasharray:none;stroke-opacity:1"
         id="path348" />
      <path
         d="m 56.510469,233.94104 h -2"
         style="fill:#000000;fill-opacity:1;fill-rule:nonzero;stroke:#000000;stroke-width:0.6;stroke-linecap:butt;stroke-linejoin:round;stroke-miterlimit:10;stroke-dasharray:none;stroke-opacity:1"
         id="path350" />
      <path
         d="m 56.510469,236.33105 h -2"
         style="fill:#000000;fill-opacity:1;fill-rule:nonzero;stroke:#000000;stroke-width:0.6;stroke-linecap:butt;stroke-linejoin:round;stroke-miterlimit:10;stroke-dasharray:none;stroke-opacity:1"
         id="path352" />
      <path
         d="m 56.510469,238.35178 h -2"
         style="fill:#000000;fill-opacity:1;fill-rule:nonzero;stroke:#000000;stroke-width:0.6;stroke-linecap:butt;stroke-linejoin:round;stroke-miterlimit:10;stroke-dasharray:none;stroke-opacity:1"
         id="path354" />
      <path
         d="m 56.510469,240.10222 h -2"
         style="fill:#000000;fill-opacity:1;fill-rule:nonzero;stroke:#000000;stroke-width:0.6;stroke-linecap:butt;stroke-linejoin:round;stroke-miterlimit:10;stroke-dasharray:none;stroke-opacity:1"
         id="path356" />
      <path
         d="m 56.510469,241.64621 h -2"
         style="fill:#000000;fill-opacity:1;fill-rule:nonzero;stroke:#000000;stroke-width:0.6;stroke-linecap:butt;stroke-linejoin:round;stroke-miterlimit:10;stroke-dasharray:none;stroke-opacity:1"
         id="path358" />
      <path
         d="m 56.510469,252.11368 h -2"
         style="fill:#000000;fill-opacity:1;fill-rule:nonzero;stroke:#000000;stroke-width:0.6;stroke-linecap:butt;stroke-linejoin:round;stroke-miterlimit:10;stroke-dasharray:none;stroke-opacity:1"
         id="path360" />
      <path
         d="m 56.510469,257.42884 h -2"
         style="fill:#000000;fill-opacity:1;fill-rule:nonzero;stroke:#000000;stroke-width:0.6;stroke-linecap:butt;stroke-linejoin:round;stroke-miterlimit:10;stroke-dasharray:none;stroke-opacity:1"
         id="path362" />
      <path
         d="m 56.510469,261.2 h -2"
         style="fill:#000000;fill-opacity:1;fill-rule:nonzero;stroke:#000000;stroke-width:0.6;stroke-linecap:butt;stroke-linejoin:round;stroke-miterlimit:10;stroke-dasharray:none;stroke-opacity:1"
         id="path364" />
      <g
         id="g366"
         transform="rotate(90,-25.514297,44.946641)">
        <text
           xml:space="preserve"
           transform="scale(1,-1)"
           style="font-variant:normal;font-weight:normal;font-size:10px;font-family:'DejaVu Sans';-inkscape-font-specification:DejaVuSans;writing-mode:lr-tb;fill:#000000;fill-opacity:1;fill-rule:nonzero;stroke:none"
           id="text370"><tspan
             x="0 2.78 9.1199999 14.33 18.25 24.379999 30.73 33.509998 36.290001 39.07 42.990002 48.91 52.09 54.869999 61.209999 64.389999 68.309998 74.650002 80.800003 83.980003 86.760002 92.889999 98.099998 102.02 105.2 111.56 117.92 121.1 126.31 132.46001 137.96001 144.08 150.42 156.77"
             y="0"
             sodipodi:role="line"
             id="tspan368">instability in the last 10 seconds</tspan></text>
      </g>
    </g>
    <g
       id="g372">
      <g
         id="g374"
         clip-path="url(#clipPath378)">
        <path
           d="m 57.698603,95.546118 1.188134,119.748242 1.188133,7.54374 1.188134,1.04615 2.376268,0.0588 1.188134,-8.70952 1.188134,-4.03278 1.188134,2.2915 1.188134,0.50507 1.188133,0.0364 1.188134,-0.90929 1.188134,-12.10252 1.188134,-19.83751 1.188134,-5.59389 2.376268,0.11859 1.188134,-0.99221 1.188134,-10.52204 1.188133,-24.21534 1.188134,-40.167549 1.188134,-34.535486 1.188134,-1.676894 h 1.188134 l 1.188134,-3.35379 1.188134,-1.676894 h 27.32708 l 1.18813,63.322713 1.18814,94.71525 1.18813,10.144 1.18814,3.85377 1.18813,0.9374 1.18813,0.12223 1.18814,-4.97071 1.18813,-7.98673 1.18813,-0.43265 1.18814,4.10568 1.18813,2.68752 1.18814,1.09726 1.18813,-0.8119 1.18813,-5.59584 1.18814,-6.90654 1.18813,-3.63749 1.18814,-0.0172 1.18813,1.03588 1.18813,0.71072 1.18814,-1.83799 1.18813,-5.27938 1.18813,-6.47069 1.18814,-5.40745 1.18813,-3.36623 1.18814,-0.65878 1.18813,-0.50172 1.18813,-3.02432 1.18814,-3.9972 1.18813,-5.5406 2.37627,-12.2786 1.18813,-3.63141 1.18814,-4.54989 1.18813,-2.06798 1.18813,-4.69073 2.37627,-14.40148 1.18814,-2.25986 1.18813,-17.25922 1.18813,-3.27643 h 1.18814 l 1.18813,-3.50418 1.18814,-43.338519 1.18813,-5.030684 h 7.1288 l 1.18814,153.519623 1.18813,11.16112 1.18813,6.22601 1.18814,1.84213 1.18813,0.30838 1.18814,-3.32127 1.18813,-6.01811 1.18813,-4.21769 2.37627,5.41287 1.18814,1.24819 1.18813,0.0512 1.18813,-4.75622 1.18814,-7.7084 1.18813,-4.8227 1.18813,-1.10471 1.18814,0.48321 1.18813,0.70247 1.18814,-1.65622 1.18813,-5.4752 1.18813,-6.73563 1.18814,-5.5929 1.18813,-3.89276 1.18814,-2.50677 1.18813,-1.2976 1.18813,-2.85979 1.18814,-4.26626 1.18813,-5.52441 1.18814,-6.7072 1.18813,-5.67063 1.18813,-3.3207 1.18814,-1.63983 1.18813,-2.07062 1.18813,-0.70976 1.18814,-3.23907 1.18813,-5.92324 1.18814,-15.49368 1.18813,-12.07374 1.18813,-42.288746 1.18814,-10.061367 h 11.88134 l 1.18813,153.567653 1.18813,6.78132 1.18814,8.49253 1.18813,1.50135 1.18814,0.0953 2.37626,-8.08128 1.18814,-9.19953 1.18813,1.56535 1.18814,0.79812 1.18813,0.0625 1.18813,-0.11324 1.18814,-8.28434 1.18813,-20.3505 1.18814,-9.6584 1.18813,-0.24778 1.18813,0.006 1.18814,-0.28246 1.18813,-8.09588 1.18813,-23.64523 2.37627,-79.880539 h 2.37627 l 1.18813,-3.35379 1.18814,-1.676894 h 28.51521 l 1.18814,153.765853 1.18813,10.36884 1.18813,6.52121 1.18814,2.04302 1.18813,0.36897 1.18813,-3.36369 2.37627,-11.0326 1.18814,3.10609 1.18813,3.63176 1.18813,1.77225 1.18814,0.48709 1.18813,-3.19178 1.18814,-6.92847 1.18813,-5.60513 1.18813,-1.51582 1.18814,0.58843 1.18813,0.97842 1.18813,-0.1698 1.18814,-3.87083 2.37627,-12.23171 1.18813,-4.25152 1.18813,-2.05998 1.18814,0.0588 1.18813,-1.95862 1.18814,-3.64671 1.18813,-4.66091 2.37627,-12.24767 1.18813,-5.23185 2.37627,-6.87564 1.18813,-3.13419 1.18814,-5.95823 1.18813,-7.43697 1.18813,-4.74649 1.18814,-9.21058 1.18813,-12.16845 2.37627,-0.64748 1.18813,-15.082608 1.18814,-36.463035 h 7.1288 l 1.18814,62.840973 1.18813,95.53095 1.18813,10.22844 1.18814,3.63049 1.18813,0.8809 1.18813,0.0926 1.18814,-5.07867 1.18813,-7.38762 1.18814,0.28736 1.18813,3.22013 1.18813,2.02486 1.18814,0.79962 1.18813,-1.77463 2.37627,-13.14563 1.18813,-2.48263 1.18814,0.0195 1.18813,0.88492 1.18814,-0.0884 1.18813,-3.88688 2.37627,-12.93997 1.18813,-4.25178 1.18814,-2.31228 1.18813,-0.58307 1.18813,-2.01174 1.18814,-4.62638 1.18813,-7.32075 3.5644,-27.54823 1.18814,-8.45537 1.18813,-7.37907 1.18813,-4.74374 1.18814,-14.65237 1.18813,-31.325642 1.18814,-11.738263 1.18813,-6.707578 h 14.25761 l 1.18813,62.980423 v 0"
           style="fill:none;stroke:#440154;stroke-width:1;stroke-linecap:square;stroke-linejoin:round;stroke-miterlimit:10;stroke-dasharray:none;stroke-opacity:1"
           id="path380" />
      </g>
    </g>
    <g
       id="g382">
      <g
         id="g384"
         clip-path="url(#clipPath388)">
        <path
           d="m 57.698603,95.546118 1.188134,119.748242 1.188133,7.54374 1.188134,1.04615 2.376268,0.0588 1.188134,-8.70952 1.188134,-4.03278 1.188134,2.2915 1.188134,0.50507 1.188133,0.0364 1.188134,-0.90929 1.188134,-12.10252 1.188134,-19.83751 1.188134,-5.59389 2.376268,0.11859 1.188134,-0.99221 1.188134,-10.52204 1.188133,-24.21534 1.188134,-40.167549 1.188134,-34.535486 1.188134,-1.676894 h 1.188134 l 1.188134,-3.35379 1.188134,-1.676894 h 27.32708 l 1.18813,63.322713 1.18814,94.71525 1.18813,10.144 1.18814,3.85377 1.18813,0.9374 1.18813,0.12223 1.18814,-4.97071 1.18813,-7.98673 1.18813,-0.43265 1.18814,4.10568 1.18813,2.68752 1.18814,1.09726 1.18813,-0.8119 1.18813,-5.59584 1.18814,-6.90654 1.18813,-3.63749 1.18814,-0.0172 1.18813,1.03588 1.18813,0.71072 1.18814,-1.83799 1.18813,-5.27938 1.18813,-6.47069 1.18814,-5.40745 1.18813,-3.36623 1.18814,-0.65878 1.18813,-0.50172 1.18813,-3.02432 1.18814,-3.9972 1.18813,-5.5406 2.37627,-12.2786 1.18813,-3.63141 1.18814,-4.54989 1.18813,-2.06798 1.18813,-4.69073 2.37627,-14.40148 1.18814,-2.25986 1.18813,-17.25922 1.18813,-3.27643 h 1.18814 l 1.18813,-3.50418 1.18814,-43.338519 1.18813,-5.030684 h 7.1288 l 1.18814,153.519623 1.18813,11.16112 1.18813,6.22601 1.18814,1.84213 1.18813,0.30838 1.18814,-3.32127 1.18813,-6.01811 1.18813,-4.21769 2.37627,5.41287 1.18814,1.24819 1.18813,0.0512 1.18813,-4.75622 1.18814,-7.7084 1.18813,-4.8227 1.18813,-1.10471 1.18814,0.48321 1.18813,0.70247 1.18814,-1.65622 1.18813,-5.4752 1.18813,-6.73563 1.18814,-5.5929 1.18813,-3.89276 1.18814,-2.50677 1.18813,-1.2976 1.18813,-2.85979 1.18814,-4.26626 1.18813,-5.52441 1.18814,-6.7072 1.18813,-5.67063 1.18813,-3.3207 1.18814,-1.63983 1.18813,-2.07062 1.18813,-0.70976 1.18814,-3.23907 1.18813,-5.92324 1.18814,-15.49368 1.18813,-12.07374 1.18813,-42.288746 1.18814,-10.061367 h 11.88134 l 1.18813,153.567653 1.18813,6.78132 1.18814,8.49253 1.18813,1.50135 1.18814,0.0953 2.37626,-8.08128 1.18814,-9.19953 1.18813,1.56535 1.18814,0.79812 1.18813,0.0625 1.18813,-0.11324 1.18814,-8.28434 1.18813,-20.3505 1.18814,-9.6584 1.18813,-0.24778 1.18813,0.006 1.18814,-0.28246 1.18813,-8.09588 1.18813,-23.64523 2.37627,-79.880539 h 2.37627 l 1.18813,-3.35379 1.18814,-1.676894 h 28.51521 l 1.18814,153.765853 1.18813,10.36884 1.18813,6.52121 1.18814,2.04302 1.18813,0.36897 1.18813,-3.36369 2.37627,-11.0326 1.18814,3.10609 1.18813,3.63176 1.18813,1.77225 1.18814,0.48709 1.18813,-3.19178 1.18814,-6.92847 1.18813,-5.60513 1.18813,-1.51582 1.18814,0.58843 1.18813,0.97842 1.18813,-0.1698 1.18814,-3.87083 2.37627,-12.23171 1.18813,-4.25152 1.18813,-2.05998 1.18814,0.0588 1.18813,-1.95862 1.18814,-3.64671 1.18813,-4.66091 2.37627,-12.24767 1.18813,-5.23185 2.37627,-6.87564 1.18813,-3.13419 1.18814,-5.95823 1.18813,-7.43697 1.18813,-4.74649 1.18814,-9.21058 1.18813,-12.16845 2.37627,-0.64748 1.18813,-15.082608 1.18814,-36.463035 h 7.1288 l 1.18814,62.840973 1.18813,95.53095 1.18813,10.22844 1.18814,3.63049 1.18813,0.8809 1.18813,0.0926 1.18814,-5.07867 1.18813,-7.38762 1.18814,0.28736 1.18813,3.22013 1.18813,2.02486 1.18814,0.79962 1.18813,-1.77463 2.37627,-13.14563 1.18813,-2.48263 1.18814,0.0195 1.18813,0.88492 1.18814,-0.0884 1.18813,-3.88688 2.37627,-12.93997 1.18813,-4.25178 1.18814,-2.31228 1.18813,-0.58307 1.18813,-2.01174 1.18814,-4.62638 1.18813,-7.32075 3.5644,-27.54823 1.18814,-8.45537 1.18813,-7.37907 1.18813,-4.74374 1.18814,-14.65237 1.18813,-31.325642 1.18814,-11.738263 1.18813,-6.707578 h 14.25761 l 1.18813,62.980423 v 0"
           style="fill:none;stroke:#440154;stroke-width:0.5;stroke-linecap:square;stroke-linejoin:round;stroke-miterlimit:10;stroke-dasharray:none;stroke-opacity:1"
           id="path390" />
      </g>
    </g>
    <g
       id="g392">
      <g
         id="g394"
         clip-path="url(#clipPath398)">
        <path
           d="m 57.698603,95.546118 1.188134,119.748242 1.188133,7.54374 1.188134,1.04615 2.376268,0.0588 1.188134,-8.70952 1.188134,-4.03278 1.188134,2.2915 1.188134,0.50507 1.188133,0.0364 1.188134,-0.90929 1.188134,-12.10252 1.188134,-19.83751 1.188134,-5.59389 2.376268,0.11859 1.188134,-0.99221 1.188134,-10.52204 1.188133,-24.21534 1.188134,-40.167549 1.188134,-34.535486 1.188134,-1.676894 h 1.188134 l 1.188134,-3.35379 1.188134,-1.676894 h 27.32708 l 1.18813,63.322713 1.18814,94.71525 1.18813,10.144 1.18814,3.85377 1.18813,0.9374 1.18813,0.12223 1.18814,-4.97071 1.18813,-7.98673 1.18813,-0.43265 1.18814,4.10568 1.18813,2.68752 1.18814,1.09726 1.18813,-0.8119 1.18813,-5.59584 1.18814,-6.90654 1.18813,-3.63749 1.18814,-0.0172 1.18813,1.03588 1.18813,0.71072 1.18814,-1.83799 1.18813,-5.27938 1.18813,-6.47069 1.18814,-5.40745 1.18813,-3.36623 1.18814,-0.65878 1.18813,-0.50172 1.18813,-3.02432 1.18814,-3.9972 1.18813,-5.5406 2.37627,-12.2786 1.18813,-3.63141 1.18814,-4.54989 1.18813,-2.06798 1.18813,-4.69073 2.37627,-14.40148 1.18814,-2.25986 1.18813,-17.25922 1.18813,-3.27643 h 1.18814 l 1.18813,-3.50418 1.18814,-43.338519 1.18813,-5.030684 h 7.1288 l 1.18814,153.519623 1.18813,11.16112 1.18813,6.22601 1.18814,1.84213 1.18813,0.30838 1.18814,-3.32127 1.18813,-6.01811 1.18813,-4.21769 2.37627,5.41287 1.18814,1.24819 1.18813,0.0512 1.18813,-4.75622 1.18814,-7.7084 1.18813,-4.8227 1.18813,-1.10471 1.18814,0.48321 1.18813,0.70247 1.18814,-1.65622 1.18813,-5.4752 1.18813,-6.73563 1.18814,-5.5929 1.18813,-3.89276 1.18814,-2.50677 1.18813,-1.2976 1.18813,-2.85979 1.18814,-4.26626 1.18813,-5.52441 1.18814,-6.7072 1.18813,-5.67063 1.18813,-3.3207 1.18814,-1.63983 1.18813,-2.07062 1.18813,-0.70976 1.18814,-3.23907 1.18813,-5.92324 1.18814,-15.49368 1.18813,-12.07374 1.18813,-42.288746 1.18814,-10.061367 h 11.88134 l 1.18813,153.567653 1.18813,6.78132 1.18814,8.49253 1.18813,1.50135 1.18814,0.0953 2.37626,-8.08128 1.18814,-9.19953 1.18813,1.56535 1.18814,0.79812 1.18813,0.0625 1.18813,-0.11324 1.18814,-8.28434 1.18813,-20.3505 1.18814,-9.6584 1.18813,-0.24778 1.18813,0.006 1.18814,-0.28246 1.18813,-8.09588 1.18813,-23.64523 2.37627,-79.880539 h 2.37627 l 1.18813,-3.35379 1.18814,-1.676894 h 28.51521 l 1.18814,153.765853 1.18813,10.36884 1.18813,6.52121 1.18814,2.04302 1.18813,0.36897 1.18813,-3.36369 2.37627,-11.0326 1.18814,3.10609 1.18813,3.63176 1.18813,1.77225 1.18814,0.48709 1.18813,-3.19178 1.18814,-6.92847 1.18813,-5.60513 1.18813,-1.51582 1.18814,0.58843 1.18813,0.97842 1.18813,-0.1698 1.18814,-3.87083 2.37627,-12.23171 1.18813,-4.25152 1.18813,-2.05998 1.18814,0.0588 1.18813,-1.95862 1.18814,-3.64671 1.18813,-4.66091 2.37627,-12.24767 1.18813,-5.23185 2.37627,-6.87564 1.18813,-3.13419 1.18814,-5.95823 1.18813,-7.43697 1.18813,-4.74649 1.18814,-9.21058 1.18813,-12.16845 2.37627,-0.64748 1.18813,-15.082608 1.18814,-36.463035 h 7.1288 l 1.18814,62.840973 1.18813,95.53095 1.18813,10.22844 1.18814,3.63049 1.18813,0.8809 1.18813,0.0926 1.18814,-5.07867 1.18813,-7.38762 1.18814,0.28736 1.18813,3.22013 1.18813,2.02486 1.18814,0.79962 1.18813,-1.77463 2.37627,-13.14563 1.18813,-2.48263 1.18814,0.0195 1.18813,0.88492 1.18814,-0.0884 1.18813,-3.88688 2.37627,-12.93997 1.18813,-4.25178 1.18814,-2.31228 1.18813,-0.58307 1.18813,-2.01174 1.18814,-4.62638 1.18813,-7.32075 3.5644,-27.54823 1.18814,-8.45537 1.18813,-7.37907 1.18813,-4.74374 1.18814,-14.65237 1.18813,-31.325642 1.18814,-11.738263 1.18813,-6.707578 h 14.25761 l 1.18813,62.980423 v 0"
           style="fill:none;stroke:#440154;stroke-width:0.5;stroke-linecap:square;stroke-linejoin:round;stroke-miterlimit:10;stroke-dasharray:none;stroke-opacity:1"
           id="path400" />
      </g>
    </g>
    <g
       id="g402">
      <g
         id="g404"
         clip-path="url(#clipPath408)">
        <path
           d="m 57.698603,199.68593 1.188134,11.39557 1.188133,2.66778 1.188134,2.15677 1.188134,0.89803 1.188134,-2.49525 2.376268,9.85189 1.188134,1.66375 1.188134,0.67321 1.188133,0.32265 1.188134,-4.69646 1.188134,-6.54918 1.188134,-4.60742 1.188134,0.37037 1.188134,0.71499 1.188134,-0.1935 1.188134,-0.6335 1.188134,-1.72193 1.188133,-4.81032 3.564402,-23.73532 1.188134,-5.11373 1.188134,-3.02834 1.188134,-2.38307 1.188134,-2.72882 1.188133,-6.04478 1.188134,-8.9891 1.188134,-10.33185 1.188134,-3.18331 1.188134,-2.83942 1.188134,-1.10183 1.188134,-1.28369 1.188134,-2.19723 1.188134,-8.74009 1.188131,-9.65774 1.18814,-27.935799 1.18813,-23.476525 1.18813,-3.353789 h 11.88134 l 1.18814,8.384473 1.18813,79.32895 1.18814,36.98887 1.18813,21.6262 1.18813,12.06327 1.18814,6.13332 1.18813,2.32813 1.18813,0.69063 1.18814,-1.43569 1.18813,-4.57078 1.18814,-7.53673 1.18813,-6.51451 1.18813,-4.71987 1.18814,-4.09384 1.18813,-3.55453 1.18814,-2.84098 1.18813,-3.38394 1.18813,-6.7236 1.18814,-9.03633 3.5644,-32.10192 1.18813,-5.66995 1.18814,-4.11735 1.18813,-10.04359 1.18813,-3.32852 1.18814,-18.172642 1.18813,-36.345282 1.18814,-3.353789 h 24.95081 l 1.18813,67.009143 1.18813,44.42133 1.18814,27.01371 1.18813,15.74154 1.18814,8.75398 1.18813,4.18254 1.18813,1.66315 1.18814,-0.11743 1.18813,-2.57632 1.18814,-5.36881 1.18813,-6.51832 1.18813,-4.62893 1.18814,-2.36773 2.37626,-3.40203 1.18814,-2.05372 1.18813,-3.56902 1.18814,-6.39937 3.5644,-27.1602 1.18813,-5.49874 1.18814,-3.80348 1.18813,-1.95032 1.18813,-4.07507 2.37627,-15.63133 1.18814,-15.19235 1.18813,-11.20525 1.18813,-23.790448 1.18814,-15.092052 1.18813,-8.384473 h 21.38641 l 1.18813,57.242373 1.18814,49.8217 1.18813,28.81416 1.18814,16.96553 1.18813,9.51206 1.18813,4.42531 1.18814,1.84906 1.18813,0.0891 1.18814,-2.35114 1.18813,-5.39721 1.18813,-6.76582 1.18814,-5.42722 1.18813,-3.22796 2.37627,-4.34496 1.18813,-2.04114 1.18814,-3.50673 1.18813,-6.31356 1.18813,-8.99663 2.37627,-22.59944 2.37627,-25.07096 1.18813,-10.40875 1.18814,-6.38275 1.18813,-12.31282 1.18814,-28.480202 1.18813,-15.092051 h 26.13895 l 1.18813,56.805373 1.18813,48.89276 1.18814,30.85855 1.18813,17.26302 1.18813,8.69228 1.18814,3.80283 1.18813,1.4332 1.18814,-0.20005 1.18813,-3.12013 1.18813,-6.36167 1.18814,-7.49581 1.18813,-5.46891 1.18814,-4.13861 1.18813,-3.59057 2.37627,-5.79647 1.18813,-4.72507 1.18813,-8.02498 1.18814,-10.60145 1.18813,-12.13739 1.18814,-14.84742 1.18813,-16.81563 1.18813,-27.446682 1.18814,-36.977171 h 29.70335 l 2.37626,94.854133 1.18814,32.60305 1.18813,20.79105 1.18813,11.49734 1.18814,5.85071 1.18813,2.57327 1.18814,0.78833 1.18813,-1.4219 1.18813,-4.23922 2.37627,-12.06156 1.18814,-3.52222 1.18813,-2.02019 2.37627,-3.52929 1.18813,-2.6666 1.18814,-5.05341 1.18813,-7.68014 3.5644,-28.09089 1.18814,-6.95088 1.18813,-4.5775 1.18813,-3.14937 1.18814,-5.50499 1.18813,-8.73002 2.37627,-27.46738 1.18813,-8.11485 1.18814,-25.793 1.18813,-8.384473 h 21.38641 v 0"
           style="fill:none;stroke:#21918c;stroke-width:1;stroke-linecap:square;stroke-linejoin:round;stroke-miterlimit:10;stroke-dasharray:none;stroke-opacity:1"
           id="path410" />
      </g>
    </g>
    <g
       id="g412">
      <g
         id="g414"
         clip-path="url(#clipPath418)">
        <path
           d="m 57.698603,199.68593 1.188134,11.39557 1.188133,2.66778 1.188134,2.15677 1.188134,0.89803 1.188134,-2.49525 2.376268,9.85189 1.188134,1.66375 1.188134,0.67321 1.188133,0.32265 1.188134,-4.69646 1.188134,-6.54918 1.188134,-4.60742 1.188134,0.37037 1.188134,0.71499 1.188134,-0.1935 1.188134,-0.6335 1.188134,-1.72193 1.188133,-4.81032 3.564402,-23.73532 1.188134,-5.11373 1.188134,-3.02834 1.188134,-2.38307 1.188134,-2.72882 1.188133,-6.04478 1.188134,-8.9891 1.188134,-10.33185 1.188134,-3.18331 1.188134,-2.83942 1.188134,-1.10183 1.188134,-1.28369 1.188134,-2.19723 1.188134,-8.74009 1.188131,-9.65774 1.18814,-27.935799 1.18813,-23.476525 1.18813,-3.353789 h 11.88134 l 1.18814,8.384473 1.18813,79.32895 1.18814,36.98887 1.18813,21.6262 1.18813,12.06327 1.18814,6.13332 1.18813,2.32813 1.18813,0.69063 1.18814,-1.43569 1.18813,-4.57078 1.18814,-7.53673 1.18813,-6.51451 1.18813,-4.71987 1.18814,-4.09384 1.18813,-3.55453 1.18814,-2.84098 1.18813,-3.38394 1.18813,-6.7236 1.18814,-9.03633 3.5644,-32.10192 1.18813,-5.66995 1.18814,-4.11735 1.18813,-10.04359 1.18813,-3.32852 1.18814,-18.172642 1.18813,-36.345282 1.18814,-3.353789 h 24.95081 l 1.18813,67.009143 1.18813,44.42133 1.18814,27.01371 1.18813,15.74154 1.18814,8.75398 1.18813,4.18254 1.18813,1.66315 1.18814,-0.11743 1.18813,-2.57632 1.18814,-5.36881 1.18813,-6.51832 1.18813,-4.62893 1.18814,-2.36773 2.37626,-3.40203 1.18814,-2.05372 1.18813,-3.56902 1.18814,-6.39937 3.5644,-27.1602 1.18813,-5.49874 1.18814,-3.80348 1.18813,-1.95032 1.18813,-4.07507 2.37627,-15.63133 1.18814,-15.19235 1.18813,-11.20525 1.18813,-23.790448 1.18814,-15.092052 1.18813,-8.384473 h 21.38641 l 1.18813,57.242373 1.18814,49.8217 1.18813,28.81416 1.18814,16.96553 1.18813,9.51206 1.18813,4.42531 1.18814,1.84906 1.18813,0.0891 1.18814,-2.35114 1.18813,-5.39721 1.18813,-6.76582 1.18814,-5.42722 1.18813,-3.22796 2.37627,-4.34496 1.18813,-2.04114 1.18814,-3.50673 1.18813,-6.31356 1.18813,-8.99663 2.37627,-22.59944 2.37627,-25.07096 1.18813,-10.40875 1.18814,-6.38275 1.18813,-12.31282 1.18814,-28.480202 1.18813,-15.092051 h 26.13895 l 1.18813,56.805373 1.18813,48.89276 1.18814,30.85855 1.18813,17.26302 1.18813,8.69228 1.18814,3.80283 1.18813,1.4332 1.18814,-0.20005 1.18813,-3.12013 1.18813,-6.36167 1.18814,-7.49581 1.18813,-5.46891 1.18814,-4.13861 1.18813,-3.59057 2.37627,-5.79647 1.18813,-4.72507 1.18813,-8.02498 1.18814,-10.60145 1.18813,-12.13739 1.18814,-14.84742 1.18813,-16.81563 1.18813,-27.446682 1.18814,-36.977171 h 29.70335 l 2.37626,94.854133 1.18814,32.60305 1.18813,20.79105 1.18813,11.49734 1.18814,5.85071 1.18813,2.57327 1.18814,0.78833 1.18813,-1.4219 1.18813,-4.23922 2.37627,-12.06156 1.18814,-3.52222 1.18813,-2.02019 2.37627,-3.52929 1.18813,-2.6666 1.18814,-5.05341 1.18813,-7.68014 3.5644,-28.09089 1.18814,-6.95088 1.18813,-4.5775 1.18813,-3.14937 1.18814,-5.50499 1.18813,-8.73002 2.37627,-27.46738 1.18813,-8.11485 1.18814,-25.793 1.18813,-8.384473 h 21.38641 v 0"
           style="fill:none;stroke:#21918c;stroke-width:0.5;stroke-linecap:square;stroke-linejoin:round;stroke-miterlimit:10;stroke-dasharray:none;stroke-opacity:1"
           id="path420" />
      </g>
    </g>
    <g
       id="g422">
      <g
         id="g424"
         clip-path="url(#clipPath428)">
        <path
           d="m 57.698603,199.68593 1.188134,11.39557 1.188133,2.66778 1.188134,2.15677 1.188134,0.89803 1.188134,-2.49525 2.376268,9.85189 1.188134,1.66375 1.188134,0.67321 1.188133,0.32265 1.188134,-4.69646 1.188134,-6.54918 1.188134,-4.60742 1.188134,0.37037 1.188134,0.71499 1.188134,-0.1935 1.188134,-0.6335 1.188134,-1.72193 1.188133,-4.81032 3.564402,-23.73532 1.188134,-5.11373 1.188134,-3.02834 1.188134,-2.38307 1.188134,-2.72882 1.188133,-6.04478 1.188134,-8.9891 1.188134,-10.33185 1.188134,-3.18331 1.188134,-2.83942 1.188134,-1.10183 1.188134,-1.28369 1.188134,-2.19723 1.188134,-8.74009 1.188131,-9.65774 1.18814,-27.935799 1.18813,-23.476525 1.18813,-3.353789 h 11.88134 l 1.18814,8.384473 1.18813,79.32895 1.18814,36.98887 1.18813,21.6262 1.18813,12.06327 1.18814,6.13332 1.18813,2.32813 1.18813,0.69063 1.18814,-1.43569 1.18813,-4.57078 1.18814,-7.53673 1.18813,-6.51451 1.18813,-4.71987 1.18814,-4.09384 1.18813,-3.55453 1.18814,-2.84098 1.18813,-3.38394 1.18813,-6.7236 1.18814,-9.03633 3.5644,-32.10192 1.18813,-5.66995 1.18814,-4.11735 1.18813,-10.04359 1.18813,-3.32852 1.18814,-18.172642 1.18813,-36.345282 1.18814,-3.353789 h 24.95081 l 1.18813,67.009143 1.18813,44.42133 1.18814,27.01371 1.18813,15.74154 1.18814,8.75398 1.18813,4.18254 1.18813,1.66315 1.18814,-0.11743 1.18813,-2.57632 1.18814,-5.36881 1.18813,-6.51832 1.18813,-4.62893 1.18814,-2.36773 2.37626,-3.40203 1.18814,-2.05372 1.18813,-3.56902 1.18814,-6.39937 3.5644,-27.1602 1.18813,-5.49874 1.18814,-3.80348 1.18813,-1.95032 1.18813,-4.07507 2.37627,-15.63133 1.18814,-15.19235 1.18813,-11.20525 1.18813,-23.790448 1.18814,-15.092052 1.18813,-8.384473 h 21.38641 l 1.18813,57.242373 1.18814,49.8217 1.18813,28.81416 1.18814,16.96553 1.18813,9.51206 1.18813,4.42531 1.18814,1.84906 1.18813,0.0891 1.18814,-2.35114 1.18813,-5.39721 1.18813,-6.76582 1.18814,-5.42722 1.18813,-3.22796 2.37627,-4.34496 1.18813,-2.04114 1.18814,-3.50673 1.18813,-6.31356 1.18813,-8.99663 2.37627,-22.59944 2.37627,-25.07096 1.18813,-10.40875 1.18814,-6.38275 1.18813,-12.31282 1.18814,-28.480202 1.18813,-15.092051 h 26.13895 l 1.18813,56.805373 1.18813,48.89276 1.18814,30.85855 1.18813,17.26302 1.18813,8.69228 1.18814,3.80283 1.18813,1.4332 1.18814,-0.20005 1.18813,-3.12013 1.18813,-6.36167 1.18814,-7.49581 1.18813,-5.46891 1.18814,-4.13861 1.18813,-3.59057 2.37627,-5.79647 1.18813,-4.72507 1.18813,-8.02498 1.18814,-10.60145 1.18813,-12.13739 1.18814,-14.84742 1.18813,-16.81563 1.18813,-27.446682 1.18814,-36.977171 h 29.70335 l 2.37626,94.854133 1.18814,32.60305 1.18813,20.79105 1.18813,11.49734 1.18814,5.85071 1.18813,2.57327 1.18814,0.78833 1.18813,-1.4219 1.18813,-4.23922 2.37627,-12.06156 1.18814,-3.52222 1.18813,-2.02019 2.37627,-3.52929 1.18813,-2.6666 1.18814,-5.05341 1.18813,-7.68014 3.5644,-28.09089 1.18814,-6.95088 1.18813,-4.5775 1.18813,-3.14937 1.18814,-5.50499 1.18813,-8.73002 2.37627,-27.46738 1.18813,-8.11485 1.18814,-25.793 1.18813,-8.384473 h 21.38641 v 0"
           style="fill:none;stroke:#21918c;stroke-width:0.5;stroke-linecap:square;stroke-linejoin:round;stroke-miterlimit:10;stroke-dasharray:none;stroke-opacity:1"
           id="path430" />
      </g>
    </g>
    <g
       id="g432">
      <g
         id="g434"
         clip-path="url(#clipPath438)">
        <path
           d="m 57.698603,209.80026 1.188134,8.76331 3.564401,2.24955 1.188134,-6.32668 1.188134,-12.93339 1.188134,-3.17527 1.188134,-3.80242 1.188134,-7.76218 1.188133,-13.78777 1.188134,-30.22654 1.188134,-12.65791 1.188134,-5.08313 1.188134,-11.46573 1.188134,-14.149375 1.188134,-32.489305 1.188134,-8.384473 h 36.832151 l 1.18813,62.557523 1.18814,99.00269 1.18813,6.3248 1.18814,1.1444 2.37626,0.89091 1.18814,-9.23272 1.18813,-13.5926 1.18813,-7.49952 1.18814,-5.58544 1.18813,-8.66508 1.18814,-14.88807 2.37626,-42.60811 1.18814,-23.68058 1.18813,-37.460625 1.18814,-6.707578 h 39.20841 l 1.18814,72.273193 1.18813,43.35653 1.18813,23.96516 1.18814,11.35407 1.18813,7.99674 1.18814,6.61273 1.18813,3.21021 1.18813,-0.29026 1.18814,-1.69883 1.18813,-3.29279 1.18814,-7.56966 1.18813,-11.99482 1.18813,-7.62699 1.18814,-5.62742 1.18813,-7.96901 1.18813,-11.67935 1.18814,-17.59402 1.18813,-19.54775 1.18814,-25.29878 1.18813,-45.225164 1.18813,-3.353789 h 34.45589 l 1.18813,153.682113 1.18813,11.39079 1.18814,1.55246 1.18813,0.33246 1.18814,0.51621 1.18813,-4.89589 1.18813,-14.30326 1.18814,-7.32835 1.18813,-2.60559 1.18814,-5.72962 1.18813,-9.98775 1.18813,-21.22892 1.18814,-27.10073 1.18813,-4.74263 1.18814,-7.57973 1.18813,-14.70459 1.18813,-13.0895 1.18814,-32.500579 1.18813,-1.676894 h 36.83215 l 1.18814,153.836313 1.18813,12.03162 1.18813,2.81292 1.18814,0.59256 1.18813,0.45101 1.18813,-4.11113 2.37627,-23.17418 1.18814,-5.36237 1.18813,-6.84012 1.18813,-11.27351 1.18814,-19.01931 1.18813,-21.05649 2.37627,-48.70321 1.18813,-30.184103 h 40.39656 l 1.18813,97.500753 1.18813,32.62012 1.18814,16.01966 1.18813,8.92392 1.18813,7.46284 1.18814,5.21887 1.18813,1.31519 1.18814,-1.1187 1.18813,-2.19679 1.18813,-4.90064 2.37627,-21.07835 1.18814,-6.17458 1.18813,-7.04506 1.18813,-10.41246 1.18814,-16.21166 1.18813,-19.74151 1.18814,-14.40148 1.18813,-19.97118 1.18813,-44.132049 1.18814,-1.676894 h 33.26775 l 1.18813,62.980423 v 0"
           style="fill:none;stroke:#fde725;stroke-width:1;stroke-linecap:square;stroke-linejoin:round;stroke-miterlimit:10;stroke-dasharray:none;stroke-opacity:1"
           id="path440" />
      </g>
    </g>
    <g
       id="g442">
      <g
         id="g444"
         clip-path="url(#clipPath448)">
        <path
           d="m 57.698603,209.80026 1.188134,8.76331 3.564401,2.24955 1.188134,-6.32668 1.188134,-12.93339 1.188134,-3.17527 1.188134,-3.80242 1.188134,-7.76218 1.188133,-13.78777 1.188134,-30.22654 1.188134,-12.65791 1.188134,-5.08313 1.188134,-11.46573 1.188134,-14.149375 1.188134,-32.489305 1.188134,-8.384473 h 36.832151 l 1.18813,62.557523 1.18814,99.00269 1.18813,6.3248 1.18814,1.1444 2.37626,0.89091 1.18814,-9.23272 1.18813,-13.5926 1.18813,-7.49952 1.18814,-5.58544 1.18813,-8.66508 1.18814,-14.88807 2.37626,-42.60811 1.18814,-23.68058 1.18813,-37.460625 1.18814,-6.707578 h 39.20841 l 1.18814,72.273193 1.18813,43.35653 1.18813,23.96516 1.18814,11.35407 1.18813,7.99674 1.18814,6.61273 1.18813,3.21021 1.18813,-0.29026 1.18814,-1.69883 1.18813,-3.29279 1.18814,-7.56966 1.18813,-11.99482 1.18813,-7.62699 1.18814,-5.62742 1.18813,-7.96901 1.18813,-11.67935 1.18814,-17.59402 1.18813,-19.54775 1.18814,-25.29878 1.18813,-45.225164 1.18813,-3.353789 h 34.45589 l 1.18813,153.682113 1.18813,11.39079 1.18814,1.55246 1.18813,0.33246 1.18814,0.51621 1.18813,-4.89589 1.18813,-14.30326 1.18814,-7.32835 1.18813,-2.60559 1.18814,-5.72962 1.18813,-9.98775 1.18813,-21.22892 1.18814,-27.10073 1.18813,-4.74263 1.18814,-7.57973 1.18813,-14.70459 1.18813,-13.0895 1.18814,-32.500579 1.18813,-1.676894 h 36.83215 l 1.18814,153.836313 1.18813,12.03162 1.18813,2.81292 1.18814,0.59256 1.18813,0.45101 1.18813,-4.11113 2.37627,-23.17418 1.18814,-5.36237 1.18813,-6.84012 1.18813,-11.27351 1.18814,-19.01931 1.18813,-21.05649 2.37627,-48.70321 1.18813,-30.184103 h 40.39656 l 1.18813,97.500753 1.18813,32.62012 1.18814,16.01966 1.18813,8.92392 1.18813,7.46284 1.18814,5.21887 1.18813,1.31519 1.18814,-1.1187 1.18813,-2.19679 1.18813,-4.90064 2.37627,-21.07835 1.18814,-6.17458 1.18813,-7.04506 1.18813,-10.41246 1.18814,-16.21166 1.18813,-19.74151 1.18814,-14.40148 1.18813,-19.97118 1.18813,-44.132049 1.18814,-1.676894 h 33.26775 l 1.18813,62.980423 v 0"
           style="fill:none;stroke:#fde725;stroke-width:0.5;stroke-linecap:square;stroke-linejoin:round;stroke-miterlimit:10;stroke-dasharray:none;stroke-opacity:1"
           id="path450" />
      </g>
    </g>
    <g
       id="g452">
      <g
         id="g454"
         clip-path="url(#clipPath458)">
        <path
           d="m 57.698603,209.80026 1.188134,8.76331 3.564401,2.24955 1.188134,-6.32668 1.188134,-12.93339 1.188134,-3.17527 1.188134,-3.80242 1.188134,-7.76218 1.188133,-13.78777 1.188134,-30.22654 1.188134,-12.65791 1.188134,-5.08313 1.188134,-11.46573 1.188134,-14.149375 1.188134,-32.489305 1.188134,-8.384473 h 36.832151 l 1.18813,62.557523 1.18814,99.00269 1.18813,6.3248 1.18814,1.1444 2.37626,0.89091 1.18814,-9.23272 1.18813,-13.5926 1.18813,-7.49952 1.18814,-5.58544 1.18813,-8.66508 1.18814,-14.88807 2.37626,-42.60811 1.18814,-23.68058 1.18813,-37.460625 1.18814,-6.707578 h 39.20841 l 1.18814,72.273193 1.18813,43.35653 1.18813,23.96516 1.18814,11.35407 1.18813,7.99674 1.18814,6.61273 1.18813,3.21021 1.18813,-0.29026 1.18814,-1.69883 1.18813,-3.29279 1.18814,-7.56966 1.18813,-11.99482 1.18813,-7.62699 1.18814,-5.62742 1.18813,-7.96901 1.18813,-11.67935 1.18814,-17.59402 1.18813,-19.54775 1.18814,-25.29878 1.18813,-45.225164 1.18813,-3.353789 h 34.45589 l 1.18813,153.682113 1.18813,11.39079 1.18814,1.55246 1.18813,0.33246 1.18814,0.51621 1.18813,-4.89589 1.18813,-14.30326 1.18814,-7.32835 1.18813,-2.60559 1.18814,-5.72962 1.18813,-9.98775 1.18813,-21.22892 1.18814,-27.10073 1.18813,-4.74263 1.18814,-7.57973 1.18813,-14.70459 1.18813,-13.0895 1.18814,-32.500579 1.18813,-1.676894 h 36.83215 l 1.18814,153.836313 1.18813,12.03162 1.18813,2.81292 1.18814,0.59256 1.18813,0.45101 1.18813,-4.11113 2.37627,-23.17418 1.18814,-5.36237 1.18813,-6.84012 1.18813,-11.27351 1.18814,-19.01931 1.18813,-21.05649 2.37627,-48.70321 1.18813,-30.184103 h 40.39656 l 1.18813,97.500753 1.18813,32.62012 1.18814,16.01966 1.18813,8.92392 1.18813,7.46284 1.18814,5.21887 1.18813,1.31519 1.18814,-1.1187 1.18813,-2.19679 1.18813,-4.90064 2.37627,-21.07835 1.18814,-6.17458 1.18813,-7.04506 1.18813,-10.41246 1.18814,-16.21166 1.18813,-19.74151 1.18814,-14.40148 1.18813,-19.97118 1.18813,-44.132049 1.18814,-1.676894 h 33.26775 l 1.18813,62.980423 v 0"
           style="fill:none;stroke:#fde725;stroke-width:0.5;stroke-linecap:square;stroke-linejoin:round;stroke-miterlimit:10;stroke-dasharray:none;stroke-opacity:1"
           id="path460" />
      </g>
    </g>
    <g
       id="g462">
      <g
         id="g464"
         clip-path="url(#clipPath468)">
        <path
           d="M 115.71914,58.568947 V 233.94104"
           style="fill:none;stroke:#000000;stroke-width:1.5;stroke-linecap:butt;stroke-linejoin:round;stroke-miterlimit:10;stroke-dasharray:5.55, 2.4;stroke-dashoffset:0;stroke-opacity:1"
           id="path470" />
        <path
           d="M 174.92781,58.568947 V 233.94104"
           style="fill:none;stroke:#000000;stroke-width:1.5;stroke-linecap:butt;stroke-linejoin:round;stroke-miterlimit:10;stroke-dasharray:1.5, 2.475;stroke-dashoffset:0;stroke-opacity:1"
           id="path472" />
        <path
           d="M 234.13648,58.568947 V 233.94104"
           style="fill:none;stroke:#000000;stroke-width:1.5;stroke-linecap:butt;stroke-linejoin:round;stroke-miterlimit:10;stroke-dasharray:none;stroke-opacity:1"
           id="path474" />
        <path
           d="M 293.34516,58.568947 V 233.94104"
           style="fill:none;stroke:#000000;stroke-width:1.5;stroke-linecap:butt;stroke-linejoin:round;stroke-miterlimit:10;stroke-dasharray:5.55, 2.4;stroke-dashoffset:0;stroke-opacity:1"
           id="path476" />
        <path
           d="M 352.55383,58.568947 V 233.94104"
           style="fill:none;stroke:#000000;stroke-width:1.5;stroke-linecap:butt;stroke-linejoin:round;stroke-miterlimit:10;stroke-dasharray:1.5, 2.475;stroke-dashoffset:0;stroke-opacity:1"
           id="path478" />
      </g>
    </g>
    <g
       id="g480">
      <path
         d="M 56.510469,41.8 V 261.2"
         style="fill:none;stroke:#000000;stroke-width:0.8;stroke-linecap:square;stroke-linejoin:miter;stroke-miterlimit:10;stroke-dasharray:none;stroke-opacity:1"
         id="path482" />
      <path
         d="M 411.7625,41.8 V 261.2"
         style="fill:none;stroke:#000000;stroke-width:0.8;stroke-linecap:square;stroke-linejoin:miter;stroke-miterlimit:10;stroke-dasharray:none;stroke-opacity:1"
         id="path484" />
      <path
         d="M 56.510469,41.8 H 411.7625"
         style="fill:none;stroke:#000000;stroke-width:0.8;stroke-linecap:square;stroke-linejoin:miter;stroke-miterlimit:10;stroke-dasharray:none;stroke-opacity:1"
         id="path486" />
      <path
         d="M 56.510469,261.2 H 411.7625"
         style="fill:none;stroke:#000000;stroke-width:0.8;stroke-linecap:square;stroke-linejoin:miter;stroke-miterlimit:10;stroke-dasharray:none;stroke-opacity:1"
         id="path488" />
      <g
         id="g490"
         transform="translate(74.27307,46.830684)">
        <text
           xml:space="preserve"
           transform="scale(1,-1)"
           style="font-variant:normal;font-weight:normal;font-size:10px;font-family:'DejaVu Sans';-inkscape-font-specification:DejaVuSans;writing-mode:lr-tb;fill:#000000;fill-opacity:1;fill-rule:nonzero;stroke:none"
           id="text494"><tspan
             x="0 6.3499999 12.5"
             y="0"
             sodipodi:role="line"
             id="tspan492">deg</tspan></text>
      </g>
      <g
         id="g496"
         transform="translate(133.48174,46.830684)">
        <text
           xml:space="preserve"
           transform="scale(1,-1)"
           style="font-variant:normal;font-weight:normal;font-size:10px;font-family:'DejaVu Sans';-inkscape-font-specification:DejaVuSans;writing-mode:lr-tb;fill:#000000;fill-opacity:1;fill-rule:nonzero;stroke:none"
           id="text500"><tspan
             x="0 2.78"
             y="0"
             sodipodi:role="line"
             id="tspan498">id</tspan></text>
      </g>
      <g
         id="g502"
         transform="translate(192.69041,46.830684)">
        <text
           xml:space="preserve"
           transform="scale(1,-1)"
           style="font-variant:normal;font-weight:normal;font-size:10px;font-family:'DejaVu Sans';-inkscape-font-specification:DejaVuSans;writing-mode:lr-tb;fill:#000000;fill-opacity:1;fill-rule:nonzero;stroke:none"
           id="text506"><tspan
             x="0 4.1100001 10.24 16.58"
             y="0"
             sodipodi:role="line"
             id="tspan504">rand</tspan></text>
      </g>
      <g
         id="g508"
         transform="translate(251.89909,46.830684)">
        <text
           xml:space="preserve"
           transform="scale(1,-1)"
           style="font-variant:normal;font-weight:normal;font-size:10px;font-family:'DejaVu Sans';-inkscape-font-specification:DejaVuSans;writing-mode:lr-tb;fill:#000000;fill-opacity:1;fill-rule:nonzero;stroke:none"
           id="text512"><tspan
             x="0 6.3499999 12.5"
             y="0"
             sodipodi:role="line"
             id="tspan510">deg</tspan></text>
      </g>
      <g
         id="g514"
         transform="translate(311.10776,46.830684)">
        <text
           xml:space="preserve"
           transform="scale(1,-1)"
           style="font-variant:normal;font-weight:normal;font-size:10px;font-family:'DejaVu Sans';-inkscape-font-specification:DejaVuSans;writing-mode:lr-tb;fill:#000000;fill-opacity:1;fill-rule:nonzero;stroke:none"
           id="text518"><tspan
             x="0 2.78"
             y="0"
             sodipodi:role="line"
             id="tspan516">id</tspan></text>
      </g>
      <g
         id="g520"
         transform="translate(370.31643,46.830684)">
        <text
           xml:space="preserve"
           transform="scale(1,-1)"
           style="font-variant:normal;font-weight:normal;font-size:10px;font-family:'DejaVu Sans';-inkscape-font-specification:DejaVuSans;writing-mode:lr-tb;fill:#000000;fill-opacity:1;fill-rule:nonzero;stroke:none"
           id="text524"><tspan
             x="0 4.1100001 10.24 16.58"
             y="0"
             sodipodi:role="line"
             id="tspan522">rand</tspan></text>
      </g>
      <g
         id="g526"
         transform="translate(100.58961,267.2)">
        <text
           xml:space="preserve"
           transform="scale(1,-1)"
           style="font-variant:normal;font-weight:normal;font-size:12px;font-family:'DejaVu Sans';-inkscape-font-specification:DejaVuSans;writing-mode:lr-tb;fill:#000000;fill-opacity:1;fill-rule:nonzero;stroke:none"
           id="text530"><tspan
             x="0 3.54 11.148 17.4 22.104 29.459999 37.080002 40.416 43.751999 47.088001 51.792 58.896 62.712002 66.047997 73.655998 77.472 82.176003 89.783997 97.164001 100.98 107.232 113.832 121.188 124.524 131.90401 136.23599 140.46001 145.142 152.522 159.90199 163.718 171.326 178.70599 183.41 193.226 200.57001 205.502 212.45 216.26601 222.51801 229.118 236.498 244.106 251.46201 256.39401 259.73001"
             y="0"
             sodipodi:role="line"
             id="tspan528">Instability in the scale-free network scenario</tspan></text>
      </g>
      <path
         d="m 151.075,238.52813 h 253.6875 c 1.33333,0 2,0.66666 2,2 V 254.2 c 0,1.33333 -0.66667,2 -2,2 H 151.075 c -1.33333,0 -2,-0.66667 -2,-2 v -13.67187 c 0,-1.33334 0.66667,-2 2,-2 z"
         style="fill:#ffffff;fill-opacity:0.8;fill-rule:nonzero;stroke:#cccccc;stroke-width:1;stroke-linecap:butt;stroke-linejoin:miter;stroke-miterlimit:10;stroke-dasharray:none;stroke-opacity:0.8"
         id="path532" />
      <path
         d="m 153.075,248.10625 h 10 10"
         style="fill:none;stroke:#440154;stroke-width:1;stroke-linecap:square;stroke-linejoin:round;stroke-miterlimit:10;stroke-dasharray:none;stroke-opacity:1"
         id="path534" />
      <g
         id="g536"
         transform="translate(181.075,244.60625)">
        <text
           xml:space="preserve"
           transform="scale(1,-1)"
           style="font-variant:normal;font-weight:normal;font-size:10px;font-family:'DejaVu Sans';-inkscape-font-specification:DejaVuSans;writing-mode:lr-tb;fill:#000000;fill-opacity:1;fill-rule:nonzero;stroke:none"
           id="text540"><tspan
             x="0 3.8912499 10.04125 15.54125 21.88125 25.991249 31.20125 33.981251 39.901249"
             y="0"
             sodipodi:role="line"
             id="tspan538">recursive</tspan></text>
      </g>
      <path
         d="m 247.12187,248.10625 h 10 10"
         style="fill:none;stroke:#21918c;stroke-width:1;stroke-linecap:square;stroke-linejoin:round;stroke-miterlimit:10;stroke-dasharray:none;stroke-opacity:1"
         id="path542" />
      <g
         id="g544"
         transform="translate(275.12187,244.60625)">
        <text
           xml:space="preserve"
           transform="scale(1,-1)"
           style="font-variant:normal;font-weight:normal;font-size:10px;font-family:'DejaVu Sans';-inkscape-font-specification:DejaVuSans;writing-mode:lr-tb;fill:#000000;fill-opacity:1;fill-rule:nonzero;stroke:none"
           id="text548"><tspan
             x="0 5.5 8.2799997 14.41 19.620001 24.83 27.610001"
             y="0"
             sodipodi:role="line"
             id="tspan546">classic</tspan></text>
      </g>
      <path
         d="m 328.24687,248.10625 h 10 10"
         style="fill:none;stroke:#fde725;stroke-width:1;stroke-linecap:square;stroke-linejoin:round;stroke-miterlimit:10;stroke-dasharray:none;stroke-opacity:1"
         id="path550" />
      <g
         id="g552"
         transform="translate(356.24687,244.60625)">
        <text
           xml:space="preserve"
           transform="scale(1,-1)"
           style="font-variant:normal;font-weight:normal;font-size:10px;font-family:'DejaVu Sans';-inkscape-font-specification:DejaVuSans;writing-mode:lr-tb;fill:#000000;fill-opacity:1;fill-rule:nonzero;stroke:none"
           id="text556"><tspan
             x="0 6.3499999 10.24125 16.36125 22.71125 28.831249 34.041248 40.19125"
             y="0"
             sodipodi:role="line"
             id="tspan554">proposed</tspan></text>
      </g>
    </g>
  </g>
</svg>
