<?xml version="1.0" encoding="UTF-8" standalone="no"?>
<!-- Created with Inkscape (http://www.inkscape.org/) -->

<svg
   version="1.1"
   id="svg558"
   width="576"
   height="384"
   viewBox="0 0 576 384"
   sodipodi:docname="edge.svg"
   inkscape:version="1.2.1 (9c6d41e410, 2022-07-14)"
   xmlns:inkscape="http://www.inkscape.org/namespaces/inkscape"
   xmlns:sodipodi="http://sodipodi.sourceforge.net/DTD/sodipodi-0.dtd"
   xmlns="http://www.w3.org/2000/svg"
   xmlns:svg="http://www.w3.org/2000/svg">
  <defs
     id="defs562">
    <clipPath
       clipPathUnits="userSpaceOnUse"
       id="clipPath654">
      <path
         d="M -1021,-463 H 1794 V 1233 H -1021 Z"
         id="path652" />
    </clipPath>
    <clipPath
       clipPathUnits="userSpaceOnUse"
       id="clipPath678">
      <path
         d="M -1021,-463 H 1794 V 1233 H -1021 Z"
         id="path676" />
    </clipPath>
    <clipPath
       clipPathUnits="userSpaceOnUse"
       id="clipPath716">
      <path
         d="M 56.291719,41.8 H 411.7625 V 261.2 H 56.291719 Z"
         id="path714" />
    </clipPath>
    <clipPath
       clipPathUnits="userSpaceOnUse"
       id="clipPath726">
      <path
         d="M 56.291719,41.8 H 411.7625 V 261.2 H 56.291719 Z"
         id="path724" />
    </clipPath>
    <clipPath
       clipPathUnits="userSpaceOnUse"
       id="clipPath736">
      <path
         d="M 56.291719,41.8 H 411.7625 V 261.2 H 56.291719 Z"
         id="path734" />
    </clipPath>
    <clipPath
       clipPathUnits="userSpaceOnUse"
       id="clipPath746">
      <path
         d="M 56.291719,41.8 H 411.7625 V 261.2 H 56.291719 Z"
         id="path744" />
    </clipPath>
    <clipPath
       clipPathUnits="userSpaceOnUse"
       id="clipPath756">
      <path
         d="M 56.291719,41.8 H 411.7625 V 261.2 H 56.291719 Z"
         id="path754" />
    </clipPath>
    <clipPath
       clipPathUnits="userSpaceOnUse"
       id="clipPath766">
      <path
         d="M 56.291719,41.8 H 411.7625 V 261.2 H 56.291719 Z"
         id="path764" />
    </clipPath>
    <clipPath
       clipPathUnits="userSpaceOnUse"
       id="clipPath776">
      <path
         d="M 56.291719,41.8 H 411.7625 V 261.2 H 56.291719 Z"
         id="path774" />
    </clipPath>
    <clipPath
       clipPathUnits="userSpaceOnUse"
       id="clipPath786">
      <path
         d="M 56.291719,41.8 H 411.7625 V 261.2 H 56.291719 Z"
         id="path784" />
    </clipPath>
    <clipPath
       clipPathUnits="userSpaceOnUse"
       id="clipPath796">
      <path
         d="M 56.291719,41.8 H 411.7625 V 261.2 H 56.291719 Z"
         id="path794" />
    </clipPath>
  </defs>
  <sodipodi:namedview
     id="namedview560"
     pagecolor="#ffffff"
     bordercolor="#666666"
     borderopacity="1.0"
     inkscape:showpageshadow="2"
     inkscape:pageopacity="0.0"
     inkscape:pagecheckerboard="0"
     inkscape:deskcolor="#d1d1d1"
     showgrid="false"
     inkscape:zoom="1.9348958"
     inkscape:cx="287.87079"
     inkscape:cy="192"
     inkscape:window-width="3840"
     inkscape:window-height="2084"
     inkscape:window-x="1200"
     inkscape:window-y="0"
     inkscape:window-maximized="1"
     inkscape:current-layer="g566">
    <inkscape:page
       x="0"
       y="0"
       id="page564"
       width="576"
       height="384" />
  </sodipodi:namedview>
  <g
     id="g566"
     inkscape:groupmode="layer"
     inkscape:label="Page 1"
     transform="matrix(1.3333333,0,0,-1.3333333,0,384)">
    <path
       d="M 0,0 H 432 V 288 H 0 Z"
       style="fill:#ffffff;fill-opacity:1;fill-rule:nonzero;stroke:none"
       id="path568" />
    <path
       d="M 56.291719,41.8 H 411.7625 V 261.2 H 56.291719 Z"
       style="fill:#ffffff;fill-opacity:1;fill-rule:nonzero;stroke:none"
       id="path570" />
    <path
       d="M 56.291719,41.8 V 38.3"
       style="fill:#000000;fill-opacity:1;fill-rule:nonzero;stroke:#000000;stroke-width:0.8;stroke-linecap:butt;stroke-linejoin:round;stroke-miterlimit:10;stroke-dasharray:none;stroke-opacity:1"
       id="path572" />
    <g
       id="g574"
       transform="translate(53.112031,27.20625)">
      <text
         xml:space="preserve"
         transform="scale(1,-1)"
         style="font-variant:normal;font-weight:normal;font-size:10px;font-family:'DejaVu Sans';-inkscape-font-specification:DejaVuSans;writing-mode:lr-tb;fill:#000000;fill-opacity:1;fill-rule:nonzero;stroke:none"
         id="text578"><tspan
           x="0"
           y="0"
           id="tspan576">0</tspan></text>
    </g>
    <path
       d="M 115.53685,41.8 V 38.3"
       style="fill:#000000;fill-opacity:1;fill-rule:nonzero;stroke:#000000;stroke-width:0.8;stroke-linecap:butt;stroke-linejoin:round;stroke-miterlimit:10;stroke-dasharray:none;stroke-opacity:1"
       id="path580" />
    <g
       id="g582"
       transform="translate(105.99779,27.20625)">
      <text
         xml:space="preserve"
         transform="scale(1,-1)"
         style="font-variant:normal;font-weight:normal;font-size:10px;font-family:'DejaVu Sans';-inkscape-font-specification:DejaVuSans;writing-mode:lr-tb;fill:#000000;fill-opacity:1;fill-rule:nonzero;stroke:none"
         id="text586"><tspan
           x="0 6.3600001 12.72"
           y="0"
           sodipodi:role="line"
           id="tspan584">100</tspan></text>
    </g>
    <path
       d="M 174.78198,41.8 V 38.3"
       style="fill:#000000;fill-opacity:1;fill-rule:nonzero;stroke:#000000;stroke-width:0.8;stroke-linecap:butt;stroke-linejoin:round;stroke-miterlimit:10;stroke-dasharray:none;stroke-opacity:1"
       id="path588" />
    <g
       id="g590"
       transform="translate(165.24292,27.20625)">
      <text
         xml:space="preserve"
         transform="scale(1,-1)"
         style="font-variant:normal;font-weight:normal;font-size:10px;font-family:'DejaVu Sans';-inkscape-font-specification:DejaVuSans;writing-mode:lr-tb;fill:#000000;fill-opacity:1;fill-rule:nonzero;stroke:none"
         id="text594"><tspan
           x="0 6.3600001 12.72"
           y="0"
           sodipodi:role="line"
           id="tspan592">200</tspan></text>
    </g>
    <path
       d="M 234.02711,41.8 V 38.3"
       style="fill:#000000;fill-opacity:1;fill-rule:nonzero;stroke:#000000;stroke-width:0.8;stroke-linecap:butt;stroke-linejoin:round;stroke-miterlimit:10;stroke-dasharray:none;stroke-opacity:1"
       id="path596" />
    <g
       id="g598"
       transform="translate(224.48805,27.20625)">
      <text
         xml:space="preserve"
         transform="scale(1,-1)"
         style="font-variant:normal;font-weight:normal;font-size:10px;font-family:'DejaVu Sans';-inkscape-font-specification:DejaVuSans;writing-mode:lr-tb;fill:#000000;fill-opacity:1;fill-rule:nonzero;stroke:none"
         id="text602"><tspan
           x="0 6.3600001 12.72"
           y="0"
           sodipodi:role="line"
           id="tspan600">300</tspan></text>
    </g>
    <path
       d="M 293.27224,41.8 V 38.3"
       style="fill:#000000;fill-opacity:1;fill-rule:nonzero;stroke:#000000;stroke-width:0.8;stroke-linecap:butt;stroke-linejoin:round;stroke-miterlimit:10;stroke-dasharray:none;stroke-opacity:1"
       id="path604" />
    <g
       id="g606"
       transform="translate(283.73318,27.20625)">
      <text
         xml:space="preserve"
         transform="scale(1,-1)"
         style="font-variant:normal;font-weight:normal;font-size:10px;font-family:'DejaVu Sans';-inkscape-font-specification:DejaVuSans;writing-mode:lr-tb;fill:#000000;fill-opacity:1;fill-rule:nonzero;stroke:none"
         id="text610"><tspan
           x="0 6.3600001 12.72"
           y="0"
           sodipodi:role="line"
           id="tspan608">400</tspan></text>
    </g>
    <path
       d="M 352.51737,41.8 V 38.3"
       style="fill:#000000;fill-opacity:1;fill-rule:nonzero;stroke:#000000;stroke-width:0.8;stroke-linecap:butt;stroke-linejoin:round;stroke-miterlimit:10;stroke-dasharray:none;stroke-opacity:1"
       id="path612" />
    <g
       id="g614"
       transform="translate(342.97831,27.20625)">
      <text
         xml:space="preserve"
         transform="scale(1,-1)"
         style="font-variant:normal;font-weight:normal;font-size:10px;font-family:'DejaVu Sans';-inkscape-font-specification:DejaVuSans;writing-mode:lr-tb;fill:#000000;fill-opacity:1;fill-rule:nonzero;stroke:none"
         id="text618"><tspan
           x="0 6.3600001 12.72"
           y="0"
           sodipodi:role="line"
           id="tspan616">500</tspan></text>
    </g>
    <path
       d="M 411.7625,41.8 V 38.3"
       style="fill:#000000;fill-opacity:1;fill-rule:nonzero;stroke:#000000;stroke-width:0.8;stroke-linecap:butt;stroke-linejoin:round;stroke-miterlimit:10;stroke-dasharray:none;stroke-opacity:1"
       id="path620" />
    <g
       id="g622"
       transform="translate(402.22344,27.20625)">
      <text
         xml:space="preserve"
         transform="scale(1,-1)"
         style="font-variant:normal;font-weight:normal;font-size:10px;font-family:'DejaVu Sans';-inkscape-font-specification:DejaVuSans;writing-mode:lr-tb;fill:#000000;fill-opacity:1;fill-rule:nonzero;stroke:none"
         id="text626"><tspan
           x="0 6.3600001 12.72"
           y="0"
           sodipodi:role="line"
           id="tspan624">600</tspan></text>
    </g>
    <g
       id="g628"
       transform="translate(213.0193,13.534375)">
      <text
         xml:space="preserve"
         transform="scale(1,-1)"
         style="font-variant:normal;font-weight:normal;font-size:10px;font-family:'DejaVu Sans';-inkscape-font-specification:DejaVuSans;writing-mode:lr-tb;fill:#000000;fill-opacity:1;fill-rule:nonzero;stroke:none"
         id="text632"><tspan
           x="0 3.9200001 6.6999998 16.440001 22.59 25.77 29.67 34.880001 38.779999"
           y="0"
           sodipodi:role="line"
           id="tspan630">time (s) </tspan></text>
    </g>
    <path
       d="m 56.291719,46.098228 h -3.5"
       style="fill:#000000;fill-opacity:1;fill-rule:nonzero;stroke:#000000;stroke-width:0.8;stroke-linecap:butt;stroke-linejoin:round;stroke-miterlimit:10;stroke-dasharray:none;stroke-opacity:1"
       id="path634" />
    <g
       id="g636"
       transform="translate(25.291719,41.637291)">
      <text
         xml:space="preserve"
         transform="matrix(1,0,0,-1,0,0.9765625)"
         style="font-variant:normal;font-weight:normal;font-size:10px;font-family:'DejaVu Sans';-inkscape-font-specification:DejaVuSans;writing-mode:lr-tb;fill:#000000;fill-opacity:1;fill-rule:nonzero;stroke:none"
         id="text640"><tspan
           x="0 6.3623047"
           y="0"
           sodipodi:role="line"
           id="tspan638">10</tspan></text>
      <text
         xml:space="preserve"
         transform="matrix(1,0,0,-1,18.685547,4.8046875)"
         style="font-variant:normal;font-weight:normal;font-size:7px;font-family:'DejaVu Sans';-inkscape-font-specification:DejaVuSans;writing-mode:lr-tb;fill:#000000;fill-opacity:1;fill-rule:nonzero;stroke:none"
         id="text644"><tspan
           x="0"
           y="0"
           id="tspan642">2</tspan></text>
      <g
         id="g646"
         transform="matrix(0.007,0,0,0.007,12.820313,4.8046875)">
        <g
           id="g648">
          <g
             id="g650"
             clip-path="url(#clipPath654)">
            <path
               d="M 106,355 H 732 V 272 H 106 Z"
               style="fill:#000000;fill-opacity:1;fill-rule:nonzero;stroke:none"
               id="path656" />
          </g>
        </g>
      </g>
    </g>
    <path
       d="m 56.291719,179.72501 h -3.5"
       style="fill:#000000;fill-opacity:1;fill-rule:nonzero;stroke:#000000;stroke-width:0.8;stroke-linecap:butt;stroke-linejoin:round;stroke-miterlimit:10;stroke-dasharray:none;stroke-opacity:1"
       id="path658" />
    <g
       id="g660"
       transform="translate(25.291719,175.76407)">
      <text
         xml:space="preserve"
         transform="matrix(1,0,0,-1,0,0.0640625)"
         style="font-variant:normal;font-weight:normal;font-size:10px;font-family:'DejaVu Sans';-inkscape-font-specification:DejaVuSans;writing-mode:lr-tb;fill:#000000;fill-opacity:1;fill-rule:nonzero;stroke:none"
         id="text664"><tspan
           x="0 6.3623047"
           y="0"
           sodipodi:role="line"
           id="tspan662">10</tspan></text>
      <text
         xml:space="preserve"
         transform="matrix(1,0,0,-1,18.685547,3.8921875)"
         style="font-variant:normal;font-weight:normal;font-size:7px;font-family:'DejaVu Sans';-inkscape-font-specification:DejaVuSans;writing-mode:lr-tb;fill:#000000;fill-opacity:1;fill-rule:nonzero;stroke:none"
         id="text668"><tspan
           x="0"
           y="0"
           id="tspan666">1</tspan></text>
      <g
         id="g670"
         transform="matrix(0.007,0,0,0.007,12.820313,3.8921875)">
        <g
           id="g672">
          <g
             id="g674"
             clip-path="url(#clipPath678)">
            <path
               d="M 106,355 H 732 V 272 H 106 Z"
               style="fill:#000000;fill-opacity:1;fill-rule:nonzero;stroke:none"
               id="path680" />
          </g>
        </g>
      </g>
    </g>
    <path
       d="m 56.291719,86.323898 h -2"
       style="fill:#000000;fill-opacity:1;fill-rule:nonzero;stroke:#000000;stroke-width:0.6;stroke-linecap:butt;stroke-linejoin:round;stroke-miterlimit:10;stroke-dasharray:none;stroke-opacity:1"
       id="path682" />
    <path
       d="m 56.291719,109.85441 h -2"
       style="fill:#000000;fill-opacity:1;fill-rule:nonzero;stroke:#000000;stroke-width:0.6;stroke-linecap:butt;stroke-linejoin:round;stroke-miterlimit:10;stroke-dasharray:none;stroke-opacity:1"
       id="path684" />
    <path
       d="m 56.291719,126.54957 h -2"
       style="fill:#000000;fill-opacity:1;fill-rule:nonzero;stroke:#000000;stroke-width:0.6;stroke-linecap:butt;stroke-linejoin:round;stroke-miterlimit:10;stroke-dasharray:none;stroke-opacity:1"
       id="path686" />
    <path
       d="m 56.291719,139.49934 h -2"
       style="fill:#000000;fill-opacity:1;fill-rule:nonzero;stroke:#000000;stroke-width:0.6;stroke-linecap:butt;stroke-linejoin:round;stroke-miterlimit:10;stroke-dasharray:none;stroke-opacity:1"
       id="path688" />
    <path
       d="m 56.291719,150.08008 h -2"
       style="fill:#000000;fill-opacity:1;fill-rule:nonzero;stroke:#000000;stroke-width:0.6;stroke-linecap:butt;stroke-linejoin:round;stroke-miterlimit:10;stroke-dasharray:none;stroke-opacity:1"
       id="path690" />
    <path
       d="m 56.291719,159.02596 h -2"
       style="fill:#000000;fill-opacity:1;fill-rule:nonzero;stroke:#000000;stroke-width:0.6;stroke-linecap:butt;stroke-linejoin:round;stroke-miterlimit:10;stroke-dasharray:none;stroke-opacity:1"
       id="path692" />
    <path
       d="m 56.291719,166.77524 h -2"
       style="fill:#000000;fill-opacity:1;fill-rule:nonzero;stroke:#000000;stroke-width:0.6;stroke-linecap:butt;stroke-linejoin:round;stroke-miterlimit:10;stroke-dasharray:none;stroke-opacity:1"
       id="path694" />
    <path
       d="m 56.291719,173.61058 h -2"
       style="fill:#000000;fill-opacity:1;fill-rule:nonzero;stroke:#000000;stroke-width:0.6;stroke-linecap:butt;stroke-linejoin:round;stroke-miterlimit:10;stroke-dasharray:none;stroke-opacity:1"
       id="path696" />
    <path
       d="m 56.291719,219.95068 h -2"
       style="fill:#000000;fill-opacity:1;fill-rule:nonzero;stroke:#000000;stroke-width:0.6;stroke-linecap:butt;stroke-linejoin:round;stroke-miterlimit:10;stroke-dasharray:none;stroke-opacity:1"
       id="path698" />
    <path
       d="m 56.291719,243.48119 h -2"
       style="fill:#000000;fill-opacity:1;fill-rule:nonzero;stroke:#000000;stroke-width:0.6;stroke-linecap:butt;stroke-linejoin:round;stroke-miterlimit:10;stroke-dasharray:none;stroke-opacity:1"
       id="path700" />
    <path
       d="m 56.291719,260.17635 h -2"
       style="fill:#000000;fill-opacity:1;fill-rule:nonzero;stroke:#000000;stroke-width:0.6;stroke-linecap:butt;stroke-linejoin:round;stroke-miterlimit:10;stroke-dasharray:none;stroke-opacity:1"
       id="path702" />
    <g
       id="g704"
       transform="rotate(90,-25.623672,44.837266)">
      <text
         xml:space="preserve"
         transform="scale(1,-1)"
         style="font-variant:normal;font-weight:normal;font-size:10px;font-family:'DejaVu Sans';-inkscape-font-specification:DejaVuSans;writing-mode:lr-tb;fill:#000000;fill-opacity:1;fill-rule:nonzero;stroke:none"
         id="text708"><tspan
           x="0 2.78 9.1199999 14.33 18.25 24.379999 30.73 33.509998 36.290001 39.07 42.990002 48.91 52.09 54.869999 61.209999 64.389999 68.309998 74.650002 80.800003 83.980003 86.760002 92.889999 98.099998 102.02 105.2 111.56 117.92 121.1 126.31 132.46001 137.96001 144.08 150.42 156.77"
           y="0"
           sodipodi:role="line"
           id="tspan706">instability in the last 10 seconds</tspan></text>
    </g>
    <g
       id="g710">
      <g
         id="g712"
         clip-path="url(#clipPath716)">
        <path
           d="m 57.480584,177.64257 1.188866,51.08597 1.188865,17.06168 1.188866,5.20638 1.188865,0.23067 1.188866,-19.09754 1.188865,-45.28561 1.188866,-54.29044 1.188865,-1.00174 1.188866,42.50846 1.188865,26.1908 1.188866,13.73045 1.188865,5.70193 1.188866,0.41773 1.188865,-2.89534 1.188866,-1.07726 1.188865,2.18481 1.188866,1.47779 1.188865,-0.71452 1.188866,-4.06682 1.188865,-7.56127 1.188866,-5.86642 1.188865,1.83985 1.188865,3.23857 1.188866,2.35203 1.188865,1.1107 1.188866,-0.20486 1.188865,-2.4044 1.188866,-1.56969 1.188865,-0.96688 1.188866,0.64558 2.377731,-2.51652 1.188865,-3.45297 2.377731,-7.98803 2.377734,-5.1002 1.18886,0.18592 1.18887,1.51589 1.18886,-0.16895 1.18887,-1.74984 1.18887,-3.07376 1.18886,-3.63243 2.37773,-6.45258 3.5666,-8.39711 2.37773,-5.8409 1.18886,-2.55692 2.37774,-3.86628 3.56659,-10.61633 1.18887,-3.1081 1.18886,-4.34302 2.37773,-3.37639 1.18887,-2.55378 1.18886,-3.28744 1.18887,-2.21925 1.18887,0.69274 1.18886,-2.29839 1.18887,0.002 2.37773,5.42498 1.18886,-2.60916 1.18887,1.62863 1.18886,-0.10319 1.18887,-1.8722 1.18886,-0.6633 1.18887,-1.50477 1.18887,-1.30269 1.18886,-1.10376 2.37773,-4.43123 1.18887,-1.44877 1.18886,-1.95189 1.18887,-2.17317 1.18886,-0.97874 1.18887,-1.17666 1.18886,-2.0306 1.18887,-0.76479 2.37773,-3.55974 1.18887,-2.748995 1.18886,-1.252742 1.18887,-1.819339 1.18886,-0.36957 1.18887,-0.815629 1.18886,0.637446 1.18887,-0.801703 1.18887,-1.085604 1.18886,-0.900364 1.18887,-0.241423 2.37773,-2.314937 1.18886,-0.256443 1.18887,-0.826363 1.18886,-1.525497 1.18887,-0.85789 1.18886,0.406735 1.18887,0.177144 1.18887,1.17016 1.18886,-0.204709 1.18887,-0.0014 1.18886,0.980276 1.18887,-0.162931 1.18886,-1.402986 1.18887,0.05854 1.18887,-0.64294 1.18886,-1.738766 1.18886,-0.293681 1.18887,0.690837 1.18887,-0.285737 1.18886,0.03709 1.18887,0.507993 1.18886,-0.371698 1.18887,-1.025581 1.18886,-0.306548 1.18887,1.081515 1.18886,0.723672 1.18887,0.178786 1.18887,-0.393468 1.18886,3.466754 1.18887,6.448737 1.18886,1.805723 2.37773,13.804606 1.18887,4.11411 1.18886,0.42627 1.18887,2.87177 1.18886,0.007 1.18887,-0.65164 1.18887,-0.92527 1.18886,0.29613 4.75546,-2.90843 1.18887,-1.84474 1.18886,-0.33265 1.18887,-2.3059 2.37773,-2.42559 3.5666,-3.37499 3.56659,-3.629064 1.18887,-0.895482 1.18886,0.231227 1.18887,-0.458727 1.18887,-1.106013 1.18886,-0.704817 1.18887,-0.349005 2.37773,-1.656617 1.18886,0.01366 1.18887,0.194628 1.18886,-0.599608 1.18887,-1.324215 1.18886,-0.816804 1.18887,-1.263085 1.18887,-1.680256 1.18886,0.353805 1.18887,1.786071 1.18886,0.904577 1.18887,-0.2219 1.18886,0.207651 1.18887,-1.932319 1.18886,-1.260541 1.18887,-0.48244 1.18887,0.0041 1.18886,-0.699774 1.18887,-0.507874 2.37773,-0.607685 1.18886,0.367638 1.18887,-0.525913 1.18886,0.593791 1.18887,-0.444061 2.37773,-0.6502 1.18887,0.98675 1.18886,-0.427768 2.37773,0.806003 1.18887,0.05765 1.18886,0.715108 1.18887,1.143579 1.18886,-0.279686 1.18887,-1.0697 2.37773,-1.187814 2.37773,-0.0043 1.18887,-0.362309 1.18886,0.282624 1.18887,-0.614101 1.18886,0.24986 1.18887,-0.259934 1.18886,0.658339 1.18887,-0.295329 1.18887,-0.08445 1.18886,-1.545944 1.18887,0.674244 2.37773,0.237985 2.37773,1.953614 1.18886,-1.044096 1.18887,-0.525582 1.18886,-0.710689 1.18887,-0.54577 1.18887,-1.385054 1.18886,0.578271 1.18887,0.264735 2.37773,1.599639 1.18886,0.193114 1.18887,-0.642347 1.18887,-0.285836 1.18886,-0.02632 1.18887,-0.725583 1.18886,0.217301 1.18887,0.0752 1.18886,-0.132773 1.18887,-0.614697 1.18886,1.472338 2.37773,1.36772 1.18887,1.451401 1.18886,0.576587 1.18887,0.829929 1.18887,-0.11377 1.18886,0.488711 1.18887,-0.519901 1.18886,0.0054 1.18887,-0.158908 1.18886,0.546876 1.18887,-0.535997 1.18886,-0.749993 1.18887,-0.479966 1.18887,-0.643852 1.18886,-1.135985 1.18887,-0.315938 2.37773,0.03167 1.18886,-1.396883 1.18887,0.808147 1.18886,7.849328 1.18887,1.622961 1.18886,5.206603 1.18887,6.07524 1.18887,3.95838 1.18886,-1.50469 1.18887,4.27163 1.18886,0.34667 1.18887,-0.64626 1.18886,0.36474 1.18887,0.59749 1.18886,-1.9944 1.18887,-0.32985 1.18886,0.50931 1.18887,-0.86823 1.18887,-1.62583 2.37773,-1.25835 1.18886,-1.51437 1.18887,-0.40699 1.18886,-1.03068 1.18887,-0.32438 1.18886,-1.1243 2.37774,-3.15855 1.18886,0.0841 1.18887,-0.17623 1.18886,-0.676211 1.18887,0.553541 1.18886,-0.814591 2.37773,-2.550507 1.18887,-1.805448 1.18887,-2.146446 1.18886,-0.593454 1.18887,0.201066 1.18886,-0.08498 2.37773,0.807427 2.37773,-1.322547 2.37773,-0.599803 1.18887,-1.233288 v 0"
           style="fill:none;stroke:#440154;stroke-width:1;stroke-linecap:square;stroke-linejoin:round;stroke-miterlimit:10;stroke-dasharray:none;stroke-opacity:1"
           id="path718" />
      </g>
    </g>
    <g
       id="g720">
      <g
         id="g722"
         clip-path="url(#clipPath726)">
        <path
           d="m 57.480584,177.64257 1.188866,51.08597 1.188865,17.06168 1.188866,5.20638 1.188865,0.23067 1.188866,-19.09754 1.188865,-45.28561 1.188866,-54.29044 1.188865,-1.00174 1.188866,42.50846 1.188865,26.1908 1.188866,13.73045 1.188865,5.70193 1.188866,0.41773 1.188865,-2.89534 1.188866,-1.07726 1.188865,2.18481 1.188866,1.47779 1.188865,-0.71452 1.188866,-4.06682 1.188865,-7.56127 1.188866,-5.86642 1.188865,1.83985 1.188865,3.23857 1.188866,2.35203 1.188865,1.1107 1.188866,-0.20486 1.188865,-2.4044 1.188866,-1.56969 1.188865,-0.96688 1.188866,0.64558 2.377731,-2.51652 1.188865,-3.45297 2.377731,-7.98803 2.377734,-5.1002 1.18886,0.18592 1.18887,1.51589 1.18886,-0.16895 1.18887,-1.74984 1.18887,-3.07376 1.18886,-3.63243 2.37773,-6.45258 3.5666,-8.39711 2.37773,-5.8409 1.18886,-2.55692 2.37774,-3.86628 3.56659,-10.61633 1.18887,-3.1081 1.18886,-4.34302 2.37773,-3.37639 1.18887,-2.55378 1.18886,-3.28744 1.18887,-2.21925 1.18887,0.69274 1.18886,-2.29839 1.18887,0.002 2.37773,5.42498 1.18886,-2.60916 1.18887,1.62863 1.18886,-0.10319 1.18887,-1.8722 1.18886,-0.6633 1.18887,-1.50477 1.18887,-1.30269 1.18886,-1.10376 2.37773,-4.43123 1.18887,-1.44877 1.18886,-1.95189 1.18887,-2.17317 1.18886,-0.97874 1.18887,-1.17666 1.18886,-2.0306 1.18887,-0.76479 2.37773,-3.55974 1.18887,-2.748995 1.18886,-1.252742 1.18887,-1.819339 1.18886,-0.36957 1.18887,-0.815629 1.18886,0.637446 1.18887,-0.801703 1.18887,-1.085604 1.18886,-0.900364 1.18887,-0.241423 2.37773,-2.314937 1.18886,-0.256443 1.18887,-0.826363 1.18886,-1.525497 1.18887,-0.85789 1.18886,0.406735 1.18887,0.177144 1.18887,1.17016 1.18886,-0.204709 1.18887,-0.0014 1.18886,0.980276 1.18887,-0.162931 1.18886,-1.402986 1.18887,0.05854 1.18887,-0.64294 1.18886,-1.738766 1.18886,-0.293681 1.18887,0.690837 1.18887,-0.285737 1.18886,0.03709 1.18887,0.507993 1.18886,-0.371698 1.18887,-1.025581 1.18886,-0.306548 1.18887,1.081515 1.18886,0.723672 1.18887,0.178786 1.18887,-0.393468 1.18886,3.466754 1.18887,6.448737 1.18886,1.805723 2.37773,13.804606 1.18887,4.11411 1.18886,0.42627 1.18887,2.87177 1.18886,0.007 1.18887,-0.65164 1.18887,-0.92527 1.18886,0.29613 4.75546,-2.90843 1.18887,-1.84474 1.18886,-0.33265 1.18887,-2.3059 2.37773,-2.42559 3.5666,-3.37499 3.56659,-3.629064 1.18887,-0.895482 1.18886,0.231227 1.18887,-0.458727 1.18887,-1.106013 1.18886,-0.704817 1.18887,-0.349005 2.37773,-1.656617 1.18886,0.01366 1.18887,0.194628 1.18886,-0.599608 1.18887,-1.324215 1.18886,-0.816804 1.18887,-1.263085 1.18887,-1.680256 1.18886,0.353805 1.18887,1.786071 1.18886,0.904577 1.18887,-0.2219 1.18886,0.207651 1.18887,-1.932319 1.18886,-1.260541 1.18887,-0.48244 1.18887,0.0041 1.18886,-0.699774 1.18887,-0.507874 2.37773,-0.607685 1.18886,0.367638 1.18887,-0.525913 1.18886,0.593791 1.18887,-0.444061 2.37773,-0.6502 1.18887,0.98675 1.18886,-0.427768 2.37773,0.806003 1.18887,0.05765 1.18886,0.715108 1.18887,1.143579 1.18886,-0.279686 1.18887,-1.0697 2.37773,-1.187814 2.37773,-0.0043 1.18887,-0.362309 1.18886,0.282624 1.18887,-0.614101 1.18886,0.24986 1.18887,-0.259934 1.18886,0.658339 1.18887,-0.295329 1.18887,-0.08445 1.18886,-1.545944 1.18887,0.674244 2.37773,0.237985 2.37773,1.953614 1.18886,-1.044096 1.18887,-0.525582 1.18886,-0.710689 1.18887,-0.54577 1.18887,-1.385054 1.18886,0.578271 1.18887,0.264735 2.37773,1.599639 1.18886,0.193114 1.18887,-0.642347 1.18887,-0.285836 1.18886,-0.02632 1.18887,-0.725583 1.18886,0.217301 1.18887,0.0752 1.18886,-0.132773 1.18887,-0.614697 1.18886,1.472338 2.37773,1.36772 1.18887,1.451401 1.18886,0.576587 1.18887,0.829929 1.18887,-0.11377 1.18886,0.488711 1.18887,-0.519901 1.18886,0.0054 1.18887,-0.158908 1.18886,0.546876 1.18887,-0.535997 1.18886,-0.749993 1.18887,-0.479966 1.18887,-0.643852 1.18886,-1.135985 1.18887,-0.315938 2.37773,0.03167 1.18886,-1.396883 1.18887,0.808147 1.18886,7.849328 1.18887,1.622961 1.18886,5.206603 1.18887,6.07524 1.18887,3.95838 1.18886,-1.50469 1.18887,4.27163 1.18886,0.34667 1.18887,-0.64626 1.18886,0.36474 1.18887,0.59749 1.18886,-1.9944 1.18887,-0.32985 1.18886,0.50931 1.18887,-0.86823 1.18887,-1.62583 2.37773,-1.25835 1.18886,-1.51437 1.18887,-0.40699 1.18886,-1.03068 1.18887,-0.32438 1.18886,-1.1243 2.37774,-3.15855 1.18886,0.0841 1.18887,-0.17623 1.18886,-0.676211 1.18887,0.553541 1.18886,-0.814591 2.37773,-2.550507 1.18887,-1.805448 1.18887,-2.146446 1.18886,-0.593454 1.18887,0.201066 1.18886,-0.08498 2.37773,0.807427 2.37773,-1.322547 2.37773,-0.599803 1.18887,-1.233288 v 0"
           style="fill:none;stroke:#440154;stroke-width:0.5;stroke-linecap:square;stroke-linejoin:round;stroke-miterlimit:10;stroke-dasharray:none;stroke-opacity:1"
           id="path728" />
      </g>
    </g>
    <g
       id="g730">
      <g
         id="g732"
         clip-path="url(#clipPath736)">
        <path
           d="m 57.480584,177.64257 1.188866,51.08597 1.188865,17.06168 1.188866,5.20638 1.188865,0.23067 1.188866,-19.09754 1.188865,-45.28561 1.188866,-54.29044 1.188865,-1.00174 1.188866,42.50846 1.188865,26.1908 1.188866,13.73045 1.188865,5.70193 1.188866,0.41773 1.188865,-2.89534 1.188866,-1.07726 1.188865,2.18481 1.188866,1.47779 1.188865,-0.71452 1.188866,-4.06682 1.188865,-7.56127 1.188866,-5.86642 1.188865,1.83985 1.188865,3.23857 1.188866,2.35203 1.188865,1.1107 1.188866,-0.20486 1.188865,-2.4044 1.188866,-1.56969 1.188865,-0.96688 1.188866,0.64558 2.377731,-2.51652 1.188865,-3.45297 2.377731,-7.98803 2.377734,-5.1002 1.18886,0.18592 1.18887,1.51589 1.18886,-0.16895 1.18887,-1.74984 1.18887,-3.07376 1.18886,-3.63243 2.37773,-6.45258 3.5666,-8.39711 2.37773,-5.8409 1.18886,-2.55692 2.37774,-3.86628 3.56659,-10.61633 1.18887,-3.1081 1.18886,-4.34302 2.37773,-3.37639 1.18887,-2.55378 1.18886,-3.28744 1.18887,-2.21925 1.18887,0.69274 1.18886,-2.29839 1.18887,0.002 2.37773,5.42498 1.18886,-2.60916 1.18887,1.62863 1.18886,-0.10319 1.18887,-1.8722 1.18886,-0.6633 1.18887,-1.50477 1.18887,-1.30269 1.18886,-1.10376 2.37773,-4.43123 1.18887,-1.44877 1.18886,-1.95189 1.18887,-2.17317 1.18886,-0.97874 1.18887,-1.17666 1.18886,-2.0306 1.18887,-0.76479 2.37773,-3.55974 1.18887,-2.748995 1.18886,-1.252742 1.18887,-1.819339 1.18886,-0.36957 1.18887,-0.815629 1.18886,0.637446 1.18887,-0.801703 1.18887,-1.085604 1.18886,-0.900364 1.18887,-0.241423 2.37773,-2.314937 1.18886,-0.256443 1.18887,-0.826363 1.18886,-1.525497 1.18887,-0.85789 1.18886,0.406735 1.18887,0.177144 1.18887,1.17016 1.18886,-0.204709 1.18887,-0.0014 1.18886,0.980276 1.18887,-0.162931 1.18886,-1.402986 1.18887,0.05854 1.18887,-0.64294 1.18886,-1.738766 1.18886,-0.293681 1.18887,0.690837 1.18887,-0.285737 1.18886,0.03709 1.18887,0.507993 1.18886,-0.371698 1.18887,-1.025581 1.18886,-0.306548 1.18887,1.081515 1.18886,0.723672 1.18887,0.178786 1.18887,-0.393468 1.18886,3.466754 1.18887,6.448737 1.18886,1.805723 2.37773,13.804606 1.18887,4.11411 1.18886,0.42627 1.18887,2.87177 1.18886,0.007 1.18887,-0.65164 1.18887,-0.92527 1.18886,0.29613 4.75546,-2.90843 1.18887,-1.84474 1.18886,-0.33265 1.18887,-2.3059 2.37773,-2.42559 3.5666,-3.37499 3.56659,-3.629064 1.18887,-0.895482 1.18886,0.231227 1.18887,-0.458727 1.18887,-1.106013 1.18886,-0.704817 1.18887,-0.349005 2.37773,-1.656617 1.18886,0.01366 1.18887,0.194628 1.18886,-0.599608 1.18887,-1.324215 1.18886,-0.816804 1.18887,-1.263085 1.18887,-1.680256 1.18886,0.353805 1.18887,1.786071 1.18886,0.904577 1.18887,-0.2219 1.18886,0.207651 1.18887,-1.932319 1.18886,-1.260541 1.18887,-0.48244 1.18887,0.0041 1.18886,-0.699774 1.18887,-0.507874 2.37773,-0.607685 1.18886,0.367638 1.18887,-0.525913 1.18886,0.593791 1.18887,-0.444061 2.37773,-0.6502 1.18887,0.98675 1.18886,-0.427768 2.37773,0.806003 1.18887,0.05765 1.18886,0.715108 1.18887,1.143579 1.18886,-0.279686 1.18887,-1.0697 2.37773,-1.187814 2.37773,-0.0043 1.18887,-0.362309 1.18886,0.282624 1.18887,-0.614101 1.18886,0.24986 1.18887,-0.259934 1.18886,0.658339 1.18887,-0.295329 1.18887,-0.08445 1.18886,-1.545944 1.18887,0.674244 2.37773,0.237985 2.37773,1.953614 1.18886,-1.044096 1.18887,-0.525582 1.18886,-0.710689 1.18887,-0.54577 1.18887,-1.385054 1.18886,0.578271 1.18887,0.264735 2.37773,1.599639 1.18886,0.193114 1.18887,-0.642347 1.18887,-0.285836 1.18886,-0.02632 1.18887,-0.725583 1.18886,0.217301 1.18887,0.0752 1.18886,-0.132773 1.18887,-0.614697 1.18886,1.472338 2.37773,1.36772 1.18887,1.451401 1.18886,0.576587 1.18887,0.829929 1.18887,-0.11377 1.18886,0.488711 1.18887,-0.519901 1.18886,0.0054 1.18887,-0.158908 1.18886,0.546876 1.18887,-0.535997 1.18886,-0.749993 1.18887,-0.479966 1.18887,-0.643852 1.18886,-1.135985 1.18887,-0.315938 2.37773,0.03167 1.18886,-1.396883 1.18887,0.808147 1.18886,7.849328 1.18887,1.622961 1.18886,5.206603 1.18887,6.07524 1.18887,3.95838 1.18886,-1.50469 1.18887,4.27163 1.18886,0.34667 1.18887,-0.64626 1.18886,0.36474 1.18887,0.59749 1.18886,-1.9944 1.18887,-0.32985 1.18886,0.50931 1.18887,-0.86823 1.18887,-1.62583 2.37773,-1.25835 1.18886,-1.51437 1.18887,-0.40699 1.18886,-1.03068 1.18887,-0.32438 1.18886,-1.1243 2.37774,-3.15855 1.18886,0.0841 1.18887,-0.17623 1.18886,-0.676211 1.18887,0.553541 1.18886,-0.814591 2.37773,-2.550507 1.18887,-1.805448 1.18887,-2.146446 1.18886,-0.593454 1.18887,0.201066 1.18886,-0.08498 2.37773,0.807427 2.37773,-1.322547 2.37773,-0.599803 1.18887,-1.233288 v 0"
           style="fill:none;stroke:#440154;stroke-width:0.5;stroke-linecap:square;stroke-linejoin:round;stroke-miterlimit:10;stroke-dasharray:none;stroke-opacity:1"
           id="path738" />
      </g>
    </g>
    <g
       id="g740">
      <g
         id="g742"
         clip-path="url(#clipPath746)">
        <path
           d="m 57.480584,92.169924 1.188866,29.762116 1.188865,14.65821 1.188866,11.01545 1.188865,9.08692 1.188866,-8.02886 1.188865,17.99153 1.188866,29.12463 1.188865,16.25988 1.188866,7.38992 1.188865,2.80438 1.188866,-5.04122 1.188865,-16.18713 1.188866,-18.17114 1.188865,-13.20537 3.566597,-30.06737 3.566596,-29.93369 1.188866,-6.65111 1.188865,-3.944989 1.188865,-4.374386 1.188866,-2.181068 1.188865,0.533181 1.188866,0.288311 1.188865,0.980442 1.188866,2.497972 1.188865,1.620334 2.377731,1.943793 1.188866,0.71803 1.188865,0.48116 1.188866,1.12078 1.188865,0.60759 1.188864,-0.0826 2.37773,-0.53909 1.18887,-1.03939 1.18886,0.81038 1.18887,1.28097 1.18887,0.91503 2.37773,-0.0115 2.37773,-2.71214 1.18886,-0.0934 1.18887,-0.2324 1.18886,0.5951 1.18887,0.43964 1.18886,0.76251 1.18887,-0.44035 1.18887,0.66141 1.18886,-0.15476 1.18887,-0.67291 1.18886,-0.23401 2.37773,2.06135 1.18887,0.91369 1.18886,1.56689 1.18887,-0.0301 1.18886,-0.68499 2.37774,-2.41127 1.18886,-0.37624 2.37773,0.8216 2.37773,-0.80668 1.18887,-1.37098 1.18886,-1.07411 1.18887,-1.66138 1.18886,-0.195987 1.18887,0.174244 2.37773,2.507833 1.18887,1.26323 1.18886,-0.33346 1.18887,-0.15447 3.56659,-4.035425 1.18887,0.327229 1.18886,0.120943 1.18887,1.495933 1.18887,0.0863 1.18886,1.00788 1.18887,0.60318 1.18886,0.47072 1.18887,0.31458 1.18886,1.89094 3.5666,1.24388 1.18887,-0.30106 1.18886,-1.49557 1.18887,0.0797 1.18886,-0.60707 1.18887,0.14919 1.18886,0.3025 1.18887,0.95093 1.18886,-0.64581 1.18887,-0.78967 1.18886,-1.31119 1.18887,-1.74124 1.18887,-1.32909 1.18886,-1.080044 1.18887,0.311302 1.18886,-0.04868 1.18887,0.527459 2.37773,1.793103 1.18887,-0.54282 1.18886,0.77406 2.37773,-0.40864 1.18887,-0.75693 2.37773,-2.209447 1.18886,-0.763522 1.18887,-1.96319 1.18886,-0.74305 1.18887,1.318268 1.18886,0.746951 1.18887,1.722368 1.18887,1.373088 1.18886,1.004424 1.18887,0.27998 1.18886,0.0681 1.18887,-0.85775 1.18886,0.24975 1.18887,0.77292 3.56659,0.88892 1.18887,0.0175 1.18887,0.2536 1.18886,-0.37314 1.18887,-0.9351 1.18886,0.10031 1.18887,-0.13602 1.18886,-0.72112 2.37773,2.41414 1.18887,-0.40364 1.18887,-0.21437 1.18886,-0.73887 1.18887,-0.23131 1.18886,-0.37224 1.18887,0.81735 1.18886,0.42197 1.18887,0.28362 1.18886,-0.83067 2.37773,-2.789813 1.18887,-1.039418 1.18887,-0.333584 1.18886,-0.449382 2.37773,-0.197103 2.37773,0.990722 1.18887,0.578213 1.18886,1.06124 1.18887,1.297025 1.18886,1.01824 1.18887,0.36918 2.37773,1.98902 1.18887,0.31759 1.18886,0.006 1.18887,0.12127 1.18886,-1.0084 3.5666,-1.79499 1.18887,-1.17823 1.18886,-1.381464 1.18887,-0.638974 1.18886,0.152831 1.18887,-0.531389 1.18886,0.54071 1.18887,1.352901 2.37773,-0.880701 1.18887,0.02542 1.18886,-0.128346 1.18887,-0.572323 1.18886,0.561905 1.18887,-0.905441 1.18886,0.349381 1.18887,0.862055 1.18886,0.195453 1.18887,0.07227 1.18886,-0.52858 1.18887,-1.523734 1.18887,-0.480598 1.18886,-0.294133 1.18887,0.523599 1.18886,2.372187 1.18887,2.037411 1.18886,-1.00358 2.37773,-0.11146 1.18887,-0.785133 1.18886,-1.368492 1.18887,0.157676 2.37773,-0.323991 1.18887,-0.898331 1.18886,0.09403 1.18887,0.262238 2.37773,-0.563909 1.18886,0.62544 1.18887,0.467629 1.18886,0.850159 1.18887,-0.288589 1.18887,-0.105827 1.18886,-1.055982 2.37773,-0.700018 1.18887,2.021945 1.18886,0.808885 1.18887,2.27659 1.18887,0.39309 1.18886,0.0807 1.18887,0.39207 1.18886,0.52261 1.18887,-0.85804 1.18886,-0.44589 2.37773,-3.141055 1.18887,-0.653356 1.18886,0.63714 1.18887,1.074277 1.18886,0.816404 1.18887,1.25671 1.18887,0.0636 1.18886,-0.29449 1.18887,-0.41016 1.18886,-0.78748 1.18887,-0.22197 1.18886,0.0767 1.18887,-0.646215 1.18886,-0.147254 1.18887,-0.769717 1.18887,-1.394903 2.37773,-0.779929 1.18886,-0.769836 1.18887,1.535527 1.18886,0.48804 2.37773,-0.356468 2.37773,-1.016427 1.18887,0.332805 1.18887,0.492685 1.18886,1.02204 1.18887,1.695382 1.18886,1.20595 1.18887,0.70185 1.18886,0.0932 1.18887,-0.27663 1.18886,-0.011 1.18887,-1.42611 1.18886,-0.933521 2.37774,-0.563239 1.18886,-0.867578 1.18887,0.33504 1.18886,-1.259937 1.18887,-0.05972 1.18886,0.155137 1.18887,0.376568 1.18886,0.598409 1.18887,2.070891 1.18887,0.40343 1.18886,0.16485 1.18887,-1.313749 2.37773,-1.560281 1.18886,-1.093959 1.18887,-0.539681 2.37773,2.153744 1.18887,0.05828 2.37773,1.154604 1.18886,0.588592 1.18887,0.90078 1.18886,1.46622 1.18887,1.10514 1.18886,-0.0853 1.18887,-0.33154 1.18886,-1.15694 1.18887,-1.5906 v 0"
           style="fill:none;stroke:#21918c;stroke-width:1;stroke-linecap:square;stroke-linejoin:round;stroke-miterlimit:10;stroke-dasharray:none;stroke-opacity:1"
           id="path748" />
      </g>
    </g>
    <g
       id="g750">
      <g
         id="g752"
         clip-path="url(#clipPath756)">
        <path
           d="m 57.480584,92.169924 1.188866,29.762116 1.188865,14.65821 1.188866,11.01545 1.188865,9.08692 1.188866,-8.02886 1.188865,17.99153 1.188866,29.12463 1.188865,16.25988 1.188866,7.38992 1.188865,2.80438 1.188866,-5.04122 1.188865,-16.18713 1.188866,-18.17114 1.188865,-13.20537 3.566597,-30.06737 3.566596,-29.93369 1.188866,-6.65111 1.188865,-3.944989 1.188865,-4.374386 1.188866,-2.181068 1.188865,0.533181 1.188866,0.288311 1.188865,0.980442 1.188866,2.497972 1.188865,1.620334 2.377731,1.943793 1.188866,0.71803 1.188865,0.48116 1.188866,1.12078 1.188865,0.60759 1.188864,-0.0826 2.37773,-0.53909 1.18887,-1.03939 1.18886,0.81038 1.18887,1.28097 1.18887,0.91503 2.37773,-0.0115 2.37773,-2.71214 1.18886,-0.0934 1.18887,-0.2324 1.18886,0.5951 1.18887,0.43964 1.18886,0.76251 1.18887,-0.44035 1.18887,0.66141 1.18886,-0.15476 1.18887,-0.67291 1.18886,-0.23401 2.37773,2.06135 1.18887,0.91369 1.18886,1.56689 1.18887,-0.0301 1.18886,-0.68499 2.37774,-2.41127 1.18886,-0.37624 2.37773,0.8216 2.37773,-0.80668 1.18887,-1.37098 1.18886,-1.07411 1.18887,-1.66138 1.18886,-0.195987 1.18887,0.174244 2.37773,2.507833 1.18887,1.26323 1.18886,-0.33346 1.18887,-0.15447 3.56659,-4.035425 1.18887,0.327229 1.18886,0.120943 1.18887,1.495933 1.18887,0.0863 1.18886,1.00788 1.18887,0.60318 1.18886,0.47072 1.18887,0.31458 1.18886,1.89094 3.5666,1.24388 1.18887,-0.30106 1.18886,-1.49557 1.18887,0.0797 1.18886,-0.60707 1.18887,0.14919 1.18886,0.3025 1.18887,0.95093 1.18886,-0.64581 1.18887,-0.78967 1.18886,-1.31119 1.18887,-1.74124 1.18887,-1.32909 1.18886,-1.080044 1.18887,0.311302 1.18886,-0.04868 1.18887,0.527459 2.37773,1.793103 1.18887,-0.54282 1.18886,0.77406 2.37773,-0.40864 1.18887,-0.75693 2.37773,-2.209447 1.18886,-0.763522 1.18887,-1.96319 1.18886,-0.74305 1.18887,1.318268 1.18886,0.746951 1.18887,1.722368 1.18887,1.373088 1.18886,1.004424 1.18887,0.27998 1.18886,0.0681 1.18887,-0.85775 1.18886,0.24975 1.18887,0.77292 3.56659,0.88892 1.18887,0.0175 1.18887,0.2536 1.18886,-0.37314 1.18887,-0.9351 1.18886,0.10031 1.18887,-0.13602 1.18886,-0.72112 2.37773,2.41414 1.18887,-0.40364 1.18887,-0.21437 1.18886,-0.73887 1.18887,-0.23131 1.18886,-0.37224 1.18887,0.81735 1.18886,0.42197 1.18887,0.28362 1.18886,-0.83067 2.37773,-2.789813 1.18887,-1.039418 1.18887,-0.333584 1.18886,-0.449382 2.37773,-0.197103 2.37773,0.990722 1.18887,0.578213 1.18886,1.06124 1.18887,1.297025 1.18886,1.01824 1.18887,0.36918 2.37773,1.98902 1.18887,0.31759 1.18886,0.006 1.18887,0.12127 1.18886,-1.0084 3.5666,-1.79499 1.18887,-1.17823 1.18886,-1.381464 1.18887,-0.638974 1.18886,0.152831 1.18887,-0.531389 1.18886,0.54071 1.18887,1.352901 2.37773,-0.880701 1.18887,0.02542 1.18886,-0.128346 1.18887,-0.572323 1.18886,0.561905 1.18887,-0.905441 1.18886,0.349381 1.18887,0.862055 1.18886,0.195453 1.18887,0.07227 1.18886,-0.52858 1.18887,-1.523734 1.18887,-0.480598 1.18886,-0.294133 1.18887,0.523599 1.18886,2.372187 1.18887,2.037411 1.18886,-1.00358 2.37773,-0.11146 1.18887,-0.785133 1.18886,-1.368492 1.18887,0.157676 2.37773,-0.323991 1.18887,-0.898331 1.18886,0.09403 1.18887,0.262238 2.37773,-0.563909 1.18886,0.62544 1.18887,0.467629 1.18886,0.850159 1.18887,-0.288589 1.18887,-0.105827 1.18886,-1.055982 2.37773,-0.700018 1.18887,2.021945 1.18886,0.808885 1.18887,2.27659 1.18887,0.39309 1.18886,0.0807 1.18887,0.39207 1.18886,0.52261 1.18887,-0.85804 1.18886,-0.44589 2.37773,-3.141055 1.18887,-0.653356 1.18886,0.63714 1.18887,1.074277 1.18886,0.816404 1.18887,1.25671 1.18887,0.0636 1.18886,-0.29449 1.18887,-0.41016 1.18886,-0.78748 1.18887,-0.22197 1.18886,0.0767 1.18887,-0.646215 1.18886,-0.147254 1.18887,-0.769717 1.18887,-1.394903 2.37773,-0.779929 1.18886,-0.769836 1.18887,1.535527 1.18886,0.48804 2.37773,-0.356468 2.37773,-1.016427 1.18887,0.332805 1.18887,0.492685 1.18886,1.02204 1.18887,1.695382 1.18886,1.20595 1.18887,0.70185 1.18886,0.0932 1.18887,-0.27663 1.18886,-0.011 1.18887,-1.42611 1.18886,-0.933521 2.37774,-0.563239 1.18886,-0.867578 1.18887,0.33504 1.18886,-1.259937 1.18887,-0.05972 1.18886,0.155137 1.18887,0.376568 1.18886,0.598409 1.18887,2.070891 1.18887,0.40343 1.18886,0.16485 1.18887,-1.313749 2.37773,-1.560281 1.18886,-1.093959 1.18887,-0.539681 2.37773,2.153744 1.18887,0.05828 2.37773,1.154604 1.18886,0.588592 1.18887,0.90078 1.18886,1.46622 1.18887,1.10514 1.18886,-0.0853 1.18887,-0.33154 1.18886,-1.15694 1.18887,-1.5906 v 0"
           style="fill:none;stroke:#21918c;stroke-width:0.5;stroke-linecap:square;stroke-linejoin:round;stroke-miterlimit:10;stroke-dasharray:none;stroke-opacity:1"
           id="path758" />
      </g>
    </g>
    <g
       id="g760">
      <g
         id="g762"
         clip-path="url(#clipPath766)">
        <path
           d="m 57.480584,92.169924 1.188866,29.762116 1.188865,14.65821 1.188866,11.01545 1.188865,9.08692 1.188866,-8.02886 1.188865,17.99153 1.188866,29.12463 1.188865,16.25988 1.188866,7.38992 1.188865,2.80438 1.188866,-5.04122 1.188865,-16.18713 1.188866,-18.17114 1.188865,-13.20537 3.566597,-30.06737 3.566596,-29.93369 1.188866,-6.65111 1.188865,-3.944989 1.188865,-4.374386 1.188866,-2.181068 1.188865,0.533181 1.188866,0.288311 1.188865,0.980442 1.188866,2.497972 1.188865,1.620334 2.377731,1.943793 1.188866,0.71803 1.188865,0.48116 1.188866,1.12078 1.188865,0.60759 1.188864,-0.0826 2.37773,-0.53909 1.18887,-1.03939 1.18886,0.81038 1.18887,1.28097 1.18887,0.91503 2.37773,-0.0115 2.37773,-2.71214 1.18886,-0.0934 1.18887,-0.2324 1.18886,0.5951 1.18887,0.43964 1.18886,0.76251 1.18887,-0.44035 1.18887,0.66141 1.18886,-0.15476 1.18887,-0.67291 1.18886,-0.23401 2.37773,2.06135 1.18887,0.91369 1.18886,1.56689 1.18887,-0.0301 1.18886,-0.68499 2.37774,-2.41127 1.18886,-0.37624 2.37773,0.8216 2.37773,-0.80668 1.18887,-1.37098 1.18886,-1.07411 1.18887,-1.66138 1.18886,-0.195987 1.18887,0.174244 2.37773,2.507833 1.18887,1.26323 1.18886,-0.33346 1.18887,-0.15447 3.56659,-4.035425 1.18887,0.327229 1.18886,0.120943 1.18887,1.495933 1.18887,0.0863 1.18886,1.00788 1.18887,0.60318 1.18886,0.47072 1.18887,0.31458 1.18886,1.89094 3.5666,1.24388 1.18887,-0.30106 1.18886,-1.49557 1.18887,0.0797 1.18886,-0.60707 1.18887,0.14919 1.18886,0.3025 1.18887,0.95093 1.18886,-0.64581 1.18887,-0.78967 1.18886,-1.31119 1.18887,-1.74124 1.18887,-1.32909 1.18886,-1.080044 1.18887,0.311302 1.18886,-0.04868 1.18887,0.527459 2.37773,1.793103 1.18887,-0.54282 1.18886,0.77406 2.37773,-0.40864 1.18887,-0.75693 2.37773,-2.209447 1.18886,-0.763522 1.18887,-1.96319 1.18886,-0.74305 1.18887,1.318268 1.18886,0.746951 1.18887,1.722368 1.18887,1.373088 1.18886,1.004424 1.18887,0.27998 1.18886,0.0681 1.18887,-0.85775 1.18886,0.24975 1.18887,0.77292 3.56659,0.88892 1.18887,0.0175 1.18887,0.2536 1.18886,-0.37314 1.18887,-0.9351 1.18886,0.10031 1.18887,-0.13602 1.18886,-0.72112 2.37773,2.41414 1.18887,-0.40364 1.18887,-0.21437 1.18886,-0.73887 1.18887,-0.23131 1.18886,-0.37224 1.18887,0.81735 1.18886,0.42197 1.18887,0.28362 1.18886,-0.83067 2.37773,-2.789813 1.18887,-1.039418 1.18887,-0.333584 1.18886,-0.449382 2.37773,-0.197103 2.37773,0.990722 1.18887,0.578213 1.18886,1.06124 1.18887,1.297025 1.18886,1.01824 1.18887,0.36918 2.37773,1.98902 1.18887,0.31759 1.18886,0.006 1.18887,0.12127 1.18886,-1.0084 3.5666,-1.79499 1.18887,-1.17823 1.18886,-1.381464 1.18887,-0.638974 1.18886,0.152831 1.18887,-0.531389 1.18886,0.54071 1.18887,1.352901 2.37773,-0.880701 1.18887,0.02542 1.18886,-0.128346 1.18887,-0.572323 1.18886,0.561905 1.18887,-0.905441 1.18886,0.349381 1.18887,0.862055 1.18886,0.195453 1.18887,0.07227 1.18886,-0.52858 1.18887,-1.523734 1.18887,-0.480598 1.18886,-0.294133 1.18887,0.523599 1.18886,2.372187 1.18887,2.037411 1.18886,-1.00358 2.37773,-0.11146 1.18887,-0.785133 1.18886,-1.368492 1.18887,0.157676 2.37773,-0.323991 1.18887,-0.898331 1.18886,0.09403 1.18887,0.262238 2.37773,-0.563909 1.18886,0.62544 1.18887,0.467629 1.18886,0.850159 1.18887,-0.288589 1.18887,-0.105827 1.18886,-1.055982 2.37773,-0.700018 1.18887,2.021945 1.18886,0.808885 1.18887,2.27659 1.18887,0.39309 1.18886,0.0807 1.18887,0.39207 1.18886,0.52261 1.18887,-0.85804 1.18886,-0.44589 2.37773,-3.141055 1.18887,-0.653356 1.18886,0.63714 1.18887,1.074277 1.18886,0.816404 1.18887,1.25671 1.18887,0.0636 1.18886,-0.29449 1.18887,-0.41016 1.18886,-0.78748 1.18887,-0.22197 1.18886,0.0767 1.18887,-0.646215 1.18886,-0.147254 1.18887,-0.769717 1.18887,-1.394903 2.37773,-0.779929 1.18886,-0.769836 1.18887,1.535527 1.18886,0.48804 2.37773,-0.356468 2.37773,-1.016427 1.18887,0.332805 1.18887,0.492685 1.18886,1.02204 1.18887,1.695382 1.18886,1.20595 1.18887,0.70185 1.18886,0.0932 1.18887,-0.27663 1.18886,-0.011 1.18887,-1.42611 1.18886,-0.933521 2.37774,-0.563239 1.18886,-0.867578 1.18887,0.33504 1.18886,-1.259937 1.18887,-0.05972 1.18886,0.155137 1.18887,0.376568 1.18886,0.598409 1.18887,2.070891 1.18887,0.40343 1.18886,0.16485 1.18887,-1.313749 2.37773,-1.560281 1.18886,-1.093959 1.18887,-0.539681 2.37773,2.153744 1.18887,0.05828 2.37773,1.154604 1.18886,0.588592 1.18887,0.90078 1.18886,1.46622 1.18887,1.10514 1.18886,-0.0853 1.18887,-0.33154 1.18886,-1.15694 1.18887,-1.5906 v 0"
           style="fill:none;stroke:#21918c;stroke-width:0.5;stroke-linecap:square;stroke-linejoin:round;stroke-miterlimit:10;stroke-dasharray:none;stroke-opacity:1"
           id="path768" />
      </g>
    </g>
    <g
       id="g770">
      <g
         id="g772"
         clip-path="url(#clipPath776)">
        <path
           d="m 57.480584,150.42157 1.188866,27.16802 1.188865,10.97321 1.188866,16.84635 1.188865,12.06312 1.188866,-11.82724 1.188865,-5.32697 1.188866,0.78308 1.188865,-8.51643 1.188866,-9.42484 2.377731,-10.53666 4.755462,-27.42283 2.377731,-16.08991 3.566596,-25.42792 1.188866,-9.220348 2.37773,-14.77327 1.188866,-6.03029 1.188865,-6.6102 1.188866,-4.136782 1.188865,-3.549945 1.188866,-3.081146 1.188865,-2.1639 1.188866,-0.810542 1.188865,-0.562928 1.188866,-0.962664 1.188865,-0.0078 1.188866,0.965353 1.188865,0.724997 1.188864,0.179213 1.18887,2.001434 1.18886,1.52586 1.18887,0.316929 2.37773,-0.442761 1.18887,-0.784861 1.18886,-0.607863 1.18887,-0.752242 1.18886,-0.0148 1.18887,0.667142 2.37773,1.544889 2.37773,0.05696 1.18886,-0.797804 1.18887,-0.655478 1.18887,-0.791048 1.18886,1.590654 1.18887,0.549201 1.18886,0.851661 1.18887,1.090405 1.18886,0.589966 1.18887,-0.843337 1.18886,-0.09935 1.18887,-0.257242 1.18886,0.23874 1.18887,-0.166783 1.18887,-0.358347 2.37773,-0.311272 1.18886,-0.416856 1.18887,-0.636926 1.18886,-0.0072 1.18887,-0.225094 1.18886,0.237042 1.18887,0.447494 1.18886,0.269681 1.18887,0.799276 1.18887,-0.172517 1.18886,-0.527718 1.18887,0.120037 1.18886,-1.693863 1.18887,-0.632868 1.18886,0.09782 1.18887,-0.409473 h 1.18886 l 1.18887,0.975988 1.18886,0.55385 1.18887,-0.153584 1.18887,0.05284 1.18886,-0.441009 1.18887,-1.323696 1.18886,-0.417276 1.18887,0.0822 1.18886,-0.112123 1.18887,0.303476 1.18886,1.641329 1.18887,0.568806 1.18887,0.25261 1.18886,-0.238282 1.18887,0.162138 1.18886,-0.885327 1.18887,-0.475805 1.18886,0.10472 1.18887,0.436325 1.18886,-0.227449 4.75547,2.674582 1.18886,0.221837 1.18887,0.454878 1.18886,0.580623 1.18887,-0.457182 1.18886,-0.652171 1.18887,0.425661 1.18887,0.299537 1.18886,0.1617 1.18886,0.547788 2.37774,0.271967 1.18886,-0.681188 1.18887,-0.334487 1.18886,-0.536459 1.18887,0.204623 1.18886,0.395696 1.18887,1.903713 1.18886,1.343183 1.18887,0.662242 1.18887,-0.505107 1.18886,0.143846 2.37773,-2.049258 1.18887,0.918998 1.18886,1.188128 1.18887,-0.160885 1.18886,0.378975 1.18887,-0.387568 3.5666,-0.275653 1.18886,0.08844 1.18887,0.386675 1.18886,-1.124168 1.18887,-0.775738 1.18886,0.379275 1.18887,-0.565408 1.18886,-0.0044 1.18887,0.203844 1.18887,-0.13286 1.18886,-0.29114 1.18887,-0.963782 1.18886,0.550126 1.18887,-0.242855 1.18886,0.513742 1.18887,0.122713 1.18886,1.254527 1.18887,0.01963 1.18886,0.620266 1.18887,0.34842 1.18887,0.0021 1.18886,-0.718455 1.18887,-0.149988 1.18886,0.100035 1.18887,-0.232957 1.18886,0.154683 1.18887,0.930246 1.18886,0.215853 1.18887,-0.926765 1.18886,-0.25851 1.18887,-0.494146 1.18887,-1.173373 1.18886,-0.919194 1.18887,0.827254 1.18886,0.322272 1.18887,0.444651 2.37773,1.454437 2.37773,-0.535973 1.18887,-0.05234 1.18886,-0.449033 1.18887,-0.658999 1.18886,0.108874 2.37773,1.212597 1.18887,0.26678 1.18886,0.116737 1.18887,-0.121065 1.18887,-0.388678 1.18886,-0.262032 1.18887,0.390432 1.18886,0.117269 1.18887,0.65151 1.18886,1.285676 1.18887,0.05453 1.18886,0.637942 2.37773,1.582994 1.18887,-0.630881 1.18887,-0.114332 1.18886,-0.771471 1.18887,-0.367729 1.18886,-1.775493 1.18887,-1.174361 1.18886,-0.921693 1.18887,-0.151698 1.18886,0.100433 1.18887,0.45534 1.18886,1.795035 1.18887,0.393361 1.18887,-0.269079 1.18886,-0.10498 1.18887,0.410268 1.18886,-0.487517 1.18887,0.346814 1.18886,0.946338 1.18887,-0.126132 1.18886,-0.790331 1.18887,-0.02561 1.18886,-0.639528 1.18887,-0.461471 1.18887,0.139044 1.18886,1.57762 1.18887,0.362092 1.18886,1.128511 1.18887,0.371346 1.18886,-0.49497 1.18887,-0.22526 1.18887,-0.513712 1.18886,-0.158984 1.18887,-0.750569 1.18886,-0.389637 1.18887,-1.008515 1.18886,-1.210285 1.18887,-0.6585 1.18886,0.970621 1.18887,0.822032 1.18886,1.133762 1.18887,1.398208 1.18886,0.378001 1.18887,0.08895 1.18887,-1.422869 2.37773,-1.480359 1.18886,-0.05435 1.18887,-0.281266 1.18886,0.259512 2.37773,-1.116019 2.37774,-0.954963 1.18886,0.276698 1.18887,0.662736 1.18886,1.096723 1.18887,0.338654 1.18886,0.581501 2.37773,0.198954 1.18887,-0.476056 1.18886,0.176296 1.18887,-1.10089 1.18887,-0.148961 1.18886,0.369508 1.18887,-0.183367 1.18886,-0.32669 1.18887,0.164671 1.18886,0.528175 1.18887,0.288244 1.18886,0.477963 1.18887,1.171659 1.18886,1.507876 1.18887,0.06139 1.18887,-0.291152 1.18886,0.01439 1.18887,0.217423 h 1.18886 l 1.18887,0.531906 1.18886,0.255047 1.18887,0.612776 1.18886,-0.600658 1.18887,0.338258 2.37773,1.202056 2.37773,0.526574 1.18887,0.196483 1.18886,-1.32594 1.18887,-0.891006 2.37773,-2.25045 1.18887,-0.868536 1.18886,0.246454 1.18887,0.401426 1.18886,0.275165 1.18887,0.411356 1.18886,-0.442797 1.18887,-0.787371 1.18886,-0.242791 1.18887,-0.903362 1.18886,-0.210647 1.18887,0.349214 v 0"
           style="fill:none;stroke:#fde725;stroke-width:1;stroke-linecap:square;stroke-linejoin:round;stroke-miterlimit:10;stroke-dasharray:none;stroke-opacity:1"
           id="path778" />
      </g>
    </g>
    <g
       id="g780">
      <g
         id="g782"
         clip-path="url(#clipPath786)">
        <path
           d="m 57.480584,150.42157 1.188866,27.16802 1.188865,10.97321 1.188866,16.84635 1.188865,12.06312 1.188866,-11.82724 1.188865,-5.32697 1.188866,0.78308 1.188865,-8.51643 1.188866,-9.42484 2.377731,-10.53666 4.755462,-27.42283 2.377731,-16.08991 3.566596,-25.42792 1.188866,-9.220348 2.37773,-14.77327 1.188866,-6.03029 1.188865,-6.6102 1.188866,-4.136782 1.188865,-3.549945 1.188866,-3.081146 1.188865,-2.1639 1.188866,-0.810542 1.188865,-0.562928 1.188866,-0.962664 1.188865,-0.0078 1.188866,0.965353 1.188865,0.724997 1.188864,0.179213 1.18887,2.001434 1.18886,1.52586 1.18887,0.316929 2.37773,-0.442761 1.18887,-0.784861 1.18886,-0.607863 1.18887,-0.752242 1.18886,-0.0148 1.18887,0.667142 2.37773,1.544889 2.37773,0.05696 1.18886,-0.797804 1.18887,-0.655478 1.18887,-0.791048 1.18886,1.590654 1.18887,0.549201 1.18886,0.851661 1.18887,1.090405 1.18886,0.589966 1.18887,-0.843337 1.18886,-0.09935 1.18887,-0.257242 1.18886,0.23874 1.18887,-0.166783 1.18887,-0.358347 2.37773,-0.311272 1.18886,-0.416856 1.18887,-0.636926 1.18886,-0.0072 1.18887,-0.225094 1.18886,0.237042 1.18887,0.447494 1.18886,0.269681 1.18887,0.799276 1.18887,-0.172517 1.18886,-0.527718 1.18887,0.120037 1.18886,-1.693863 1.18887,-0.632868 1.18886,0.09782 1.18887,-0.409473 h 1.18886 l 1.18887,0.975988 1.18886,0.55385 1.18887,-0.153584 1.18887,0.05284 1.18886,-0.441009 1.18887,-1.323696 1.18886,-0.417276 1.18887,0.0822 1.18886,-0.112123 1.18887,0.303476 1.18886,1.641329 1.18887,0.568806 1.18887,0.25261 1.18886,-0.238282 1.18887,0.162138 1.18886,-0.885327 1.18887,-0.475805 1.18886,0.10472 1.18887,0.436325 1.18886,-0.227449 4.75547,2.674582 1.18886,0.221837 1.18887,0.454878 1.18886,0.580623 1.18887,-0.457182 1.18886,-0.652171 1.18887,0.425661 1.18887,0.299537 1.18886,0.1617 1.18886,0.547788 2.37774,0.271967 1.18886,-0.681188 1.18887,-0.334487 1.18886,-0.536459 1.18887,0.204623 1.18886,0.395696 1.18887,1.903713 1.18886,1.343183 1.18887,0.662242 1.18887,-0.505107 1.18886,0.143846 2.37773,-2.049258 1.18887,0.918998 1.18886,1.188128 1.18887,-0.160885 1.18886,0.378975 1.18887,-0.387568 3.5666,-0.275653 1.18886,0.08844 1.18887,0.386675 1.18886,-1.124168 1.18887,-0.775738 1.18886,0.379275 1.18887,-0.565408 1.18886,-0.0044 1.18887,0.203844 1.18887,-0.13286 1.18886,-0.29114 1.18887,-0.963782 1.18886,0.550126 1.18887,-0.242855 1.18886,0.513742 1.18887,0.122713 1.18886,1.254527 1.18887,0.01963 1.18886,0.620266 1.18887,0.34842 1.18887,0.0021 1.18886,-0.718455 1.18887,-0.149988 1.18886,0.100035 1.18887,-0.232957 1.18886,0.154683 1.18887,0.930246 1.18886,0.215853 1.18887,-0.926765 1.18886,-0.25851 1.18887,-0.494146 1.18887,-1.173373 1.18886,-0.919194 1.18887,0.827254 1.18886,0.322272 1.18887,0.444651 2.37773,1.454437 2.37773,-0.535973 1.18887,-0.05234 1.18886,-0.449033 1.18887,-0.658999 1.18886,0.108874 2.37773,1.212597 1.18887,0.26678 1.18886,0.116737 1.18887,-0.121065 1.18887,-0.388678 1.18886,-0.262032 1.18887,0.390432 1.18886,0.117269 1.18887,0.65151 1.18886,1.285676 1.18887,0.05453 1.18886,0.637942 2.37773,1.582994 1.18887,-0.630881 1.18887,-0.114332 1.18886,-0.771471 1.18887,-0.367729 1.18886,-1.775493 1.18887,-1.174361 1.18886,-0.921693 1.18887,-0.151698 1.18886,0.100433 1.18887,0.45534 1.18886,1.795035 1.18887,0.393361 1.18887,-0.269079 1.18886,-0.10498 1.18887,0.410268 1.18886,-0.487517 1.18887,0.346814 1.18886,0.946338 1.18887,-0.126132 1.18886,-0.790331 1.18887,-0.02561 1.18886,-0.639528 1.18887,-0.461471 1.18887,0.139044 1.18886,1.57762 1.18887,0.362092 1.18886,1.128511 1.18887,0.371346 1.18886,-0.49497 1.18887,-0.22526 1.18887,-0.513712 1.18886,-0.158984 1.18887,-0.750569 1.18886,-0.389637 1.18887,-1.008515 1.18886,-1.210285 1.18887,-0.6585 1.18886,0.970621 1.18887,0.822032 1.18886,1.133762 1.18887,1.398208 1.18886,0.378001 1.18887,0.08895 1.18887,-1.422869 2.37773,-1.480359 1.18886,-0.05435 1.18887,-0.281266 1.18886,0.259512 2.37773,-1.116019 2.37774,-0.954963 1.18886,0.276698 1.18887,0.662736 1.18886,1.096723 1.18887,0.338654 1.18886,0.581501 2.37773,0.198954 1.18887,-0.476056 1.18886,0.176296 1.18887,-1.10089 1.18887,-0.148961 1.18886,0.369508 1.18887,-0.183367 1.18886,-0.32669 1.18887,0.164671 1.18886,0.528175 1.18887,0.288244 1.18886,0.477963 1.18887,1.171659 1.18886,1.507876 1.18887,0.06139 1.18887,-0.291152 1.18886,0.01439 1.18887,0.217423 h 1.18886 l 1.18887,0.531906 1.18886,0.255047 1.18887,0.612776 1.18886,-0.600658 1.18887,0.338258 2.37773,1.202056 2.37773,0.526574 1.18887,0.196483 1.18886,-1.32594 1.18887,-0.891006 2.37773,-2.25045 1.18887,-0.868536 1.18886,0.246454 1.18887,0.401426 1.18886,0.275165 1.18887,0.411356 1.18886,-0.442797 1.18887,-0.787371 1.18886,-0.242791 1.18887,-0.903362 1.18886,-0.210647 1.18887,0.349214 v 0"
           style="fill:none;stroke:#fde725;stroke-width:0.5;stroke-linecap:square;stroke-linejoin:round;stroke-miterlimit:10;stroke-dasharray:none;stroke-opacity:1"
           id="path788" />
      </g>
    </g>
    <g
       id="g790">
      <g
         id="g792"
         clip-path="url(#clipPath796)">
        <path
           d="m 57.480584,150.42157 1.188866,27.16802 1.188865,10.97321 1.188866,16.84635 1.188865,12.06312 1.188866,-11.82724 1.188865,-5.32697 1.188866,0.78308 1.188865,-8.51643 1.188866,-9.42484 2.377731,-10.53666 4.755462,-27.42283 2.377731,-16.08991 3.566596,-25.42792 1.188866,-9.220348 2.37773,-14.77327 1.188866,-6.03029 1.188865,-6.6102 1.188866,-4.136782 1.188865,-3.549945 1.188866,-3.081146 1.188865,-2.1639 1.188866,-0.810542 1.188865,-0.562928 1.188866,-0.962664 1.188865,-0.0078 1.188866,0.965353 1.188865,0.724997 1.188864,0.179213 1.18887,2.001434 1.18886,1.52586 1.18887,0.316929 2.37773,-0.442761 1.18887,-0.784861 1.18886,-0.607863 1.18887,-0.752242 1.18886,-0.0148 1.18887,0.667142 2.37773,1.544889 2.37773,0.05696 1.18886,-0.797804 1.18887,-0.655478 1.18887,-0.791048 1.18886,1.590654 1.18887,0.549201 1.18886,0.851661 1.18887,1.090405 1.18886,0.589966 1.18887,-0.843337 1.18886,-0.09935 1.18887,-0.257242 1.18886,0.23874 1.18887,-0.166783 1.18887,-0.358347 2.37773,-0.311272 1.18886,-0.416856 1.18887,-0.636926 1.18886,-0.0072 1.18887,-0.225094 1.18886,0.237042 1.18887,0.447494 1.18886,0.269681 1.18887,0.799276 1.18887,-0.172517 1.18886,-0.527718 1.18887,0.120037 1.18886,-1.693863 1.18887,-0.632868 1.18886,0.09782 1.18887,-0.409473 h 1.18886 l 1.18887,0.975988 1.18886,0.55385 1.18887,-0.153584 1.18887,0.05284 1.18886,-0.441009 1.18887,-1.323696 1.18886,-0.417276 1.18887,0.0822 1.18886,-0.112123 1.18887,0.303476 1.18886,1.641329 1.18887,0.568806 1.18887,0.25261 1.18886,-0.238282 1.18887,0.162138 1.18886,-0.885327 1.18887,-0.475805 1.18886,0.10472 1.18887,0.436325 1.18886,-0.227449 4.75547,2.674582 1.18886,0.221837 1.18887,0.454878 1.18886,0.580623 1.18887,-0.457182 1.18886,-0.652171 1.18887,0.425661 1.18887,0.299537 1.18886,0.1617 1.18886,0.547788 2.37774,0.271967 1.18886,-0.681188 1.18887,-0.334487 1.18886,-0.536459 1.18887,0.204623 1.18886,0.395696 1.18887,1.903713 1.18886,1.343183 1.18887,0.662242 1.18887,-0.505107 1.18886,0.143846 2.37773,-2.049258 1.18887,0.918998 1.18886,1.188128 1.18887,-0.160885 1.18886,0.378975 1.18887,-0.387568 3.5666,-0.275653 1.18886,0.08844 1.18887,0.386675 1.18886,-1.124168 1.18887,-0.775738 1.18886,0.379275 1.18887,-0.565408 1.18886,-0.0044 1.18887,0.203844 1.18887,-0.13286 1.18886,-0.29114 1.18887,-0.963782 1.18886,0.550126 1.18887,-0.242855 1.18886,0.513742 1.18887,0.122713 1.18886,1.254527 1.18887,0.01963 1.18886,0.620266 1.18887,0.34842 1.18887,0.0021 1.18886,-0.718455 1.18887,-0.149988 1.18886,0.100035 1.18887,-0.232957 1.18886,0.154683 1.18887,0.930246 1.18886,0.215853 1.18887,-0.926765 1.18886,-0.25851 1.18887,-0.494146 1.18887,-1.173373 1.18886,-0.919194 1.18887,0.827254 1.18886,0.322272 1.18887,0.444651 2.37773,1.454437 2.37773,-0.535973 1.18887,-0.05234 1.18886,-0.449033 1.18887,-0.658999 1.18886,0.108874 2.37773,1.212597 1.18887,0.26678 1.18886,0.116737 1.18887,-0.121065 1.18887,-0.388678 1.18886,-0.262032 1.18887,0.390432 1.18886,0.117269 1.18887,0.65151 1.18886,1.285676 1.18887,0.05453 1.18886,0.637942 2.37773,1.582994 1.18887,-0.630881 1.18887,-0.114332 1.18886,-0.771471 1.18887,-0.367729 1.18886,-1.775493 1.18887,-1.174361 1.18886,-0.921693 1.18887,-0.151698 1.18886,0.100433 1.18887,0.45534 1.18886,1.795035 1.18887,0.393361 1.18887,-0.269079 1.18886,-0.10498 1.18887,0.410268 1.18886,-0.487517 1.18887,0.346814 1.18886,0.946338 1.18887,-0.126132 1.18886,-0.790331 1.18887,-0.02561 1.18886,-0.639528 1.18887,-0.461471 1.18887,0.139044 1.18886,1.57762 1.18887,0.362092 1.18886,1.128511 1.18887,0.371346 1.18886,-0.49497 1.18887,-0.22526 1.18887,-0.513712 1.18886,-0.158984 1.18887,-0.750569 1.18886,-0.389637 1.18887,-1.008515 1.18886,-1.210285 1.18887,-0.6585 1.18886,0.970621 1.18887,0.822032 1.18886,1.133762 1.18887,1.398208 1.18886,0.378001 1.18887,0.08895 1.18887,-1.422869 2.37773,-1.480359 1.18886,-0.05435 1.18887,-0.281266 1.18886,0.259512 2.37773,-1.116019 2.37774,-0.954963 1.18886,0.276698 1.18887,0.662736 1.18886,1.096723 1.18887,0.338654 1.18886,0.581501 2.37773,0.198954 1.18887,-0.476056 1.18886,0.176296 1.18887,-1.10089 1.18887,-0.148961 1.18886,0.369508 1.18887,-0.183367 1.18886,-0.32669 1.18887,0.164671 1.18886,0.528175 1.18887,0.288244 1.18886,0.477963 1.18887,1.171659 1.18886,1.507876 1.18887,0.06139 1.18887,-0.291152 1.18886,0.01439 1.18887,0.217423 h 1.18886 l 1.18887,0.531906 1.18886,0.255047 1.18887,0.612776 1.18886,-0.600658 1.18887,0.338258 2.37773,1.202056 2.37773,0.526574 1.18887,0.196483 1.18886,-1.32594 1.18887,-0.891006 2.37773,-2.25045 1.18887,-0.868536 1.18886,0.246454 1.18887,0.401426 1.18886,0.275165 1.18887,0.411356 1.18886,-0.442797 1.18887,-0.787371 1.18886,-0.242791 1.18887,-0.903362 1.18886,-0.210647 1.18887,0.349214 v 0"
           style="fill:none;stroke:#fde725;stroke-width:0.5;stroke-linecap:square;stroke-linejoin:round;stroke-miterlimit:10;stroke-dasharray:none;stroke-opacity:1"
           id="path798" />
      </g>
    </g>
    <g
       id="g800">
      <path
         d="M 56.291719,41.8 V 261.2"
         style="fill:none;stroke:#000000;stroke-width:0.8;stroke-linecap:square;stroke-linejoin:miter;stroke-miterlimit:10;stroke-dasharray:none;stroke-opacity:1"
         id="path802" />
      <path
         d="M 411.7625,41.8 V 261.2"
         style="fill:none;stroke:#000000;stroke-width:0.8;stroke-linecap:square;stroke-linejoin:miter;stroke-miterlimit:10;stroke-dasharray:none;stroke-opacity:1"
         id="path804" />
      <path
         d="M 56.291719,41.8 H 411.7625"
         style="fill:none;stroke:#000000;stroke-width:0.8;stroke-linecap:square;stroke-linejoin:miter;stroke-miterlimit:10;stroke-dasharray:none;stroke-opacity:1"
         id="path806" />
      <path
         d="M 56.291719,261.2 H 411.7625"
         style="fill:none;stroke:#000000;stroke-width:0.8;stroke-linecap:square;stroke-linejoin:miter;stroke-miterlimit:10;stroke-dasharray:none;stroke-opacity:1"
         id="path808" />
      <g
         id="g810"
         transform="translate(141.21461,267.2)">
        <text
           xml:space="preserve"
           transform="scale(1,-1)"
           style="font-variant:normal;font-weight:normal;font-size:12px;font-family:'DejaVu Sans';-inkscape-font-specification:DejaVuSans;writing-mode:lr-tb;fill:#000000;fill-opacity:1;fill-rule:nonzero;stroke:none"
           id="text814"><tspan
             x="0 3.54 11.148 17.4 22.104 29.459999 37.080002 40.416 43.751999 47.088001 51.792 58.896 62.712002 66.047997 73.655998 77.472 82.176003 89.783997 97.164001 100.98 108.36 115.98 123.6 130.98 134.79601 141.048 147.64799 155.028 162.636 169.992 174.924 178.25999"
             y="0"
             sodipodi:role="line"
             id="tspan812">Instability in the edge scenario</tspan></text>
      </g>
      <path
         d="m 151.075,238.52813 h 253.6875 c 1.33333,0 2,0.66666 2,2 V 254.2 c 0,1.33333 -0.66667,2 -2,2 H 151.075 c -1.33333,0 -2,-0.66667 -2,-2 v -13.67187 c 0,-1.33334 0.66667,-2 2,-2 z"
         style="fill:#ffffff;fill-opacity:0.8;fill-rule:nonzero;stroke:#cccccc;stroke-width:1;stroke-linecap:butt;stroke-linejoin:miter;stroke-miterlimit:10;stroke-dasharray:none;stroke-opacity:0.8"
         id="path816" />
      <path
         d="m 153.075,248.10625 h 10 10"
         style="fill:none;stroke:#440154;stroke-width:1;stroke-linecap:square;stroke-linejoin:round;stroke-miterlimit:10;stroke-dasharray:none;stroke-opacity:1"
         id="path818" />
      <g
         id="g820"
         transform="translate(181.075,244.60625)">
        <text
           xml:space="preserve"
           transform="scale(1,-1)"
           style="font-variant:normal;font-weight:normal;font-size:10px;font-family:'DejaVu Sans';-inkscape-font-specification:DejaVuSans;writing-mode:lr-tb;fill:#000000;fill-opacity:1;fill-rule:nonzero;stroke:none"
           id="text824"><tspan
             x="0 3.8912499 10.04125 15.54125 21.88125 25.991249 31.20125 33.981251 39.901249"
             y="0"
             sodipodi:role="line"
             id="tspan822">recursive</tspan></text>
      </g>
      <path
         d="m 247.12187,248.10625 h 10 10"
         style="fill:none;stroke:#21918c;stroke-width:1;stroke-linecap:square;stroke-linejoin:round;stroke-miterlimit:10;stroke-dasharray:none;stroke-opacity:1"
         id="path826" />
      <g
         id="g828"
         transform="translate(275.12187,244.60625)">
        <text
           xml:space="preserve"
           transform="scale(1,-1)"
           style="font-variant:normal;font-weight:normal;font-size:10px;font-family:'DejaVu Sans';-inkscape-font-specification:DejaVuSans;writing-mode:lr-tb;fill:#000000;fill-opacity:1;fill-rule:nonzero;stroke:none"
           id="text832"><tspan
             x="0 5.5 8.2799997 14.41 19.620001 24.83 27.610001"
             y="0"
             sodipodi:role="line"
             id="tspan830">classic</tspan></text>
      </g>
      <path
         d="m 328.24687,248.10625 h 10 10"
         style="fill:none;stroke:#fde725;stroke-width:1;stroke-linecap:square;stroke-linejoin:round;stroke-miterlimit:10;stroke-dasharray:none;stroke-opacity:1"
         id="path834" />
      <g
         id="g836"
         transform="translate(356.24687,244.60625)">
        <text
           xml:space="preserve"
           transform="scale(1,-1)"
           style="font-variant:normal;font-weight:normal;font-size:10px;font-family:'DejaVu Sans';-inkscape-font-specification:DejaVuSans;writing-mode:lr-tb;fill:#000000;fill-opacity:1;fill-rule:nonzero;stroke:none"
           id="text840"><tspan
             x="0 6.3499999 10.24125 16.36125 22.71125 28.831249 34.041248 40.19125"
             y="0"
             sodipodi:role="line"
             id="tspan838">proposed</tspan></text>
      </g>
    </g>
  </g>
</svg>
